<svg width="45.000000" height="45.000000" viewBox="0 0 45 45" fill="none" xmlns="http://www.w3.org/2000/svg" xmlns:xlink="http://www.w3.org/1999/xlink">
	<desc>
	</desc>
	<defs>
		<clipPath id="clip13_1726">
			<rect id="heart 2" rx="-0.500000" width="44.000000" height="44.000000" transform="translate(0.500000 0.500000)" fill="white" fill-opacity="0"/>
		</clipPath>
	</defs>
	<rect id="heart 2" rx="-0.500000" width="44.000000" height="44.000000" transform="translate(0.500000 0.500000)" fill="#FFFFFF" fill-opacity="0"/>
	<g clip-path="url(#clip13_1726)">
		<path id="Vector" d="M11.9 3.48C9.15 3.87 7.25 4.6 5.43 5.97C1.17 9.16 -0.8 14.5 0.31 19.82C0.79 22.14 2.01 24.53 3.57 26.2C4.01 26.66 7.38 29.47 12.96 34.04C17.75 37.96 21.79 41.25 21.96 41.37C22.38 41.66 22.67 41.62 23.17 41.24C23.4 41.07 27.35 37.84 31.95 34.08C37.93 29.19 40.57 26.98 41.19 26.34C43.01 24.45 44.17 22.21 44.74 19.51C45.03 18.17 45.03 15.65 44.74 14.32C44.2 11.78 43.1 9.58 41.46 7.76C39.53 5.59 37.26 4.29 34.36 3.68C33.1 3.41 30.69 3.39 29.39 3.63C27.04 4.07 24.97 5.07 23.15 6.65L22.44 7.26L21.8 6.66C20.27 5.22 18.16 4.18 15.82 3.68C15.01 3.51 12.56 3.38 11.9 3.48ZM14.91 5.32C15.42 5.39 16.24 5.58 16.74 5.75C18.49 6.32 19.69 7.06 21.17 8.48C22.08 9.35 22.15 9.4 22.5 9.4C22.85 9.4 22.92 9.36 23.76 8.53C25.54 6.79 27.18 5.9 29.53 5.39C30.55 5.16 32.95 5.16 33.99 5.39C36.35 5.9 38.26 6.96 39.9 8.66C40.82 9.62 41.36 10.37 41.91 11.45C43.29 14.15 43.57 17.57 42.66 20.51C42.07 22.37 41.22 23.83 39.91 25.17C39.59 25.5 35.54 28.88 30.9 32.66L22.48 39.55L22.06 39.21C21.84 39.03 17.98 35.86 13.48 32.19C8.33 27.98 5.1 25.28 4.78 24.91C3.39 23.34 2.47 21.52 2 19.35C1.72 18.1 1.73 15.71 2 14.43C2.36 12.77 3.01 11.26 3.92 10C4.51 9.18 5.65 8 6.37 7.46C8.78 5.63 11.83 4.86 14.91 5.32Z" fill="#F6A6BF" fill-opacity="1.000000" fill-rule="nonzero"/>
		<path id="Vector" d="M17.53 10.93C15.38 11.45 14.24 13.87 15.22 15.89C15.49 16.46 16.28 17.23 16.91 17.53C17.39 17.77 17.53 17.78 18.36 17.79C19.18 17.79 19.34 17.77 19.8 17.56C20.5 17.22 21.21 16.53 21.55 15.82C21.81 15.29 21.83 15.18 21.83 14.37C21.83 13.24 21.62 12.68 20.96 11.97C20.08 11.01 18.79 10.62 17.53 10.93ZM19.37 12.89C20.05 13.37 20.31 14.3 19.95 15.07C19.29 16.52 17.1 16.36 16.68 14.82C16.5 14.12 16.75 13.3 17.29 12.93C17.92 12.49 18.78 12.48 19.37 12.89Z" fill="#F6A6BF" fill-opacity="1.000000" fill-rule="nonzero"/>
		<path id="Vector" d="M25.83 10.89C24.81 11.11 23.88 11.85 23.42 12.83C23.17 13.35 23.15 13.47 23.15 14.32C23.15 15.17 23.17 15.29 23.42 15.82C24.16 17.36 25.93 18.17 27.56 17.71C28.6 17.41 29.48 16.61 29.89 15.58C30.3 14.52 30.1 13.09 29.4 12.19C28.63 11.17 27.13 10.63 25.83 10.89ZM27.28 12.73C28 13.05 28.47 13.88 28.34 14.58C28.18 15.41 27.59 15.98 26.81 16.06C26.27 16.11 25.83 15.96 25.42 15.61C25.02 15.27 24.87 14.89 24.87 14.32C24.87 13.05 26.14 12.21 27.28 12.73Z" fill="#F6A6BF" fill-opacity="1.000000" fill-rule="nonzero"/>
		<path id="Vector" d="M11.73 16.72C10.81 17.03 10.17 17.56 9.8 18.36C9.53 18.95 9.54 20.35 9.82 20.92C10.15 21.58 10.58 22.02 11.23 22.34C11.75 22.6 11.89 22.63 12.61 22.63C13.34 22.63 13.44 22.6 13.95 22.33C14.61 21.97 15.05 21.5 15.36 20.83C15.69 20.13 15.68 19.15 15.36 18.43C15.05 17.78 14.5 17.2 13.91 16.9C13.33 16.62 12.3 16.54 11.73 16.72ZM13.13 18.49C13.98 18.84 14.1 20.12 13.34 20.66C12.99 20.91 12.41 20.97 12.06 20.79C11.58 20.54 11.33 20.17 11.33 19.66C11.33 18.67 12.2 18.1 13.13 18.49Z" fill="#F6A6BF" fill-opacity="1.000000" fill-rule="nonzero"/>
		<path id="Vector" d="M31.27 16.81C30.41 17.17 29.84 17.77 29.52 18.61C29.13 19.64 29.44 21 30.23 21.79C31.51 23.08 33.79 22.89 34.84 21.41C35.43 20.58 35.56 19.32 35.17 18.43C34.91 17.86 34.25 17.18 33.67 16.9C32.97 16.55 31.96 16.52 31.27 16.81ZM33.05 18.57C33.88 19.12 33.82 20.32 32.94 20.75C31.84 21.33 30.64 20.06 31.28 19C31.66 18.38 32.47 18.18 33.05 18.57Z" fill="#F6A6BF" fill-opacity="1.000000" fill-rule="nonzero"/>
		<path id="Vector" d="M21.73 19.52C18.2 19.85 15.23 22.4 14.21 25.98C14.06 26.54 14.02 26.9 14.01 27.9C14.01 29.1 14.02 29.14 14.29 29.73C14.83 30.86 15.99 31.72 17.19 31.9C17.56 31.95 18.4 31.9 20.19 31.72L22.67 31.47L24.72 31.69C27.29 31.96 28.1 31.98 28.71 31.74C29.81 31.32 30.49 30.7 30.96 29.72C31.63 28.28 31.25 25.65 30.08 23.7C29.6 22.92 28.61 21.8 27.85 21.22C26.16 19.91 23.95 19.3 21.73 19.52ZM24.3 21.45C27.3 22.18 29.52 24.94 29.52 27.94C29.52 28.86 29.33 29.32 28.75 29.76C28.15 30.23 27.88 30.24 25.11 29.96L22.63 29.7L20.14 29.96C17.98 30.18 17.58 30.2 17.21 30.11C16.27 29.86 15.73 29.08 15.73 27.99C15.73 24.59 18.47 21.61 21.91 21.27C22.75 21.19 23.44 21.24 24.3 21.45Z" fill="#F6A6BF" fill-opacity="1.000000" fill-rule="nonzero"/>
	</g>
</svg>
