<svg width="30.000000" height="30.000000" viewBox="0 0 30 30" fill="none" xmlns="http://www.w3.org/2000/svg" xmlns:xlink="http://www.w3.org/1999/xlink">
	<desc>
			Created with Pixso.
	</desc>
	<defs>
		<clipPath id="clip13_2139">
			<rect id="ant-design:instagram-outlined" rx="-0.500000" width="29.000000" height="29.000000" transform="translate(0.500000 0.500000)" fill="white" fill-opacity="0"/>
		</clipPath>
	</defs>
	<rect id="ant-design:instagram-outlined" rx="-0.500000" width="29.000000" height="29.000000" transform="translate(0.500000 0.500000)" fill="#FFFFFF" fill-opacity="0"/>
	<g clip-path="url(#clip13_2139)">
		<path id="Vector" d="M14.99 8.99C11.67 8.99 8.99 11.67 8.99 15C8.99 18.32 11.67 21 14.99 21C18.32 21 21 18.32 21 15C21 11.67 18.32 8.99 14.99 8.99ZM14.99 18.9C12.84 18.9 11.09 17.15 11.09 15C11.09 12.84 12.84 11.09 14.99 11.09C17.14 11.09 18.9 12.84 18.9 15C18.9 17.15 17.14 18.9 14.99 18.9ZM21.25 7.34C20.47 7.34 19.84 7.97 19.84 8.74C19.84 9.52 20.47 10.15 21.25 10.15C22.02 10.15 22.65 9.52 22.65 8.74C22.65 8.56 22.62 8.38 22.55 8.21C22.48 8.04 22.37 7.88 22.24 7.75C22.11 7.62 21.96 7.52 21.79 7.45C21.62 7.38 21.43 7.34 21.25 7.34ZM26.71 15C26.71 13.38 26.72 11.78 26.63 10.16C26.54 8.29 26.11 6.62 24.74 5.25C23.37 3.88 21.71 3.45 19.83 3.36C18.21 3.27 16.61 3.29 15 3.29C13.38 3.29 11.78 3.27 10.16 3.36C8.29 3.45 6.62 3.88 5.25 5.25C3.88 6.62 3.45 8.29 3.36 10.16C3.27 11.78 3.29 13.38 3.29 15C3.29 16.61 3.27 18.21 3.36 19.83C3.45 21.7 3.88 23.37 5.25 24.74C6.63 26.11 8.29 26.54 10.16 26.63C11.78 26.72 13.38 26.71 15 26.71C16.61 26.71 18.22 26.72 19.83 26.63C21.71 26.54 23.37 26.11 24.74 24.74C26.11 23.37 26.54 21.7 26.63 19.83C26.72 18.21 26.71 16.61 26.71 15ZM24.13 21.9C23.91 22.44 23.66 22.83 23.24 23.25C22.83 23.66 22.43 23.92 21.9 24.13C20.36 24.74 16.7 24.6 14.99 24.6C13.29 24.6 9.62 24.74 8.08 24.13C7.55 23.92 7.15 23.66 6.74 23.25C6.33 22.83 6.07 22.44 5.86 21.91C5.25 20.36 5.38 16.7 5.38 15C5.38 13.29 5.25 9.62 5.86 8.08C6.07 7.55 6.33 7.15 6.74 6.74C7.15 6.33 7.55 6.07 8.08 5.86C9.62 5.25 13.29 5.39 14.99 5.39C16.7 5.39 20.36 5.25 21.91 5.86C22.44 6.07 22.84 6.33 23.25 6.74C23.66 7.16 23.92 7.55 24.13 8.08C24.74 9.62 24.6 13.29 24.6 15C24.6 16.7 24.74 20.36 24.13 21.9Z" fill="#FFFFFF" fill-opacity="1.000000" fill-rule="nonzero"/>
	</g>
</svg>
