<svg width="25.000000" height="25.000000" viewBox="0 0 25 25" fill="none" xmlns="http://www.w3.org/2000/svg" xmlns:xlink="http://www.w3.org/1999/xlink">
	<desc>
			Created with Pixso.
	</desc>
	<defs>
		<clipPath id="clip13_1681">
			<rect id="healthicons:geo-location-outline" rx="-0.500000" width="24.000000" height="24.000000" transform="translate(0.500000 0.500000)" fill="white" fill-opacity="0"/>
		</clipPath>
	</defs>
	<rect id="healthicons:geo-location-outline" rx="-0.500000" width="24.000000" height="24.000000" transform="translate(0.500000 0.500000)" fill="#FFFFFF" fill-opacity="0"/>
	<g clip-path="url(#clip13_1681)">
		<path id="Vector" d="M8.08 6C8.66 5.42 9.34 4.96 10.1 4.64C10.86 4.32 11.67 4.16 12.5 4.16C14.15 4.16 15.74 4.82 16.91 6C18.09 7.19 18.75 8.79 18.75 10.45C18.75 13.33 17.15 15.94 15.49 17.86C14.79 18.67 14.03 19.42 13.22 20.11C12.92 20.36 12.67 20.56 12.5 20.7C12.32 20.56 12.07 20.36 11.78 20.11C10.96 19.42 10.2 18.67 9.5 17.86C7.84 15.94 6.25 13.33 6.25 10.45C6.25 8.78 6.91 7.18 8.08 6ZM12.2 21.77L12.5 21.35L12.8 21.77C12.71 21.84 12.6 21.87 12.5 21.87C12.39 21.87 12.28 21.84 12.2 21.77ZM12.2 21.77L12.5 21.35L12.8 21.77L12.8 21.77L12.8 21.77L12.82 21.76L12.88 21.71C12.93 21.68 13.01 21.62 13.1 21.55C13.3 21.4 13.57 21.18 13.89 20.9C14.74 20.18 15.54 19.39 16.27 18.54C18 16.55 19.79 13.7 19.79 10.45C19.79 8.51 19.02 6.64 17.65 5.27C16.98 4.59 16.17 4.05 15.29 3.68C14.4 3.31 13.45 3.12 12.5 3.12C11.54 3.12 10.59 3.31 9.7 3.68C8.82 4.05 8.01 4.59 7.34 5.27C5.97 6.65 5.2 8.51 5.2 10.45C5.2 13.7 6.99 16.55 8.72 18.54C9.45 19.39 10.25 20.18 11.1 20.9C11.42 21.18 11.7 21.4 11.89 21.55C11.98 21.62 12.08 21.69 12.17 21.76L12.19 21.77L12.19 21.77L12.2 21.77ZM10.41 10.41C10.41 9.86 10.63 9.33 11.02 8.94C11.41 8.55 11.94 8.33 12.5 8.33C13.05 8.33 13.58 8.55 13.97 8.94C14.36 9.33 14.58 9.86 14.58 10.41C14.58 10.96 14.36 11.49 13.97 11.88C13.58 12.28 13.05 12.5 12.5 12.5C11.94 12.5 11.41 12.28 11.02 11.88C10.63 11.49 10.41 10.96 10.41 10.41ZM12.5 7.29C11.67 7.29 10.87 7.62 10.29 8.2C9.7 8.79 9.37 9.58 9.37 10.41C9.37 11.24 9.7 12.04 10.29 12.62C10.87 13.21 11.67 13.54 12.5 13.54C13.33 13.54 14.12 13.21 14.71 12.62C15.29 12.04 15.62 11.24 15.62 10.41C15.62 9.58 15.29 8.79 14.71 8.2C14.12 7.62 13.33 7.29 12.5 7.29Z" fill="#F6A6BF" fill-opacity="1.000000" fill-rule="evenodd"/>
	</g>
</svg>
