<svg width="50.000000" height="50.000000" viewBox="0 0 50 50" fill="none" xmlns="http://www.w3.org/2000/svg" xmlns:xlink="http://www.w3.org/1999/xlink">
	<desc>
			Created with Pixso.
	</desc>
	<defs>
		<clipPath id="clip11_498">
			<rect id="fluent:animal-cat-20-regular" rx="-0.500000" width="49.000000" height="49.000000" transform="translate(0.500000 0.500000)" fill="white" fill-opacity="0"/>
		</clipPath>
	</defs>
	<rect id="fluent:animal-cat-20-regular" rx="-0.500000" width="49.000000" height="49.000000" transform="translate(0.500000 0.500000)" fill="#FFFFFF" fill-opacity="0"/>
	<g clip-path="url(#clip11_498)">
		<path id="Vector" d="M12.42 45L35.62 45C37.99 45 39.91 43.08 39.91 40.71L39.91 21.68C43.93 21.52 46.34 17.06 44.19 13.58L42.93 11.56C42.46 10.79 41.8 10.16 41.01 9.72C40.22 9.28 39.33 9.05 38.43 9.05L34.84 9.05L34.84 7.46C34.84 7.14 34.78 6.82 34.66 6.52C34.53 6.22 34.35 5.95 34.12 5.72C33.89 5.49 33.62 5.31 33.32 5.18C33.02 5.06 32.7 5 32.38 5C31.58 5 30.78 5.15 30.04 5.46C29.3 5.77 28.62 6.22 28.06 6.79C27.49 7.35 27.04 8.03 26.73 8.77C26.42 9.51 26.27 10.31 26.27 11.11L26.27 19.75C23.07 20.06 20.66 21.58 18.89 23.71C16.93 26.06 15.78 29.12 15.09 32.06C14.41 35.02 14.16 37.96 14.09 40.14C14.06 41.08 14.06 41.88 14.07 42.5L12.42 42.5C11.46 42.5 10.52 42.21 9.72 41.69C8.91 41.16 8.28 40.41 7.9 39.53C7.52 38.65 7.4 37.68 7.56 36.73C7.73 35.78 8.16 34.9 8.82 34.2L11.12 31.74C12.7 30.04 13.57 27.79 13.53 25.46C13.49 23.14 12.55 20.92 10.91 19.27L8.65 17.02C8.53 16.9 8.39 16.8 8.24 16.74C8.09 16.67 7.92 16.64 7.76 16.64C7.59 16.63 7.43 16.67 7.27 16.73C7.12 16.79 6.98 16.88 6.86 17C6.75 17.12 6.65 17.26 6.59 17.41C6.53 17.57 6.5 17.73 6.5 17.9C6.5 18.06 6.53 18.23 6.6 18.38C6.66 18.53 6.76 18.67 6.88 18.79L9.14 21.04C10.32 22.23 11 23.83 11.03 25.5C11.06 27.18 10.44 28.8 9.29 30.03L6.99 32.5C6.01 33.56 5.35 34.88 5.11 36.31C4.86 37.73 5.04 39.2 5.61 40.52C6.19 41.85 7.14 42.98 8.35 43.77C9.56 44.57 10.97 44.99 12.42 45ZM32.34 7.5L32.34 10.3C32.34 10.63 32.48 10.95 32.71 11.18C32.94 11.42 33.26 11.55 33.59 11.55L38.43 11.55C39.4 11.55 40.3 12.05 40.81 12.87L42.07 14.9C42.33 15.33 42.48 15.81 42.49 16.31C42.5 16.81 42.38 17.31 42.13 17.74C41.89 18.18 41.54 18.54 41.1 18.8C40.67 19.05 40.18 19.18 39.68 19.18L38.66 19.18C38.33 19.18 38.01 19.32 37.78 19.55C37.54 19.79 37.41 20.1 37.41 20.43L37.41 40.71C37.41 41.69 36.61 42.5 35.62 42.5L33.83 42.5L33.83 40.71C33.83 38.76 33.06 36.9 31.68 35.52C30.31 34.15 28.45 33.37 26.5 33.37L23.97 33.37C23.64 33.37 23.32 33.5 23.08 33.74C22.85 33.97 22.72 34.29 22.72 34.62C22.72 34.95 22.85 35.27 23.08 35.51C23.32 35.74 23.64 35.87 23.97 35.87L26.5 35.87C29.17 35.87 31.33 38.04 31.33 40.71L31.33 42.5L16.57 42.5C16.55 41.91 16.55 41.14 16.58 40.22C16.66 38.13 16.88 35.37 17.53 32.63C18.17 29.87 19.2 27.23 20.81 25.3C22.37 23.43 24.5 22.19 27.52 22.19C27.85 22.19 28.17 22.06 28.4 21.82C28.64 21.59 28.77 21.27 28.77 20.94L28.77 11.11C28.77 9.12 30.36 7.51 32.34 7.5L32.34 7.5Z" fill="#F6A6BF" fill-opacity="1.000000" fill-rule="nonzero"/>
	</g>
</svg>
