<svg width="70.000000" height="57.000000" viewBox="0 0 70 57" fill="none" xmlns="http://www.w3.org/2000/svg" xmlns:xlink="http://www.w3.org/1999/xlink">
	<desc>
			Created with Pixso.
	</desc>
	<defs/>
	<g opacity="0.700000">
		<path id="Vector" d="M46.49 0.15C40.88 1.62 37.52 8.62 39.88 13.88C42.88 20.53 51.9 19.66 55.26 12.42C55.97 10.88 56.04 10.53 56.04 8.25C56.04 6.04 55.97 5.61 55.36 4.35C54.6 2.81 53.31 1.47 51.73 0.65C50.58 0.05 47.88 -0.19 46.49 0.15ZM50.31 4.45C51.58 5.34 52.09 6.21 52.21 7.7C52.65 13.24 46.02 16.88 43.56 12.44C41.22 8.25 46.58 1.89 50.31 4.45Z" fill="#F6A6BF" fill-opacity="1.000000" fill-rule="nonzero"/>
		<path id="Vector" d="M18.71 0.58C17.22 1.12 15.37 2.93 14.57 4.6C13.96 5.86 13.88 6.29 13.88 8.5C13.88 10.78 13.96 11.13 14.66 12.66C16.25 16.09 19.32 18.32 22.7 18.5C25 18.62 26.53 18.1 28.11 16.66C31.87 13.24 31.7 7.01 27.75 2.98C25.92 1.12 24.17 0.33 21.68 0.25C20.39 0.2 19.39 0.33 18.71 0.58ZM23.46 4.62C25.43 5.66 26.68 7.63 26.87 9.98C27.31 15.62 20.58 16.29 18.17 10.85C17.2 8.64 17.71 5.89 19.34 4.75C20.44 4 22.17 3.95 23.46 4.62Z" fill="#F6A6BF" fill-opacity="1.000000" fill-rule="nonzero"/>
		<path id="Vector" d="M60.18 16.88C56.99 17.73 54.7 19.57 53.31 22.47C52.43 24.23 52.38 24.51 52.38 26.59C52.38 28.45 52.48 29.05 52.94 29.99C53.67 31.5 54.92 32.8 56.48 33.64C57.6 34.24 58.01 34.31 60.08 34.31C62.28 34.31 62.5 34.26 64.23 33.39C71.12 29.92 72.05 20.68 65.86 17.58C64.06 16.66 61.98 16.41 60.18 16.88ZM64.42 21.23C66 22.42 66.47 24.13 65.79 26.22C64.76 29.39 60.77 31.38 58.11 30.02C55.5 28.7 55.48 25 58.08 22.42C59.86 20.66 62.91 20.09 64.42 21.23Z" fill="#F6A6BF" fill-opacity="1.000000" fill-rule="nonzero"/>
		<path id="Vector" d="M5.09 17.8C3.19 18.42 1.58 19.84 0.68 21.72C0.09 22.94 0 23.44 0 25.27C0 27.21 0.07 27.53 0.92 29.27C4.33 36.32 13.57 37.21 16.88 30.83C17.47 29.74 17.54 29.32 17.54 27.23C17.51 25.17 17.44 24.7 16.83 23.46C15.44 20.53 12.62 18.2 9.67 17.58C7.89 17.21 6.82 17.26 5.09 17.8ZM10.25 21.92C13.06 23.29 14.54 26.84 13.32 29.22C12.76 30.29 11.11 31.21 9.74 31.21C6.82 31.21 3.77 28.03 3.77 25.03C3.77 23.66 4.84 22.12 6.21 21.55C7.04 21.18 9.13 21.38 10.25 21.92Z" fill="#F6A6BF" fill-opacity="1.000000" fill-rule="nonzero"/>
		<path id="Vector" d="M31.58 23.41C28.36 24.28 25.19 26.99 23.7 30.19C22.85 31.98 22.8 32.03 21.05 32.89C19.76 33.52 18.78 34.24 17.66 35.4C10.84 42.48 14.06 54.14 23.51 56.65C26.75 57.52 30.97 56.7 33.72 54.71L34.96 53.8L36.2 54.71C38.91 56.7 42.91 57.47 46.27 56.68C51.94 55.31 55.92 50.15 55.92 44.16C55.92 39.52 53.02 34.91 48.85 32.87C47.05 31.98 47.02 31.95 46.19 30.16C44.71 26.89 41.32 24.08 37.89 23.29C36.33 22.92 33.13 22.99 31.58 23.41ZM37.98 27.51C40.4 28.4 42.56 30.86 43.27 33.44C43.68 34.93 44.08 35.38 45.44 35.77C47.29 36.35 48.41 37.04 49.66 38.38C51.41 40.29 51.9 41.53 51.9 44.24C51.9 46.13 51.8 46.67 51.26 47.86C50.36 49.82 49.07 51.16 47.19 52.11C45.73 52.85 45.37 52.93 43.37 52.93C41.47 52.93 41 52.83 39.81 52.26C39.06 51.86 37.84 50.94 37.08 50.2C35.25 48.36 34.69 48.36 32.82 50.2C32.06 50.97 30.82 51.88 30.09 52.26C28.92 52.83 28.46 52.93 26.56 52.93C24.7 52.93 24.14 52.83 23 52.28C21.07 51.36 19.76 50.05 18.83 48.14C18.1 46.62 18.03 46.27 18.03 44.24C18.05 41.53 18.54 40.27 20.27 38.38C21.51 37.04 22.63 36.35 24.48 35.77C25.85 35.38 26.24 34.93 26.65 33.44C27.36 30.88 29.53 28.43 31.87 27.51C33.6 26.84 36.23 26.81 37.98 27.51Z" fill="#F6A6BF" fill-opacity="1.000000" fill-rule="nonzero"/>
	</g>
</svg>
