<svg width="22.000000" height="22.000000" viewBox="0 0 22 22" fill="none" xmlns="http://www.w3.org/2000/svg" xmlns:xlink="http://www.w3.org/1999/xlink">
	<desc>
			Created with Pixso.
	</desc>
	<defs>
		<clipPath id="clip13_1689">
			<rect id="fluent:call-connecting-20-regular" rx="-0.500000" width="21.000000" height="21.000000" transform="translate(0.500000 0.500000)" fill="white" fill-opacity="0"/>
		</clipPath>
	</defs>
	<rect id="fluent:call-connecting-20-regular" rx="-0.500000" width="21.000000" height="21.000000" transform="translate(0.500000 0.500000)" fill="#FFFFFF" fill-opacity="0"/>
	<g clip-path="url(#clip13_1689)">
		<path id="Vector" d="M7.18 2.32C6.04 2.03 4.84 2.16 3.9 2.68C2.94 3.22 2.27 4.17 2.24 5.43C2.19 7.42 2.65 10.08 4.47 13.2C6.27 16.28 8.25 18.13 9.9 19.23C10.94 19.92 12.09 19.94 13.08 19.49C14.04 19.04 14.83 18.15 15.24 17.05C15.34 16.77 15.38 16.48 15.36 16.19C15.33 15.9 15.25 15.61 15.1 15.36L14.06 13.49C13.73 12.91 13.21 12.47 12.59 12.24C11.97 12.02 11.29 12.03 10.67 12.26L9.94 12.54C9.58 12.68 9.26 12.61 9.07 12.43C8.45 11.82 8.01 10.99 7.81 10.1C7.74 9.82 7.87 9.49 8.18 9.25L8.84 8.75C9.38 8.35 9.75 7.76 9.88 7.11C10.02 6.45 9.91 5.77 9.57 5.19L8.5 3.32C8.36 3.08 8.17 2.86 7.95 2.69C7.72 2.52 7.46 2.39 7.18 2.32ZM3.34 5.46C3.36 4.61 3.79 4 4.44 3.64C5.1 3.27 6 3.16 6.91 3.39C7.18 3.46 7.41 3.63 7.55 3.87L8.62 5.74C8.82 6.08 8.88 6.49 8.8 6.89C8.72 7.28 8.5 7.63 8.18 7.87L7.52 8.37C6.95 8.8 6.55 9.54 6.73 10.34C6.98 11.42 7.52 12.44 8.3 13.22C8.88 13.78 9.7 13.81 10.33 13.57L11.07 13.29C11.44 13.15 11.84 13.14 12.22 13.28C12.59 13.41 12.9 13.68 13.1 14.02L14.14 15.9C14.28 16.13 14.3 16.41 14.2 16.67C13.89 17.53 13.29 18.18 12.61 18.49C11.96 18.79 11.22 18.78 10.51 18.31C9 17.3 7.14 15.58 5.42 12.64C3.7 9.69 3.3 7.24 3.34 5.46L3.34 5.46Z" fill="#F6A6BF" fill-opacity="1.000000" fill-rule="nonzero"/>
		<path id="Vector" d="M14.01 2.26C13.88 2.19 13.73 2.18 13.59 2.22C13.45 2.26 13.33 2.35 13.26 2.48C13.19 2.61 13.17 2.76 13.22 2.9C13.25 3.04 13.35 3.15 13.48 3.23L13.9 3.46C15.22 4.19 16.34 5.24 17.17 6.5C18 7.76 18.51 9.2 18.66 10.7L18.7 11.05C18.7 11.12 18.72 11.2 18.75 11.26C18.79 11.33 18.83 11.39 18.89 11.44C18.95 11.49 19.01 11.52 19.08 11.54C19.15 11.57 19.23 11.57 19.3 11.57C19.38 11.56 19.45 11.54 19.51 11.5C19.58 11.47 19.63 11.42 19.68 11.36C19.73 11.3 19.76 11.23 19.78 11.16C19.8 11.09 19.8 11.01 19.79 10.94L19.76 10.59C19.59 8.92 19.02 7.3 18.09 5.89C17.16 4.48 15.91 3.32 14.43 2.5L14.01 2.26Z" fill="#F6A6BF" fill-opacity="1.000000" fill-rule="nonzero"/>
		<path id="Vector" d="M12.72 5.21C12.8 5.09 12.92 5 13.06 4.96C13.2 4.93 13.35 4.95 13.48 5.02L13.61 5.11C14.5 5.64 15.26 6.36 15.85 7.21C16.43 8.07 16.82 9.04 16.99 10.06L17.04 10.35C17.05 10.43 17.05 10.5 17.04 10.57C17.02 10.64 16.99 10.71 16.95 10.77C16.91 10.83 16.85 10.88 16.79 10.92C16.73 10.96 16.66 10.99 16.59 11C16.52 11.01 16.44 11.01 16.37 10.99C16.3 10.98 16.23 10.95 16.17 10.9C16.11 10.86 16.06 10.8 16.03 10.74C15.99 10.68 15.96 10.61 15.95 10.54L15.9 10.24C15.76 9.38 15.43 8.56 14.94 7.83C14.44 7.11 13.8 6.5 13.05 6.05L12.91 5.97C12.85 5.93 12.8 5.88 12.75 5.82C12.71 5.76 12.68 5.7 12.66 5.63C12.64 5.56 12.64 5.49 12.65 5.41C12.66 5.34 12.69 5.27 12.72 5.21Z" fill="#F6A6BF" fill-opacity="1.000000" fill-rule="nonzero"/>
	</g>
</svg>
