<svg width="117.527344" height="13.398438" viewBox="0 0 117.527 13.3984" fill="none" xmlns="http://www.w3.org/2000/svg" xmlns:xlink="http://www.w3.org/1999/xlink">
	<desc>
			Created with Pixso.
	</desc>
	<defs/>
	<path id="Copyright © 2021" d="M42.33 1.64Q42.53 1.75 42.78 1.75Q43.03 1.75 43.22 1.64Q43.33 1.58 43.43 1.49Q43.54 1.37 43.61 1.23Q43.69 1.06 43.69 0.85Q43.69 0.66 43.62 0.5Q43.55 0.36 43.43 0.24Q43.34 0.16 43.25 0.11Q43.04 0 42.78 0Q42.54 0 42.36 0.09Q42.23 0.15 42.13 0.26Q41.99 0.39 41.93 0.56Q41.87 0.7 41.87 0.88Q41.87 1.07 41.94 1.22Q42 1.37 42.13 1.5Q42.22 1.59 42.33 1.64ZM61.55 3.65Q60.79 3.11 59.63 3.11Q58.79 3.11 58.11 3.4Q57.53 3.65 57.14 4.08Q57.07 4.15 57.02 4.22L57.02 0.21L55.67 0.21L55.67 10.59L57.02 10.59L57.02 6.77Q57.02 5.66 57.57 5.03Q57.61 4.99 57.64 4.95Q57.77 4.83 57.9 4.73Q58.49 4.31 59.37 4.31Q60.21 4.31 60.71 4.72Q60.78 4.78 60.85 4.86Q61.37 5.4 61.37 6.48L61.37 10.59L62.71 10.59L62.71 6.33Q62.71 4.83 61.97 4.02Q61.92 3.97 61.88 3.93Q61.73 3.77 61.55 3.65ZM2.91 10.25Q3.94 10.71 5.17 10.71Q6.32 10.71 7.28 10.31Q7.88 10.07 8.37 9.68Q8.66 9.45 8.91 9.17L8 8.28Q7.46 8.86 6.79 9.15Q6.08 9.46 5.24 9.46Q4.35 9.46 3.6 9.13Q3.43 9.06 3.27 8.97Q2.79 8.7 2.42 8.33Q2.12 8.01 1.89 7.62Q1.77 7.41 1.68 7.2Q1.39 6.5 1.39 5.69Q1.39 4.9 1.67 4.21Q1.76 3.99 1.89 3.77Q2.12 3.38 2.42 3.06Q2.79 2.69 3.27 2.42Q3.43 2.33 3.6 2.26Q4.35 1.93 5.24 1.93Q6.14 1.93 6.88 2.28Q7.5 2.56 8 3.09L8.91 2.21Q8.62 1.88 8.27 1.62Q7.82 1.28 7.29 1.07Q6.33 0.68 5.19 0.68Q3.99 0.68 2.97 1.12Q2.75 1.22 2.53 1.34Q1.84 1.71 1.32 2.25Q0.95 2.65 0.66 3.13Q0.51 3.4 0.39 3.68Q-0.01 4.6 -0.01 5.69Q-0.01 6.8 0.39 7.73Q0.51 8 0.66 8.26Q0.96 8.76 1.34 9.16Q1.85 9.69 2.52 10.06Q2.71 10.16 2.91 10.25ZM96.05 10.59L96.05 9.38L91.02 9.38L94.02 6.49Q94.95 5.6 95.29 4.9Q95.45 4.57 95.53 4.22Q95.63 3.83 95.63 3.41Q95.63 2.66 95.3 2.09Q95.08 1.71 94.71 1.42Q93.81 0.68 92.27 0.68Q91.12 0.68 90.19 1.08Q89.31 1.44 88.75 2.08Q88.72 2.12 88.68 2.17L89.64 2.99Q89.89 2.69 90.19 2.48Q90.98 1.93 92.14 1.93Q93.15 1.93 93.69 2.36Q93.87 2.5 94 2.69Q94.23 3.05 94.23 3.55Q94.23 3.57 94.23 3.58Q94.22 4.08 93.97 4.58Q93.72 5.09 93 5.79L89.01 9.64L89.01 10.59L96.05 10.59ZM99.62 10.4Q100.32 10.71 101.16 10.71Q101.94 10.71 102.61 10.43Q102.92 10.3 103.21 10.11Q103.26 10.08 103.32 10.04Q104.14 9.45 104.63 8.38Q105.15 7.25 105.15 5.69Q105.15 4.14 104.63 3.01Q104.14 1.94 103.32 1.35Q103.26 1.31 103.21 1.28Q102.92 1.09 102.61 0.96Q101.94 0.68 101.16 0.68Q100.32 0.68 99.62 0.99Q99.35 1.11 99.09 1.28Q99.04 1.31 98.99 1.34Q98.16 1.93 97.67 3.01Q97.15 4.14 97.15 5.69Q97.15 7.25 97.67 8.38Q98.16 9.46 98.99 10.05Q99.04 10.08 99.09 10.11Q99.35 10.28 99.62 10.4ZM113.34 10.59L113.34 9.38L108.31 9.38L111.31 6.49Q112.24 5.6 112.58 4.9Q112.74 4.57 112.82 4.22Q112.92 3.83 112.92 3.41Q112.92 2.66 112.59 2.09Q112.37 1.71 112.01 1.42Q111.1 0.68 109.56 0.68Q108.41 0.68 107.48 1.08Q106.6 1.44 106.04 2.08Q106.01 2.12 105.97 2.17L106.93 2.99Q107.18 2.69 107.49 2.48Q108.27 1.93 109.43 1.93Q110.44 1.93 110.98 2.36Q111.16 2.5 111.29 2.69Q111.52 3.05 111.52 3.55Q111.52 3.57 111.52 3.58Q111.51 4.08 111.26 4.58Q111.01 5.09 110.29 5.79L106.3 9.64L106.3 10.59L113.34 10.59ZM77.34 10.33Q78.16 10.64 79.09 10.64Q80.03 10.64 80.85 10.33Q81.24 10.19 81.6 9.98Q82.16 9.65 82.61 9.21Q83.06 8.75 83.39 8.18Q83.62 7.79 83.77 7.36Q84.05 6.56 84.05 5.67Q84.05 4.7 83.73 3.85Q83.59 3.5 83.41 3.17Q83.08 2.6 82.64 2.16Q82.2 1.72 81.63 1.4Q81.34 1.23 81.03 1.11Q80.15 0.75 79.12 0.75Q78.15 0.75 77.3 1.08Q76.94 1.22 76.6 1.41Q76.04 1.74 75.59 2.18Q75.14 2.63 74.82 3.2Q74.59 3.6 74.44 4.03Q74.17 4.81 74.17 5.69Q74.17 6.58 74.44 7.36Q74.59 7.79 74.82 8.19Q75.15 8.76 75.6 9.21Q76.04 9.65 76.59 9.98Q76.95 10.19 77.34 10.33ZM117.52 10.59L117.52 0.8L113.93 0.8L113.93 2.01L116.14 2.01L116.14 10.59L117.52 10.59ZM80.72 9.71Q79.96 10.01 79.09 10.01Q78.3 10.01 77.6 9.75Q77.25 9.63 76.92 9.43Q76.43 9.14 76.04 8.75Q75.66 8.36 75.38 7.87Q75.21 7.56 75.09 7.23Q74.82 6.51 74.82 5.69Q74.82 4.88 75.09 4.16Q75.21 3.83 75.38 3.52Q75.66 3.04 76.03 2.65Q76.42 2.25 76.93 1.96Q77.23 1.78 77.54 1.66Q78.28 1.38 79.12 1.38Q80.09 1.38 80.91 1.74Q81.12 1.83 81.31 1.94Q81.79 2.22 82.17 2.6Q82.56 2.99 82.84 3.49Q82.97 3.72 83.07 3.97Q83.39 4.75 83.39 5.67Q83.39 6.49 83.12 7.22Q83 7.55 82.82 7.86Q82.52 8.39 82.11 8.8Q81.74 9.16 81.28 9.43Q81.01 9.59 80.72 9.71ZM68.65 10.55Q69.08 10.41 69.38 10.16L68.96 9.19Q68.83 9.29 68.69 9.37Q68.34 9.55 67.91 9.55Q67.43 9.55 67.14 9.31Q67.09 9.27 67.04 9.22L67.04 9.22Q66.74 8.9 66.74 8.3L66.74 4.28L68.87 4.28L68.87 3.17L66.74 3.17L66.74 1.55L65.4 1.55L65.4 3.17L64.14 3.17L64.14 4.28L65.4 4.28L65.4 8.36Q65.4 9.35 65.89 9.94Q65.95 10.01 66.02 10.08Q66.07 10.13 66.13 10.18Q66.73 10.68 67.75 10.68Q68.07 10.68 68.37 10.62Q68.51 10.59 68.65 10.55ZM102.18 9.24Q101.72 9.46 101.16 9.46Q100.57 9.46 100.1 9.22Q99.62 8.98 99.26 8.5Q98.55 7.53 98.55 5.69Q98.55 3.86 99.26 2.9Q99.62 2.4 100.11 2.16Q100.57 1.93 101.16 1.93Q101.72 1.93 102.17 2.15Q102.67 2.39 103.04 2.9Q103.75 3.86 103.75 5.69Q103.75 7.53 103.04 8.5Q102.67 9 102.18 9.24ZM77.82 8.27Q78.46 8.58 79.25 8.58Q79.85 8.58 80.37 8.36Q80.47 8.32 80.58 8.27Q81.03 8.04 81.34 7.67Q81.43 7.56 81.52 7.43L80.72 6.87Q80.51 7.19 80.21 7.37Q79.8 7.63 79.23 7.63Q78.73 7.63 78.33 7.42Q78.09 7.3 77.89 7.09Q77.75 6.95 77.64 6.79Q77.36 6.33 77.36 5.69Q77.36 5.05 77.64 4.6Q77.75 4.43 77.89 4.3Q78.09 4.09 78.33 3.97Q78.73 3.76 79.23 3.76Q79.81 3.76 80.22 4.02Q80.51 4.2 80.72 4.52L81.52 3.94Q81.47 3.87 81.41 3.8Q81.09 3.38 80.58 3.12Q80.47 3.07 80.37 3.02Q79.85 2.81 79.25 2.81Q78.47 2.81 77.84 3.12Q77.78 3.15 77.72 3.18Q77.37 3.36 77.1 3.63Q76.85 3.88 76.67 4.2Q76.62 4.28 76.58 4.37Q76.29 4.96 76.29 5.69Q76.29 6.43 76.58 7.03Q76.62 7.11 76.67 7.19Q76.84 7.5 77.08 7.74Q77.36 8.02 77.72 8.22Q77.77 8.24 77.82 8.27ZM11.85 10.32Q12.63 10.68 13.59 10.68Q14.55 10.68 15.33 10.31Q15.45 10.26 15.57 10.19Q16.04 9.93 16.4 9.56Q16.71 9.24 16.94 8.84Q17.02 8.69 17.1 8.54Q17.44 7.79 17.44 6.89Q17.44 5.97 17.09 5.21Q17.02 5.07 16.94 4.93Q16.7 4.52 16.37 4.19Q16.02 3.84 15.57 3.59Q15.47 3.53 15.37 3.49Q14.57 3.11 13.59 3.11Q12.61 3.11 11.81 3.48Q11.7 3.53 11.6 3.59Q11.13 3.84 10.77 4.21Q10.45 4.53 10.22 4.93Q10.14 5.06 10.08 5.2Q9.72 5.96 9.72 6.89Q9.72 7.8 10.07 8.55Q10.14 8.7 10.22 8.84Q10.44 9.22 10.74 9.54Q11.11 9.92 11.6 10.19Q11.72 10.26 11.85 10.32ZM24.94 3.47Q24.17 3.11 23.23 3.11Q22.43 3.11 21.75 3.41Q21.74 3.41 21.72 3.42Q21.41 3.56 21.15 3.77Q20.83 4.02 20.59 4.35L20.59 3.17L19.3 3.17L19.3 13.31L20.64 13.31L20.64 9.47Q20.92 9.82 21.26 10.07Q21.5 10.25 21.77 10.37Q21.8 10.39 21.84 10.4Q22.48 10.68 23.23 10.68Q24.17 10.68 24.94 10.32Q25.05 10.27 25.17 10.21Q25.57 9.98 25.89 9.67Q26.25 9.32 26.5 8.87Q26.52 8.83 26.54 8.8Q26.98 7.96 26.98 6.89Q26.98 5.78 26.52 4.94Q26.51 4.92 26.5 4.91Q26.26 4.47 25.91 4.14Q25.58 3.81 25.17 3.58Q25.05 3.52 24.94 3.47ZM38.09 3.95Q37.89 4.16 37.75 4.42L37.75 3.17L36.46 3.17L36.46 10.59L37.81 10.59L37.81 6.9Q37.81 5.74 38.39 5.09Q38.41 5.07 38.43 5.04Q38.56 4.91 38.7 4.8Q39.28 4.39 40.15 4.39Q40.34 4.39 40.45 4.41L40.45 3.11Q39.47 3.11 38.78 3.44Q38.38 3.64 38.09 3.95ZM53.11 9.59L53.11 3.17L51.84 3.17L51.84 4.32Q51.67 4.1 51.46 3.92Q51.11 3.61 50.65 3.41Q50.6 3.39 50.54 3.37Q49.87 3.11 49.09 3.11Q48.15 3.11 47.36 3.46Q47.26 3.5 47.17 3.55Q46.69 3.8 46.33 4.16Q46.04 4.45 45.81 4.82Q45.73 4.96 45.66 5.1Q45.33 5.81 45.33 6.69Q45.33 7.55 45.66 8.26Q45.73 8.41 45.81 8.56Q46.03 8.92 46.32 9.21Q46.68 9.58 47.17 9.83Q47.28 9.89 47.4 9.95Q48.17 10.29 49.09 10.29Q49.89 10.29 50.57 10.01Q50.58 10.01 50.6 10Q50.96 9.85 51.27 9.61Q51.54 9.41 51.76 9.14L51.76 9.73Q51.76 10.99 51.14 11.6Q50.52 12.22 49.22 12.22Q48.73 12.22 48.27 12.13Q47.95 12.06 47.64 11.96Q46.88 11.7 46.36 11.25L45.72 12.29Q46.31 12.82 47.26 13.11Q48.21 13.39 49.26 13.39Q51.18 13.39 52.14 12.46Q53.11 11.53 53.11 9.59ZM31.6 11.34L35.2 3.17L33.89 3.17L31.32 9.11L28.73 3.17L27.34 3.17L30.61 10.58L30.37 11.1Q30.11 11.73 29.78 11.99Q29.72 12.03 29.67 12.06Q29.37 12.25 28.96 12.25Q28.64 12.25 28.36 12.15Q27.96 12.02 27.63 11.7L27.06 12.71Q27.39 13.05 27.9 13.22Q28.11 13.29 28.32 13.33Q28.64 13.39 28.96 13.39Q29.7 13.39 30.27 13.08Q30.38 13.01 30.49 12.93Q31.13 12.47 31.6 11.34ZM43.45 3.17L42.11 3.17L42.11 10.59L43.45 10.59L43.45 3.17ZM14.63 9.3Q14.15 9.5 13.59 9.5Q13.01 9.5 12.53 9.29Q12.41 9.24 12.31 9.18Q12.1 9.05 11.92 8.89Q11.62 8.62 11.41 8.25Q11.4 8.23 11.39 8.22Q11.08 7.63 11.08 6.89Q11.08 6.12 11.4 5.54Q11.4 5.53 11.41 5.52Q11.62 5.13 11.94 4.86Q12.11 4.72 12.31 4.6Q12.4 4.55 12.49 4.51Q12.99 4.28 13.59 4.28Q14.17 4.28 14.66 4.5Q14.77 4.55 14.87 4.6Q15.08 4.73 15.27 4.89Q15.56 5.15 15.76 5.52Q16.08 6.11 16.08 6.89Q16.08 7.65 15.76 8.23Q15.76 8.24 15.76 8.25Q15.56 8.6 15.28 8.87Q15.1 9.04 14.87 9.18Q14.75 9.24 14.63 9.3ZM24.18 9.29Q23.7 9.5 23.12 9.5Q22.62 9.5 22.18 9.34Q22.01 9.27 21.85 9.18Q21.6 9.03 21.39 8.84Q21.13 8.59 20.95 8.25Q20.63 7.66 20.63 6.89Q20.63 6.11 20.96 5.53Q21.15 5.18 21.43 4.92Q21.62 4.74 21.85 4.61Q22 4.53 22.15 4.46Q22.6 4.28 23.12 4.28Q23.72 4.28 24.22 4.51Q24.31 4.55 24.4 4.6Q24.61 4.72 24.78 4.87Q25.09 5.14 25.3 5.52Q25.3 5.53 25.31 5.54Q25.63 6.12 25.63 6.89Q25.63 7.63 25.32 8.22Q25.31 8.23 25.3 8.25Q25.1 8.62 24.8 8.88Q24.62 9.05 24.4 9.18Q24.3 9.24 24.18 9.29ZM50.46 8.85Q49.92 9.11 49.25 9.11Q48.51 9.11 47.94 8.81Q47.93 8.81 47.92 8.8Q47.6 8.63 47.35 8.38Q47.15 8.18 47.01 7.94Q46.94 7.83 46.89 7.71Q46.68 7.25 46.68 6.69Q46.68 5.98 46.99 5.46Q47.15 5.18 47.4 4.95Q47.56 4.79 47.75 4.68Q48.37 4.28 49.25 4.28Q50.09 4.28 50.7 4.66Q50.9 4.78 51.08 4.95Q51.33 5.18 51.49 5.46Q51.79 5.98 51.79 6.69Q51.79 7.25 51.58 7.71Q51.53 7.83 51.46 7.94Q51.32 8.18 51.14 8.37Q50.89 8.63 50.55 8.8Q50.51 8.83 50.46 8.85Z" fill="#28AFC9" fill-opacity="1.000000" fill-rule="evenodd"/>
</svg>
