<svg width="540.998047" height="405.234131" viewBox="0 0 540.998 405.234" fill="none" xmlns="http://www.w3.org/2000/svg" xmlns:xlink="http://www.w3.org/1999/xlink">
	<desc>
			Created with Pixso.
	</desc>
	<defs>
		<clipPath id="clip11_764">
			<rect id="Ресурс 1 2" rx="-0.500000" width="509.082672" height="358.924316" transform="matrix(-0.995776 -0.091813 -0.0918819 0.99577 541.498 47.3323)" fill="white" fill-opacity="0"/>
		</clipPath>
		<linearGradient x1="248.295456" y1="169.923553" x2="256.464874" y2="169.922653" id="paint_linear_13_1921_0" gradientUnits="userSpaceOnUse">
			<stop stop-color="#EC6588"/>
			<stop offset="1.000000" stop-color="#E71A80"/>
		</linearGradient>
	</defs>
	<rect id="Ресурс 1 2" rx="-0.500000" width="509.082672" height="358.924316" transform="matrix(-0.995776 -0.091813 -0.0918819 0.99577 541.498 47.3323)" fill="#FFFFFF" fill-opacity="0"/>
	<g clip-path="url(#clip11_764)">
		<path id="Vector" d="M181.61 72.28L404.22 91.5C476.5 97.76 530 161.43 523.75 233.72C517.49 306.03 453.83 359.56 381.56 353.32L158.92 334.06C86.66 327.8 33.15 264.13 39.39 191.83C45.67 119.53 109.33 65.99 181.61 72.28Z" fill="#FAF7F5" fill-opacity="1.000000" fill-rule="nonzero"/>
		<path id="Vector" d="M384.8 367.68C380.58 377.88 385.6 389.64 395.98 393.97C406.36 398.3 418.23 393.48 422.46 383.26C426.68 373.04 421.66 361.3 411.28 356.98C400.9 352.65 389.03 357.47 384.8 367.68Z" fill="#FFFEF1" fill-opacity="1.000000" fill-rule="nonzero"/>
		<path id="Vector" d="M405.75 380.83C410.15 381.26 414.57 380.26 418.37 378C422.16 375.73 425.14 372.3 426.85 368.23C427.89 365.71 428.42 363 428.39 360.28C428.37 357.55 427.8 354.85 426.72 352.35C425.11 348.57 422.43 345.34 419.01 343.07C415.59 340.8 411.57 339.58 407.46 339.56C403.35 339.55 399.33 340.74 395.89 342.99C392.45 345.24 389.75 348.45 388.11 352.22C386.05 357.33 386.1 363.05 388.25 368.13C390.4 373.21 394.47 377.23 399.58 379.31C401.55 380.12 403.62 380.64 405.75 380.83ZM408.43 348.27C409.68 348.38 410.9 348.69 412.06 349.16C415.07 350.39 417.48 352.76 418.75 355.75C419.38 357.2 419.71 358.76 419.72 360.34C419.73 361.92 419.43 363.48 418.82 364.94C418 367.06 416.6 368.92 414.79 370.3C412.97 371.68 410.81 372.52 408.54 372.74C406.27 372.96 403.98 372.54 401.94 371.53C399.9 370.52 398.18 368.96 396.97 367.02C395.76 365.09 395.12 362.86 395.11 360.58C395.1 358.3 395.72 356.06 396.91 354.11C398.1 352.17 399.81 350.59 401.85 349.57C403.88 348.54 406.16 348.1 408.43 348.29L408.43 348.27Z" fill="#28AFC9" fill-opacity="1.000000" fill-rule="nonzero"/>
		<path id="Vector" d="M80.24 87.43C62.14 75.58 38.78 79.26 28.05 95.65C17.32 112.04 23.29 134.94 41.39 146.79C59.49 158.64 82.86 154.95 93.58 138.57C104.31 122.19 98.33 99.29 80.24 87.43Z" fill="#FFFEF1" fill-opacity="1.000000" fill-rule="nonzero"/>
		<path id="Vector" d="M71.79 163.89C85.19 165.13 98.35 159.66 105.72 148.4C116.72 131.59 110.74 108.13 92.39 96.12C83.82 90.39 73.42 88.07 63.22 89.6C53.08 91.2 44.53 96.61 39.16 104.81C33.78 113.02 32.25 123.03 34.84 132.96C37.52 142.92 43.81 151.52 52.49 157.09C58.27 160.9 64.89 163.24 71.79 163.89ZM87.63 103.38C101.98 112.78 106.83 130.84 98.45 143.64C90.07 156.45 71.61 159.22 57.25 149.82C50.37 145.43 45.38 138.64 43.25 130.77C41.28 123.23 42.41 115.7 46.42 109.56C50.44 103.43 56.88 99.39 64.57 98.18C72.64 96.99 80.86 98.84 87.64 103.38L87.63 103.38Z" fill="#28AFC9" fill-opacity="1.000000" fill-rule="nonzero"/>
		<path id="Vector" d="M460.36 94.83L477.97 98.85C479.83 99.28 481.58 100.06 483.13 101.16C484.68 102.26 486 103.66 487.01 105.27C488.02 106.88 488.7 108.67 489.02 110.54C489.34 112.42 489.29 114.34 488.86 116.19L483.7 138.77C483.28 140.63 482.5 142.38 481.4 143.93C480.3 145.48 478.9 146.8 477.29 147.81C475.68 148.82 473.89 149.51 472.02 149.83C470.14 150.14 468.22 150.09 466.37 149.67L448.76 145.64C444.55 144.69 440.21 144.54 435.95 145.21L373.12 155.1L396.32 53.47L448.63 89.66C452.17 92.11 456.16 93.87 460.36 94.83Z" fill="#FFFEF1" fill-opacity="1.000000" fill-rule="nonzero"/>
		<path id="Vector" d="M367.45 160.39L436.62 149.5C440.34 148.91 444.14 149.04 447.81 149.88L465.42 153.91C470.29 155.01 475.39 154.14 479.61 151.49C483.83 148.83 486.83 144.61 487.95 139.75L493.11 117.16C494.21 112.3 493.34 107.19 490.69 102.97C488.03 98.74 483.82 95.74 478.96 94.62L461.34 90.61C457.67 89.78 454.19 88.26 451.09 86.13L393.51 46.25L367.45 160.39ZM444.72 140.61C441.57 140.32 438.4 140.42 435.28 140.92L378.77 149.83L399.12 60.69L446.16 93.27C450.16 96.04 454.65 98.02 459.4 99.1L477.02 103.09C479.64 103.69 481.91 105.3 483.34 107.58C484.77 109.85 485.23 112.6 484.64 115.22L479.49 137.81C478.89 140.43 477.27 142.7 475 144.13C472.72 145.56 469.97 146.03 467.35 145.44L449.74 141.41C448.09 141.04 446.41 140.77 444.72 140.61Z" fill="#EA4385" fill-opacity="1.000000" fill-rule="nonzero"/>
		<path id="Vector" d="M489.2 114.76L493.43 115.72C494.54 115.98 495.59 116.45 496.52 117.11C497.45 117.77 498.24 118.61 498.85 119.57C499.46 120.54 499.87 121.62 500.06 122.74C500.25 123.87 500.22 125.02 499.96 126.13L498.03 134.64C497.51 136.88 496.12 138.82 494.17 140.05C492.22 141.27 489.87 141.67 487.62 141.15L483.4 140.19L489.2 114.76Z" fill="#FAF7F5" fill-opacity="1.000000" fill-rule="nonzero"/>
		<path id="Vector" d="M488.37 145.66C491.52 145.94 494.65 145.08 497.21 143.23C499.76 141.37 501.55 138.66 502.26 135.58L504.19 127.11C504.57 125.45 504.62 123.72 504.34 122.03C504.05 120.35 503.43 118.73 502.52 117.28C501.61 115.84 500.43 114.58 499.03 113.59C497.64 112.6 496.06 111.89 494.4 111.51L485.93 109.58L478.2 143.46L486.66 145.4C487.23 145.52 487.8 145.61 488.37 145.66ZM492.46 120C493.02 120.13 493.54 120.37 494.01 120.7C494.47 121.03 494.87 121.44 495.17 121.93C495.47 122.41 495.68 122.95 495.77 123.51C495.87 124.07 495.85 124.65 495.72 125.2L493.79 133.67C493.53 134.79 492.84 135.77 491.87 136.38C490.89 136.99 489.72 137.19 488.59 136.94L492.46 120Z" fill="#28AFC9" fill-opacity="1.000000" fill-rule="nonzero"/>
		<path id="Vector" d="M467.8 149.99L462 175.4C461.62 177.07 460.91 178.65 459.92 180.04C458.93 181.44 457.67 182.63 456.22 183.54C454.77 184.45 453.15 185.07 451.46 185.35C449.77 185.64 448.05 185.59 446.38 185.2C444.71 184.82 443.13 184.12 441.74 183.13C440.34 182.14 439.16 180.88 438.25 179.43C437.34 177.98 436.72 176.37 436.44 174.68C436.15 172.99 436.2 171.26 436.58 169.6L442.4 144.19L467.8 149.99Z" fill="#FFFFFF" fill-opacity="1.000000" fill-rule="nonzero"/>
		<path id="Vector" d="M447.72 189.8C451.91 190.18 456.09 189.03 459.5 186.56C462.9 184.09 465.3 180.47 466.24 176.37L473 146.72L439.14 138.99L432.38 168.64C431.36 173.13 432.16 177.84 434.61 181.74C437.06 185.64 440.96 188.41 445.45 189.44C446.19 189.61 446.95 189.73 447.72 189.8ZM462.6 153.25L457.76 174.42C457.22 176.63 455.83 178.54 453.89 179.73C451.95 180.93 449.62 181.31 447.4 180.81C445.18 180.3 443.25 178.94 442.02 177.03C440.79 175.11 440.37 172.79 440.83 170.56L445.67 149.39L462.6 153.25Z" fill="#F6A6BF" fill-opacity="1.000000" fill-rule="nonzero"/>
		<path id="Vector" d="M448.2 118.78C450.4 109.55 451.04 100.01 450.1 90.56C453.26 92.54 456.73 93.99 460.36 94.83L477.97 98.85C479.83 99.28 481.58 100.06 483.13 101.16C484.68 102.26 486 103.66 487.01 105.27C488.02 106.88 488.7 108.67 489.02 110.54C489.34 112.42 489.29 114.34 488.86 116.19L483.7 138.77C483.28 140.63 482.5 142.38 481.4 143.93C480.3 145.48 478.9 146.8 477.29 147.81C475.68 148.82 473.89 149.51 472.02 149.83C470.14 150.14 468.22 150.09 466.37 149.67L448.76 145.64C445.11 144.83 441.35 144.62 437.63 145.02C442.58 136.92 446.16 128.05 448.2 118.78Z" fill="#FAF7F5" fill-opacity="1.000000" fill-rule="nonzero"/>
		<path id="Vector" d="M467.92 154.31C472.46 154.72 476.99 153.46 480.67 150.79C484.36 148.11 486.95 144.19 487.97 139.74L493.12 117.16C494.22 112.29 493.35 107.19 490.7 102.96C488.05 98.74 483.83 95.74 478.97 94.62L461.35 90.6C458.18 89.86 455.14 88.6 452.38 86.87L444.79 82.17L445.78 91.05C446.67 100.01 446.08 109.06 444.01 117.82C442.08 126.62 438.7 135.03 434.01 142.72L429.27 150.29L438.15 149.35C441.39 148.99 444.66 149.17 447.84 149.89L465.46 153.91C466.27 154.1 467.09 154.23 467.92 154.31ZM454.86 97.72C456.34 98.26 457.86 98.71 459.41 99.07L477.02 103.09C479.64 103.69 481.91 105.3 483.34 107.58C484.77 109.85 485.24 112.6 484.64 115.22L479.49 137.81C478.89 140.43 477.27 142.71 475 144.14C472.72 145.57 469.97 146.03 467.35 145.44L449.74 141.41C448.2 141.06 446.63 140.81 445.05 140.66C451.59 127.29 454.94 112.59 454.86 97.72Z" fill="#F6A6BF" fill-opacity="1.000000" fill-rule="nonzero"/>
		<path id="Vector" d="M352.11 96.84C345.17 127.26 353.05 154.98 369.68 158.78C386.31 162.58 405.46 141.02 412.4 110.61C419.35 80.21 411.47 52.48 394.83 48.68C378.19 44.88 359.05 66.44 352.11 96.84Z" fill="#FFFFFF" fill-opacity="1.000000" fill-rule="nonzero"/>
		<path id="Vector" d="M371.59 163.47C390.05 165.17 409.45 143.2 416.66 111.58C420.2 96.18 420.2 80.85 416.65 68.52C412.88 55.23 405.47 46.69 395.8 44.48C376.49 40.06 355.47 62.65 347.88 95.91C344.34 111.31 344.34 126.64 347.88 139.01C351.66 152.3 359.06 160.84 368.73 163.05C369.67 163.25 370.63 163.39 371.59 163.47ZM392.15 52.64C392.73 52.69 393.31 52.78 393.87 52.92C400.31 54.38 405.44 60.76 408.3 70.86C411.43 81.87 411.39 95.64 408.19 109.67C401.91 137.22 384.7 157.76 370.67 154.57C364.23 153.1 359.1 146.72 356.23 136.62C353.1 125.61 353.15 111.83 356.35 97.8C362.38 71.37 378.45 51.37 392.15 52.64Z" fill="#F6A6BF" fill-opacity="1.000000" fill-rule="nonzero"/>
		<path id="Vector" d="M366.11 100.04C361.48 120.31 364.97 138.39 373.89 140.43C382.82 142.47 393.8 127.69 398.43 107.4C403.07 87.1 399.58 69.04 390.65 67.01C381.73 64.97 370.73 79.77 366.11 100.04Z" fill="#F6A6BF" fill-opacity="1.000000" fill-rule="nonzero"/>
		<path id="Vector" d="M374.5 144.92C380.09 145.43 386.02 141.93 391.26 134.88C396.24 128.17 400.29 118.77 402.66 108.4C405.03 98.03 405.46 87.78 403.91 79.57C402.09 70.15 397.74 64.18 391.63 62.8C385.53 61.43 379.03 64.89 373.31 72.58C368.32 79.29 364.27 88.69 361.9 99.06C356.57 122.4 361.32 142 372.94 144.66C373.46 144.78 373.97 144.87 374.5 144.92ZM389.28 71.2C389.42 71.2 389.55 71.22 389.68 71.24C392.11 71.79 394.29 75.6 395.36 81.18C396.72 88.23 396.31 97.2 394.2 106.43C392.09 115.66 388.58 123.91 384.29 129.67C380.9 134.23 377.29 136.72 374.86 136.17C370.03 135.06 365.82 120.79 370.35 100.98C372.46 91.75 375.98 83.49 380.26 77.73C383.46 73.44 386.88 70.98 389.28 71.2Z" fill="#F6A6BF" fill-opacity="1.000000" fill-rule="nonzero"/>
		<path id="Vector" d="M371.28 99.9C371.97 96.89 373.35 94.08 375.32 91.7C377.29 89.32 379.8 87.44 382.63 86.2C385.46 84.97 388.54 84.43 391.63 84.61C394.71 84.79 397.71 85.69 400.38 87.25C400.62 94.03 399.96 100.81 398.4 107.41C397.14 113.08 395.24 118.59 392.76 123.84C389.63 124.21 386.45 123.83 383.5 122.71C380.55 121.6 377.91 119.8 375.8 117.45C373.69 115.1 372.18 112.28 371.39 109.23C370.6 106.18 370.55 102.97 371.26 99.9L371.28 99.9Z" fill="#FFFFFF" fill-opacity="1.000000" fill-rule="nonzero"/>
		<path id="Vector" d="M388.21 128.22C389.9 128.38 391.61 128.35 393.3 128.15L395.66 127.87L396.7 125.72C399.33 120.18 401.33 114.37 402.66 108.39C404.31 101.4 405.01 94.22 404.74 87.05L404.63 84.68L402.59 83.48C399.33 81.59 395.67 80.49 391.91 80.27C388.14 80.05 384.38 80.72 380.92 82.22C377.46 83.73 374.41 86.02 372 88.92C369.59 91.83 367.9 95.25 367.05 98.93C365.63 105.15 366.74 111.68 370.13 117.09C373.52 122.49 378.92 126.33 385.13 127.76C386.15 127.98 387.17 128.14 388.21 128.22ZM389.94 119.63C387.8 119.55 385.7 119.03 383.78 118.1C381.85 117.17 380.14 115.84 378.76 114.21C377.38 112.58 376.35 110.67 375.75 108.62C375.14 106.57 374.98 104.41 375.25 102.29C375.53 100.17 376.25 98.12 377.36 96.3C378.47 94.47 379.96 92.89 381.71 91.67C383.47 90.45 385.46 89.61 387.56 89.2C389.66 88.79 391.82 88.83 393.91 89.31C394.67 89.48 395.41 89.71 396.13 89.99C396.11 95.54 395.46 101.06 394.2 106.45C393.18 110.96 391.75 115.37 389.94 119.63Z" fill="#F6A6BF" fill-opacity="1.000000" fill-rule="nonzero"/>
		<path id="Vector" d="M202.01 365.39L288.52 372.87C289.67 372.98 290.81 372.62 291.69 371.89C292.58 371.15 293.13 370.09 293.24 368.94C293.35 367.8 292.99 366.66 292.26 365.77C291.52 364.88 290.46 364.33 289.32 364.22L202.81 356.74C201.66 356.63 200.52 356.99 199.63 357.72C198.75 358.46 198.19 359.52 198.09 360.67C197.98 361.81 198.33 362.96 199.07 363.84C199.81 364.73 200.86 365.28 202.01 365.39Z" fill="#EA4385" fill-opacity="1.000000" fill-rule="nonzero"/>
		<path id="Vector" d="M447.75 357.59C448.74 357.68 449.74 357.43 450.57 356.87C479.03 337.78 499.23 308.63 507.1 275.26C514.97 241.89 509.93 206.79 493 176.99C492.72 176.48 492.34 176.04 491.89 175.68C491.44 175.32 490.93 175.06 490.37 174.91C489.82 174.75 489.24 174.71 488.67 174.78C488.1 174.85 487.55 175.03 487.05 175.31C486.55 175.6 486.11 175.98 485.76 176.44C485.41 176.89 485.15 177.41 485 177.97C484.85 178.52 484.82 179.1 484.89 179.67C484.97 180.24 485.16 180.79 485.45 181.29C501.31 209.18 506.02 242.04 498.66 273.27C491.29 304.5 472.39 331.79 445.74 349.66C444.99 350.15 444.4 350.87 444.08 351.71C443.75 352.56 443.69 353.48 443.92 354.36C444.14 355.23 444.63 356.02 445.32 356.6C446.01 357.18 446.86 357.54 447.76 357.61L447.75 357.59Z" fill="#F6A6BF" fill-opacity="1.000000" fill-rule="nonzero"/>
		<path id="Vector" d="M123.78 100.84C124.23 100.88 124.68 100.85 125.12 100.75C137.67 98 150.56 97.17 163.35 98.29C164.5 98.4 165.64 98.04 166.52 97.31C167.41 96.57 167.97 95.51 168.07 94.36C168.18 93.22 167.83 92.08 167.09 91.19C166.35 90.3 165.29 89.75 164.15 89.64C150.48 88.45 136.71 89.33 123.31 92.27C122.3 92.49 121.4 93.06 120.77 93.89C120.15 94.71 119.84 95.73 119.9 96.76C119.96 97.79 120.38 98.77 121.09 99.51C121.8 100.26 122.76 100.73 123.78 100.84Z" fill="#FFFEF1" fill-opacity="1.000000" fill-rule="nonzero"/>
		<path id="Vector" d="M139.91 360.02L140.68 360.09L167.98 362.45C169.1 362.51 170.2 362.13 171.05 361.4C171.9 360.66 172.43 359.63 172.53 358.51C172.63 357.39 172.3 356.28 171.6 355.4C170.9 354.53 169.89 353.95 168.78 353.81L141.48 351.44L140.78 351.37C71.38 344.97 19.92 283.47 25.94 213.92C27.36 197.16 32.11 180.85 39.91 165.95C40.43 164.93 40.52 163.75 40.17 162.67C39.82 161.58 39.06 160.68 38.05 160.15C37.04 159.62 35.86 159.51 34.77 159.84C33.68 160.17 32.76 160.92 32.22 161.92C23.87 177.83 18.77 195.24 17.22 213.13C10.76 287.46 65.77 353.18 139.91 360.02Z" fill="#F6A6BF" fill-opacity="1.000000" fill-rule="nonzero"/>
		<path id="Vector" d="M268.92 171.32L268.92 171.58C268.94 171.54 268.96 171.5 268.96 171.45C268.96 171.4 268.94 171.36 268.92 171.32Z" fill="#241D50" fill-opacity="1.000000" fill-rule="evenodd"/>
		<path id="Vector" d="M268.9 171.58C267.54 173.62 233.03 167.69 233.03 167.69C233.03 167.69 214.08 200.47 230.09 235.55C241.07 258.4 250.28 273.32 248.93 299.06C238.51 301.21 239.37 308.74 245.95 308.43C247.18 308.43 253.19 308.54 254.04 308.47C262.08 307.75 256.9 274.9 255.02 264.63C254.63 262.72 254.46 261.57 254.46 261.57C254.46 261.57 254.68 262.71 255.02 264.63C256.62 272.18 261.96 291.7 275.69 298.85C274.68 298.28 269.35 298.64 265.71 300.34C258.82 303.55 254.11 309.5 269.12 308.43C287.82 308.86 305.84 308.39 305.84 308.39C305.84 308.39 355.39 281.79 312.77 238.12C291.22 216.04 264.05 228.51 268.9 171.58Z" fill="#241D50" fill-opacity="1.000000" fill-rule="evenodd"/>
		<path id="Vector" d="M255.03 264.65C254.68 262.74 254.46 261.6 254.46 261.6C254.46 261.6 254.63 262.75 255.03 264.65Z" fill="#241D50" fill-opacity="1.000000" fill-rule="evenodd"/>
		<path id="Vector" d="M361.3 182.51C338.24 189.65 331.51 224.1 326.99 273.65C326.35 280.66 323.1 301.87 301.03 307.5C301.11 307.67 301.18 307.85 301.26 308.02C331.87 310.88 345.11 282.13 346.99 256.92C350.41 219.39 355.16 194.35 375.41 200.85C384.22 204.75 388.93 174.39 361.3 182.51Z" fill="#2A2460" fill-opacity="1.000000" fill-rule="nonzero"/>
		<path id="Vector" d="M292.12 144.05C286.18 144.73 275.87 146.08 274.78 147.42C265.92 136.99 248.18 136.1 243.08 136.07L221.21 117.69C220.86 117.4 220.45 117.2 220 117.12C219.56 117.04 219.1 117.07 218.68 117.22C218.25 117.37 217.87 117.63 217.57 117.97C217.28 118.31 217.08 118.73 216.99 119.17C215.49 126.73 212.57 141.64 212.81 142.08C187.62 178.84 236.9 195.91 256.34 194.12C279.04 189.77 284.35 182.21 286.99 174.83C290.04 166.26 288.8 164.74 288.8 164.74L294.89 147.6C295.05 147.17 295.09 146.72 295.02 146.27C294.95 145.83 294.77 145.41 294.49 145.05C294.21 144.7 293.85 144.42 293.43 144.24C293.02 144.07 292.57 144 292.12 144.05Z" fill="#2A2460" fill-opacity="1.000000" fill-rule="evenodd"/>
		<path id="Vector" d="M255.18 176.91C253.2 177.8 251.79 177.91 251.21 177.23C250.49 176.42 250.84 174.62 251.08 174.08L251.19 173.93C251.29 173.81 251.34 173.65 251.34 173.5C251.34 173.34 251.29 173.19 251.19 173.06C251.1 172.93 250.97 172.83 250.82 172.78C250.67 172.73 250.5 172.73 250.35 172.79C250.14 172.89 249.97 173.05 249.87 173.25C248.44 175.1 246.96 175.96 245.59 175.79C242.32 175.43 239.94 170.01 239.94 169.93C239.91 169.85 239.85 169.77 239.78 169.7C239.72 169.63 239.63 169.58 239.55 169.55C239.46 169.51 239.36 169.49 239.27 169.49C239.17 169.49 239.08 169.51 238.99 169.55C238.9 169.59 238.83 169.64 238.76 169.71C238.69 169.78 238.64 169.86 238.6 169.95C238.57 170.04 238.55 170.13 238.55 170.23C238.55 170.32 238.57 170.42 238.61 170.51C238.72 170.76 241.32 176.75 245.39 177.24C246.1 177.31 246.83 177.22 247.51 176.99C248.19 176.76 248.82 176.39 249.35 175.9C249.33 176.4 249.43 176.9 249.63 177.36C249.83 177.82 250.14 178.22 250.52 178.55C250.94 178.82 251.42 179.01 251.92 179.09C252.42 179.17 252.93 179.14 253.42 179.01C254.23 178.84 255.02 178.58 255.77 178.23C255.86 178.19 255.94 178.13 256.01 178.06C256.07 178 256.13 177.91 256.16 177.83C256.2 177.74 256.21 177.64 256.21 177.54C256.21 177.45 256.18 177.36 256.15 177.27C256.11 177.18 256.05 177.1 255.98 177.03C255.91 176.97 255.83 176.91 255.74 176.88C255.65 176.85 255.55 176.83 255.45 176.84C255.36 176.84 255.26 176.87 255.18 176.91Z" fill="#FFFFFF" fill-opacity="1.000000" fill-rule="nonzero"/>
		<path id="Vector" d="M252.28 168.43C252.42 168.43 244.24 161.75 250.91 173.33C250.91 173.33 262.43 167.67 252.28 168.43Z" fill="url(#paint_linear_13_1921_0)" fill-opacity="1.000000" fill-rule="evenodd"/>
		<path id="Vector" d="M195.84 156C196.75 155.82 210.63 154.63 226.49 165.54C226.49 165.54 210.11 151.16 195.84 156Z" fill="#FFFFFF" fill-opacity="1.000000" fill-rule="evenodd"/>
		<path id="Vector" d="M195.08 167.14C195.86 166.71 208.23 161.53 225.79 166.89C225.79 166.89 206.77 158.51 195.08 167.14Z" fill="#FFFFFF" fill-opacity="1.000000" fill-rule="evenodd"/>
		<path id="Vector" d="M267.44 177.75C281.54 178.95 288.64 186.39 288.54 186.39C282.89 177.24 267.44 177.75 267.44 177.75Z" fill="#FFFFFF" fill-opacity="1.000000" fill-rule="evenodd"/>
		<path id="Vector" d="M267.22 178.8C279.72 183.99 284.05 192.9 283.96 192.87C281.44 182.79 267.22 178.8 267.22 178.8Z" fill="#FFFFFF" fill-opacity="1.000000" fill-rule="evenodd"/>
		<g opacity="0.210000">
			<path id="Vector" d="M220.47 123.75C216.84 124.43 219.08 139.6 219.08 139.6C223.36 136.74 228.39 135.2 233.53 135.17C233.53 135.17 224.09 123.07 220.47 123.75Z" fill="#FFFFFF" fill-opacity="1.000000" fill-rule="evenodd"/>
		</g>
		<g opacity="0.210000">
			<path id="Vector" d="M288 149C285.57 148.28 278.02 151.14 278.02 151.14C282.79 151.99 285.6 157.82 285.6 157.82C285.6 157.82 290.44 149.7 288 149Z" fill="#FFFFFF" fill-opacity="1.000000" fill-rule="evenodd"/>
		</g>
	</g>
</svg>
