<svg width="187.033203" height="35.998383" viewBox="0 0 187.033 35.9984" fill="none" xmlns="http://www.w3.org/2000/svg" xmlns:xlink="http://www.w3.org/1999/xlink">
	<desc>
			Created with Pixso.
	</desc>
	<defs/>
	<path id="Vector" d="M170.95 23.41C171.12 21.64 171.65 19.93 172.49 18.37C172.76 17.8 173.18 17.33 173.72 17.01C174.25 16.69 174.86 16.54 175.48 16.57C176.07 16.62 176.63 16.86 177.08 17.26C177.53 17.66 177.84 18.19 177.96 18.78C178.44 20.46 178.53 22.22 178.25 23.95C178.09 25.73 177.58 27.46 176.73 29.03C176.46 29.59 176.04 30.05 175.51 30.36C174.98 30.68 174.37 30.82 173.77 30.78C173.17 30.73 172.61 30.49 172.16 30.09C171.71 29.69 171.41 29.15 171.28 28.56C170.81 26.88 170.7 25.13 170.95 23.41ZM186.91 24.58C187.14 23.01 187.04 21.41 186.61 19.88C186.19 18.36 185.45 16.94 184.44 15.72C183.42 14.47 182.15 13.45 180.71 12.73C179.27 12.01 177.7 11.6 176.1 11.54C172.77 11.25 169.46 12.3 166.89 14.46C165.62 15.47 164.56 16.73 163.77 18.15C162.98 19.58 162.48 21.16 162.3 22.79C162.07 24.36 162.17 25.96 162.6 27.49C163.02 29.02 163.77 30.44 164.78 31.65C165.81 32.9 167.09 33.92 168.53 34.64C169.97 35.36 171.55 35.77 173.15 35.83C176.49 36.15 179.82 35.1 182.4 32.93C183.66 31.91 184.7 30.64 185.47 29.21C186.25 27.78 186.73 26.21 186.91 24.58ZM160.8 31.56C157.49 29.34 155.43 26.73 154.61 23.73C158.35 21.93 160.38 19.77 160.67 17.25C160.78 16.54 160.74 15.8 160.55 15.11C160.36 14.41 160.03 13.76 159.57 13.2C159.08 12.65 158.48 12.22 157.8 11.94C157.12 11.66 156.39 11.54 155.66 11.58C154.47 11.58 153.31 11.94 152.32 12.62C151.9 12.83 151.54 13.15 151.25 13.53C150.97 13.91 150.78 14.35 150.7 14.82L151.09 15.54C151.38 16.02 151.63 16.52 151.82 17.05C152.01 17.66 151.99 18.32 151.77 18.92C151.48 19.72 150.93 20.41 150.21 20.85C149.35 21.42 148.37 21.8 147.36 21.98L147.88 18.29C148.04 17.42 148.02 16.53 147.83 15.67C147.64 14.81 147.27 14 146.76 13.29C146.25 12.68 145.61 12.19 144.88 11.87C144.15 11.55 143.36 11.4 142.57 11.45C141.34 11.46 140.14 11.81 139.1 12.46C138.15 12.94 137.37 13.7 136.85 14.64C136.83 14.69 136.81 14.75 136.8 14.81C136.79 14.87 136.8 14.93 136.82 14.99C136.83 15.04 136.86 15.1 136.9 15.14C136.93 15.19 136.98 15.22 137.03 15.25C137.27 15.42 137.55 15.6 137.87 15.81C138.32 16.3 138.6 16.93 138.64 17.59C138.83 18.88 138.84 20.19 138.66 21.48L136.85 34.83L136.85 34.92L136.99 35.02L145.42 35.02C145.46 35 145.5 34.98 145.53 34.95C145.57 34.92 145.59 34.88 145.6 34.83L146.87 25.61C147 25.57 147.14 25.55 147.27 25.54C147.45 25.53 147.58 25.52 147.67 25.52C147.67 25.67 147.68 26.02 147.71 26.58C147.74 27.14 147.76 27.56 147.78 27.84C147.79 28.12 147.84 28.57 147.91 29.17C147.96 29.65 148.05 30.12 148.18 30.58C148.28 30.93 148.42 31.36 148.61 31.89C148.77 32.35 149 32.77 149.3 33.15C149.61 33.51 149.94 33.86 150.28 34.18C150.67 34.55 151.11 34.83 151.6 35.01C152.17 35.22 152.75 35.37 153.34 35.47C154.07 35.59 154.8 35.64 155.54 35.6C157.52 35.46 159.38 34.58 160.77 33.13C161.06 32.88 161.26 32.54 161.34 32.16C161.23 31.9 161.04 31.69 160.8 31.55L160.8 31.56ZM132.55 25.89C132.78 23.82 133.42 19.37 134.48 12.53L134.48 12.44L134.35 12.3L125.51 12.3L125.29 12.57L123.8 24.95C123.66 26.07 123.27 27.15 122.66 28.1C121.93 29.27 121.16 29.78 120.37 29.62C119.58 29.47 119.27 28.6 119.45 27.02L120.5 18.29C120.66 17.41 120.62 16.51 120.4 15.66C120.18 14.8 119.77 14 119.21 13.32C118.65 12.7 117.97 12.21 117.2 11.88C116.44 11.56 115.62 11.41 114.79 11.45C113.57 11.46 112.38 11.81 111.34 12.46C110.4 12.95 109.63 13.71 109.12 14.65C109.08 14.72 109.06 14.82 109.08 14.91C109.09 15 109.14 15.08 109.21 15.14C109.42 15.29 109.64 15.42 109.87 15.52C110.22 15.71 110.51 15.99 110.7 16.33C111.02 16.89 111.21 17.5 111.28 18.13C111.39 19.25 111.38 20.37 111.23 21.48L110.4 28.5C110.06 30.37 110.47 32.29 111.52 33.85C111.97 34.51 112.57 35.04 113.27 35.4C113.97 35.76 114.75 35.94 115.53 35.92C116.97 35.89 118.37 35.45 119.58 34.66C121.1 33.68 122.36 32.33 123.27 30.75C123.31 32.18 123.89 33.55 124.89 34.55C125.92 35.49 127.26 35.98 128.63 35.92C129.85 35.91 131.04 35.56 132.08 34.91C133.02 34.43 133.79 33.67 134.3 32.73C134.33 32.68 134.35 32.63 134.36 32.57C134.37 32.52 134.36 32.46 134.35 32.4C134.33 32.35 134.31 32.3 134.27 32.25C134.24 32.21 134.19 32.17 134.14 32.15C133.93 32 133.65 31.79 133.31 31.54C132.87 31.07 132.6 30.46 132.54 29.81C132.36 28.51 132.36 27.19 132.55 25.89L132.55 25.89ZM105.35 1.28C105.12 1.4 104.91 1.53 104.71 1.68C104.3 1.96 103.87 2.22 103.43 2.45C102.79 2.75 102.11 2.97 101.41 3.1C100.45 3.3 99.47 3.38 98.49 3.35C96.47 3.24 94.47 2.94 92.51 2.45C90.29 1.91 88.02 1.6 85.74 1.5L84.73 1.5C80.83 1.62 77.96 3.03 76.12 5.73C75.18 7.11 74.79 8.27 74.93 9.2C74.99 9.53 75.14 9.66 75.37 9.6C75.68 9.44 75.98 9.26 76.27 9.06C77.02 8.62 77.83 8.29 78.67 8.07C79.84 7.75 81.06 7.6 82.27 7.62C84.26 7.68 86.24 7.93 88.18 8.36C90.29 8.8 92.43 9.09 94.58 9.24C99.58 9.36 103.03 8.11 104.9 5.5C105.33 5.01 105.64 4.43 105.81 3.8C105.99 3.16 106.02 2.5 105.91 1.86C105.8 1.35 105.61 1.16 105.35 1.28ZM104.95 25.84L105.78 18.82C105.96 17.9 105.96 16.96 105.78 16.04C105.59 15.12 105.23 14.25 104.71 13.47C104.25 12.81 103.64 12.28 102.93 11.92C102.22 11.56 101.44 11.38 100.64 11.4C99.18 11.45 97.76 11.9 96.54 12.71C94.99 13.72 93.71 15.11 92.82 16.76C92.76 15.29 92.17 13.9 91.18 12.84C90.71 12.37 90.16 12 89.55 11.75C88.94 11.5 88.29 11.38 87.64 11.4C86.2 11.45 84.81 11.88 83.6 12.66C82.06 13.63 80.79 14.98 79.91 16.58C79.87 15.15 79.29 13.78 78.3 12.77C77.27 11.83 75.92 11.34 74.54 11.4C73.32 11.42 72.12 11.77 71.07 12.41C70.13 12.88 69.36 13.65 68.87 14.59C68.84 14.64 68.82 14.69 68.81 14.75C68.81 14.81 68.81 14.86 68.82 14.92C68.84 14.97 68.86 15.02 68.9 15.07C68.93 15.11 68.98 15.15 69.03 15.18C69.25 15.33 69.52 15.53 69.86 15.78C70.3 16.26 70.57 16.87 70.61 17.52C70.77 18.82 70.76 20.13 70.58 21.43C70.35 23.5 69.72 27.95 68.7 34.79L68.7 34.88L68.83 35.02L77.66 35.02C77.72 34.99 77.77 34.95 77.82 34.9C77.84 34.88 77.85 34.86 77.86 34.83C77.88 34.8 77.88 34.78 77.88 34.75L79.33 22.69C79.47 21.47 79.86 20.29 80.47 19.23C81.24 18.06 82 17.55 82.76 17.7C83.61 17.85 83.93 18.72 83.72 20.31C83.66 21.09 83.55 22.15 83.37 23.5C83.11 25.45 82.67 29.21 82.06 34.79C82.05 34.8 82.04 34.81 82.04 34.81C82.03 34.82 82.03 34.83 82.03 34.84C82.03 34.85 82.03 34.86 82.04 34.86C82.04 34.87 82.05 34.88 82.06 34.88L82.19 35.02L91.02 35.02C91.08 34.99 91.13 34.95 91.18 34.9C91.2 34.88 91.21 34.86 91.23 34.83C91.24 34.8 91.24 34.78 91.24 34.75L92.25 23.5L92.34 22.69C92.45 21.46 92.84 20.27 93.49 19.22C94.25 18.05 95.01 17.54 95.77 17.69C96.62 17.84 96.94 18.71 96.74 20.3L95.68 29.03C95.53 29.91 95.56 30.8 95.79 31.66C96.01 32.52 96.42 33.32 96.98 34C97.53 34.62 98.2 35.11 98.96 35.43C99.72 35.75 100.53 35.9 101.35 35.87C102.58 35.85 103.78 35.5 104.82 34.86C105.76 34.39 106.52 33.65 107.02 32.72C107.08 32.64 107.11 32.55 107.1 32.45C107.09 32.36 107.05 32.27 106.98 32.2C106.78 32.04 106.56 31.9 106.32 31.8C105.97 31.61 105.68 31.33 105.48 30.99C105.17 30.44 104.97 29.82 104.89 29.19C104.76 28.08 104.78 26.95 104.95 25.84ZM51.47 23.41C51.64 21.64 52.16 19.93 53.01 18.37C53.27 17.8 53.7 17.33 54.23 17.01C54.76 16.69 55.38 16.54 56 16.57C56.59 16.62 57.15 16.86 57.59 17.26C58.04 17.65 58.35 18.19 58.48 18.78C58.95 20.46 59.05 22.22 58.76 23.95C58.61 25.73 58.09 27.46 57.25 29.03C56.98 29.59 56.56 30.05 56.03 30.36C55.5 30.68 54.89 30.82 54.28 30.78C53.69 30.73 53.12 30.49 52.68 30.09C52.23 29.68 51.92 29.15 51.8 28.55C51.33 26.88 51.21 25.13 51.47 23.41ZM67.42 24.58C67.65 23.01 67.55 21.41 67.13 19.88C66.7 18.36 65.97 16.94 64.96 15.72C63.93 14.47 62.66 13.45 61.22 12.73C59.78 12.01 58.21 11.6 56.61 11.54C53.28 11.25 49.98 12.3 47.41 14.46C46.13 15.47 45.07 16.73 44.28 18.15C43.5 19.58 43 21.16 42.81 22.79C42.58 24.36 42.68 25.96 43.11 27.49C43.54 29.02 44.28 30.44 45.29 31.65C46.33 32.9 47.6 33.92 49.05 34.64C50.49 35.36 52.06 35.77 53.67 35.83C57.01 36.15 60.33 35.1 62.92 32.93C64.17 31.91 65.21 30.64 65.99 29.21C66.76 27.78 67.25 26.21 67.42 24.58ZM41.54 30.3C40.27 29.78 39.11 29.02 38.13 28.05C37.23 27.19 36.44 26.21 35.8 25.12C35.25 24.15 34.79 23.13 34.42 22.07C34.13 21.3 33.89 20.51 33.69 19.71C33.59 19.21 33.53 18.84 33.5 18.6C38.16 16.26 40.75 12.96 41.27 8.7C41.41 7.85 41.38 6.97 41.18 6.13C40.99 5.29 40.62 4.49 40.11 3.8C39.62 3.13 38.98 2.6 38.24 2.25C37.5 1.9 36.68 1.73 35.87 1.77C34.92 1.78 33.99 1.97 33.12 2.33C32.35 2.62 31.64 3.04 31.01 3.57C30.53 4.02 30.38 4.35 30.55 4.56C31.27 5.58 31.66 6.8 31.65 8.05C31.69 9.36 31.45 10.67 30.97 11.89C30.49 13.08 29.76 14.14 28.82 15C27.97 15.82 26.85 16.29 25.67 16.3L27.26 3.17C27.27 3.14 27.28 3.11 27.28 3.08C27.28 3.04 27.27 3.01 27.26 2.99L27.12 2.94L27.08 2.94L26.99 2.9C26.23 2.59 25.3 2.27 24.2 1.93C23.1 1.59 21.39 1.18 19.06 0.71C16.9 0.27 14.71 0.03 12.51 0C10.37 0 8.25 0.41 6.25 1.21C4.23 1.94 2.49 3.3 1.28 5.1C0.58 6.15 0.15 7.37 0.03 8.63C-0.1 9.95 0.1 11.28 0.6 12.5C1.11 13.77 1.98 14.86 3.09 15.63C4.06 16.33 5.18 16.79 6.36 16.98C7.41 17.16 8.48 17.12 9.5 16.84C10.35 16.61 11.17 16.27 11.94 15.83C12.54 15.51 13.07 15.07 13.5 14.55C13.83 14.18 14.07 13.74 14.21 13.27C14.25 13.16 14.25 13.04 14.23 12.92C14.21 12.81 14.15 12.7 14.08 12.62C13.93 12.49 13.68 12.31 13.33 12.08C13 11.86 12.72 11.59 12.49 11.27C12.21 11.01 11.99 10.69 11.85 10.34C11.72 9.98 11.66 9.6 11.7 9.22C11.79 8.48 12.06 7.78 12.49 7.17C13.01 6.48 13.74 5.98 14.56 5.73C15.55 5.4 16.61 5.34 17.63 5.55C17.6 5.85 16.98 10.42 15.75 19.25C14.51 28.08 13.83 33.26 13.68 34.79C13.66 34.82 13.65 34.85 13.65 34.88C13.65 34.92 13.66 34.95 13.68 34.97L13.81 35.02L23.17 35.02C23.2 35.02 23.23 35.02 23.26 35.01C23.3 35 23.33 34.98 23.35 34.96C23.37 34.94 23.4 34.92 23.41 34.89C23.42 34.86 23.43 34.83 23.44 34.79L25.06 21.12C25.77 21.03 26.18 20.97 26.29 20.94C26.38 23.46 26.47 25.02 26.56 25.62C26.94 29.16 27.89 31.84 29.42 33.67C30.94 35.5 33.2 36.25 36.18 35.92C37.43 35.77 38.61 35.22 39.52 34.34C40.36 33.63 41.02 32.73 41.46 31.71C41.78 30.86 41.8 30.38 41.54 30.29L41.54 30.3Z" fill="#F6A6BF" fill-opacity="1.000000" fill-rule="evenodd"/>
</svg>
