<svg width="380.453125" height="378.226379" viewBox="0 0 380.453 378.226" fill="none" xmlns="http://www.w3.org/2000/svg" xmlns:xlink="http://www.w3.org/1999/xlink">
	<desc>
			Created with Pixso.
	</desc>
	<defs/>
	<path id="Vector" d="M380.18 157.37C376.92 194.08 344.98 221.76 319.66 219.51C294.33 217.26 268.75 185.67 272 148.95C275.26 112.23 306.13 84.29 331.46 86.54C356.78 88.79 383.44 120.65 380.18 157.37ZM236.56 133.31C211.18 134.84 181.08 106.26 178.83 69.46C176.58 32.67 203.02 1.59 228.4 0.05C253.78 -1.48 283.87 27.1 286.12 63.9C288.38 100.69 261.93 131.77 236.56 133.31ZM136.02 151.28C111.76 158.86 77.75 142.64 66.7 107.45C55.65 72.27 71.75 31.46 96.01 23.88C120.27 16.3 152.75 32.53 163.79 67.71C174.84 102.89 160.28 143.7 136.02 151.28ZM99.55 178.87C115.01 212.36 105.48 252.41 82.39 263.01C59.3 273.63 22.43 259.68 6.98 226.19C-8.47 192.71 3.34 152.36 26.43 141.75C49.53 131.14 84.1 145.39 99.55 178.87ZM129.49 246.36C164.1 143.55 211.58 137.23 269.73 210.88C276.44 219.38 284.52 226.74 293.9 232.17C368.15 275.16 354.87 345.61 294.83 347.84C287.64 348.11 280.48 347.02 273.52 345.23C249.76 339.11 226.65 340.72 204.67 355.65C128.86 419.26 52.41 334.91 115.79 269.36C122.07 262.86 126.6 254.91 129.49 246.36Z" fill="#28AFC9" fill-opacity="1.000000" fill-rule="evenodd"/>
</svg>
