<svg width="60.000000" height="60.000000" viewBox="0 0 60 60" fill="none" xmlns="http://www.w3.org/2000/svg" xmlns:xlink="http://www.w3.org/1999/xlink">
	<desc>
			Created with Pixso.
	</desc>
	<defs>
		<clipPath id="clip11_642">
			<rect id="happy 1" rx="-0.500000" width="59.000000" height="59.000000" transform="translate(0.500000 0.500000)" fill="white" fill-opacity="0"/>
		</clipPath>
	</defs>
	<rect id="happy 1" rx="-0.500000" width="59.000000" height="59.000000" transform="translate(0.500000 0.500000)" fill="#FFFFFF" fill-opacity="0"/>
	<g clip-path="url(#clip11_642)">
		<path id="Vector" d="M33.57 0.16C31.92 0.55 30.89 1.1 29.77 2.21C28.53 3.44 27.72 4.86 27.29 6.56C27.07 7.45 27.09 9.78 27.32 10.89C27.43 11.37 27.56 12.08 27.59 12.44L27.67 13.1L27.11 13.18C23.84 13.64 20.75 14.76 18.29 16.4C17.09 17.2 15.35 18.8 14.69 19.69C14.4 20.09 14.22 20.25 14.13 20.16C13.81 19.89 12.08 19.32 11.09 19.13C9.83 18.91 9.38 18.97 8.64 19.44C8.02 19.83 7.48 20.78 7.25 21.89C7.03 22.96 7.18 26.32 7.54 28.31C7.81 29.78 8.6 33.09 8.87 33.86C8.96 34.11 8.84 34.42 8.2 35.68L7.44 37.2L6.79 37.12C5.94 37.03 3.82 37 3.57 37.1C3.28 37.21 3.02 37.82 3.1 38.2C3.24 38.84 3.5 38.94 5.16 39.03C6.01 39.08 6.72 39.14 6.75 39.17C6.78 39.19 6.75 39.37 6.67 39.56C6.46 40.08 6.09 42.5 6.09 43.26C6.09 43.94 6.08 43.95 5.71 44.08C5.5 44.16 4.87 44.44 4.32 44.71C3.31 45.23 3.04 45.51 3.04 46.06C3.04 46.37 3.65 46.99 3.96 46.99C4.1 46.99 4.64 46.78 5.16 46.52C6.19 46.03 6.31 46.04 6.32 46.64C6.33 46.8 6.53 47.5 6.77 48.22L7.2 49.5L6.19 50.5C5.48 51.22 5.09 51.71 4.82 52.27C3.39 55.24 4.11 57.59 6.85 58.95C8.3 59.68 9.67 59.91 12.24 59.92C14.7 59.92 15.49 59.76 17.32 58.87L18.42 58.34L19.78 58.69C23.28 59.6 26.01 59.92 30.05 59.92C34.1 59.92 36.83 59.6 40.33 58.69L41.69 58.34L42.79 58.87C44.62 59.76 45.41 59.92 47.87 59.92C50.42 59.91 51.75 59.68 53.23 58.96C55.99 57.62 56.71 55.25 55.28 52.27C55.01 51.71 54.63 51.22 53.9 50.49L52.88 49.47L53.12 48.91C53.23 48.59 53.47 47.84 53.62 47.23C53.77 46.62 53.92 46.11 53.95 46.08C53.97 46.05 54.42 46.25 54.94 46.51C55.46 46.78 56 46.99 56.14 46.99C56.44 46.99 57.07 46.38 57.07 46.06C57.07 45.51 56.8 45.23 55.79 44.71C55.24 44.44 54.6 44.16 54.41 44.08C54.03 43.95 54.02 43.94 54.02 43.26C54.02 42.5 53.64 40.08 53.43 39.56C53.36 39.37 53.33 39.19 53.36 39.17C53.39 39.14 54.1 39.08 54.94 39.03C56.61 38.94 56.87 38.84 57.01 38.2C57.09 37.82 56.83 37.21 56.54 37.1C56.29 37 54.17 37.03 53.32 37.12L52.67 37.2L51.92 35.69L51.18 34.18L51.6 32.64C53.41 26.03 53.51 21.39 51.86 19.74C51.18 19.06 50.54 18.9 49.32 19.08C48.33 19.24 47.1 19.61 46.32 20.01L45.83 20.27L45.42 19.69C44.75 18.79 42.98 17.17 41.8 16.4C39.79 15.07 37.14 13.96 34.78 13.5L33.69 13.27L33.56 12C33.48 11.29 33.33 10.27 33.22 9.72C33 8.62 33.04 7.96 33.38 7.28C33.69 6.67 34.34 6.12 34.86 6.02C35.58 5.89 36.84 6.33 38.06 7.17C38.81 7.68 39.35 7.87 40.08 7.87C42.31 7.87 43.69 5.58 42.71 3.56C42.46 3.05 42.21 2.77 41.61 2.33C40.61 1.59 38.74 0.65 37.61 0.35C36.48 0.03 34.52 -0.06 33.57 0.16ZM37.48 2.41C38.5 2.75 40.12 3.64 40.69 4.18C41.08 4.57 41.12 5.1 40.76 5.55C40.41 6 39.82 5.97 39.12 5.47C38.33 4.91 36.83 4.24 36.03 4.08C34.19 3.75 32.63 4.51 31.71 6.19C31.01 7.47 30.92 8.39 31.27 10.25C31.4 10.89 31.54 11.77 31.58 12.21L31.66 13L30.66 13L29.67 13L29.6 12.32C29.55 11.96 29.41 11.07 29.27 10.37C28.85 8.08 29.16 6.32 30.3 4.65C31.94 2.25 34.54 1.44 37.48 2.41ZM32.73 15.17C37.24 15.76 41.17 17.74 43.6 20.63L44.06 21.18L43.2 21.69C42.75 21.96 41.74 22.6 40.98 23.1L39.59 24.03L38.75 23.69C35.8 22.47 32.8 21.96 29.29 22.06C26.43 22.14 24.01 22.64 21.55 23.62L20.53 24.02L19.44 23.28C18.83 22.87 17.82 22.23 17.2 21.85L16.06 21.17L16.4 20.75C17.3 19.61 18.72 18.44 20.27 17.53C23.7 15.49 28.4 14.61 32.73 15.17ZM11.21 21.21C11.75 21.33 12.51 21.58 12.91 21.77C14.03 22.28 16.58 23.77 18.44 25.01C19.47 25.71 20.22 26.13 20.41 26.13C20.57 26.13 21.1 25.96 21.57 25.76C24.6 24.46 27.38 23.95 30.7 24.05C33.59 24.15 35.51 24.55 38.14 25.61C38.85 25.89 39.58 26.13 39.77 26.13C39.98 26.13 40.52 25.83 41.34 25.26C45.51 22.39 49.42 20.57 50.37 21.08C50.97 21.41 51.21 23.89 50.87 26.48C50.64 28.12 50.08 30.73 49.6 32.37C48.98 34.5 48.98 34.47 49.67 35.69C49.99 36.26 50.34 36.92 50.43 37.16L50.61 37.57L49.25 37.96C47.69 38.41 45.11 39.64 44.48 40.23C44.03 40.65 43.96 40.96 44.2 41.4C44.57 42.11 45.07 42.11 46.35 41.37C47.96 40.45 51.1 39.31 51.33 39.57C51.53 39.8 52.16 43.27 52.01 43.41C51.99 43.44 51.46 43.38 50.85 43.28C49.46 43.08 47.12 42.94 46.72 43.05C46.39 43.13 46.05 43.65 46.05 44.06C46.05 44.2 46.19 44.46 46.38 44.63C46.68 44.94 46.78 44.96 48.1 45.03C49.5 45.11 51.77 45.41 51.9 45.52C51.98 45.62 51.71 46.89 51.41 47.78C51.14 48.62 51.25 48.58 49.98 48.23C49.06 47.97 47.07 47.96 46.11 48.22C42.62 49.12 39.85 52.39 40.11 55.3C40.16 55.72 40.21 56.21 40.25 56.37C40.33 56.67 40.31 56.68 38.94 56.98C35.73 57.72 33.71 57.93 30.05 57.93C26.4 57.93 24.38 57.72 21.17 56.98C19.8 56.68 19.78 56.67 19.86 56.37C19.89 56.21 19.95 55.72 20 55.3C20.26 52.35 17.54 49.16 14 48.22C13.05 47.96 11.06 47.97 10.13 48.23C8.89 48.57 8.97 48.59 8.76 47.96C8.5 47.22 8.2 46.01 8.2 45.73C8.2 45.53 8.33 45.48 9 45.37C10.17 45.16 11.8 45 12.63 45C13.3 45 13.41 44.96 13.72 44.66C13.91 44.47 14.06 44.2 14.06 44.06C14.06 43.65 13.72 43.13 13.39 43.05C12.99 42.94 10.65 43.08 9.25 43.28C8.64 43.38 8.12 43.44 8.09 43.41C7.95 43.27 8.57 39.8 8.77 39.57C9.01 39.31 12.15 40.45 13.75 41.37C15.04 42.11 15.53 42.11 15.91 41.4C16.3 40.68 15.89 40.2 14.09 39.29C12.71 38.57 11.26 38.01 10.11 37.73L9.5 37.59L9.67 37.17C9.77 36.92 10.11 36.28 10.42 35.71C10.75 35.14 11.01 34.54 11.01 34.37C11.01 34.18 10.8 33.3 10.53 32.4C10 30.55 9.45 27.92 9.24 26.22C9.05 24.6 9.15 22.08 9.42 21.56C9.78 20.88 9.82 20.87 11.21 21.21ZM13.72 50.22C16.27 50.97 18.36 53.51 18 55.46C17.84 56.27 16.57 57.29 15.35 57.57L15.05 57.64L15.05 56.13C15.05 54.7 15.04 54.6 14.77 54.32C14.37 53.9 13.74 53.9 13.34 54.32C13.1 54.59 13.06 54.73 13.03 55.87C12.98 57.52 12.96 57.63 12.48 57.85C12.14 58.01 12.03 58.01 11.7 57.89C11.16 57.66 11.01 57.18 11.01 55.75C11.01 54.69 10.99 54.53 10.75 54.29C10.39 53.9 9.73 53.92 9.36 54.32C9.09 54.6 9.08 54.7 9.08 56.13L9.08 57.64L8.78 57.57C7.54 57.29 6.3 56.3 6.14 55.48C5.92 54.35 6.44 53.07 7.54 51.96C8.85 50.64 10.26 50.05 12.02 50.03C12.65 50.03 13.33 50.1 13.72 50.22ZM49.69 50.22C51.84 50.85 53.8 52.82 53.98 54.55C54.08 55.37 53.94 55.87 53.42 56.42C53 56.88 52.04 57.41 51.32 57.57L51.03 57.64L51.03 56.13C51.03 54.7 51.02 54.6 50.75 54.32C50.39 53.94 49.75 53.91 49.37 54.28C49.12 54.51 49.1 54.63 49.1 55.74C49.1 57.18 48.94 57.66 48.41 57.89C48.08 58.01 47.97 58.01 47.63 57.85C47.15 57.63 47.13 57.52 47.08 55.87C47.05 54.73 47.01 54.59 46.76 54.32C46.37 53.9 45.73 53.9 45.33 54.32C45.07 54.6 45.05 54.7 45.05 56.13L45.07 57.64L44.76 57.57C44.07 57.42 42.99 56.81 42.6 56.34C41.94 55.57 41.9 54.59 42.49 53.4C43.12 52.07 44.6 50.83 46.13 50.32C47.12 49.98 48.72 49.94 49.69 50.22Z" fill="#241D50" fill-opacity="1.000000" fill-rule="nonzero"/>
		<path id="Vector" d="M18.05 35.28C16.93 35.57 16.39 35.84 16.18 36.22C15.86 36.78 16.34 37.61 16.99 37.61C17.16 37.61 17.61 37.51 18 37.37C18.38 37.23 19.13 37.1 19.71 37.06C21.42 36.96 22.26 37.42 22.93 38.87C23.14 39.34 23.42 39.77 23.55 39.84C23.95 40.05 24.37 39.97 24.75 39.6C25.18 39.17 25.16 38.82 24.65 37.79C24.02 36.51 22.96 35.6 21.69 35.22C20.81 34.96 19.14 34.99 18.05 35.28Z" fill="#241D50" fill-opacity="1.000000" fill-rule="nonzero"/>
		<path id="Vector" d="M37.41 35.21C35.81 35.7 34.28 37.39 34.12 38.84C34.07 39.28 34.11 39.39 34.37 39.65C34.95 40.24 35.78 39.93 36.09 39.02C36.3 38.39 37.07 37.52 37.67 37.25C38.33 36.94 39.66 36.96 40.72 37.27C42.05 37.67 42.36 37.68 42.7 37.33C43 37.04 43.08 36.57 42.93 36.15C42.83 35.88 42.12 35.55 41.06 35.27C39.99 35 38.19 34.96 37.41 35.21Z" fill="#241D50" fill-opacity="1.000000" fill-rule="nonzero"/>
		<path id="Vector" d="M27.48 41.17C26.43 41.68 25.89 42.69 26.15 43.68C26.25 44.08 26.5 44.44 27.22 45.22C27.75 45.77 28.37 46.35 28.6 46.52L29.05 46.81L29.06 48.57C29.06 50.17 29.03 50.39 28.8 50.85C28.65 51.14 28.39 51.46 28.23 51.59C27.58 52.06 26.54 52.06 25.91 51.59C25.28 51.12 25.16 50.81 25.07 49.61C25 48.62 24.97 48.45 24.73 48.26C24.29 47.9 23.71 47.94 23.35 48.35C23.12 48.6 23.08 48.77 23.08 49.68C23.08 51.02 23.37 51.85 24.12 52.65C25.64 54.26 28.04 54.41 29.68 52.96L30.08 52.62L30.33 52.89C30.72 53.3 31.61 53.75 32.36 53.9C33.64 54.16 35.02 53.68 35.98 52.65C36.73 51.85 37.03 51.02 37.03 49.68C37.03 48.77 36.99 48.6 36.77 48.35C36.39 47.94 35.82 47.9 35.37 48.26C35.14 48.45 35.1 48.62 35.03 49.61C34.95 50.81 34.82 51.12 34.2 51.59C33.57 52.06 32.53 52.06 31.88 51.59C31.72 51.46 31.46 51.14 31.32 50.85C31.07 50.39 31.05 50.17 31.05 48.57L31.06 46.81L31.51 46.52C31.74 46.35 32.36 45.77 32.89 45.22C33.6 44.44 33.86 44.08 33.96 43.68C34.18 42.83 33.8 41.95 33 41.39C32.54 41.07 32.54 41.07 30.18 41.05C28.34 41.02 27.75 41.05 27.48 41.17ZM31.94 43.13C32.05 43.31 30.33 44.99 30.05 44.99C29.77 44.99 28.06 43.31 28.17 43.13C28.23 43.05 28.82 43 30.05 43C31.28 43 31.88 43.05 31.94 43.13Z" fill="#241D50" fill-opacity="1.000000" fill-rule="nonzero"/>
	</g>
</svg>
