<svg width="283.000000" height="206.000000" viewBox="0 0 283 206" fill="none" xmlns="http://www.w3.org/2000/svg" xmlns:xlink="http://www.w3.org/1999/xlink">
	<desc>
			Created with Pixso.
	</desc>
	<defs>
		<clipPath id="clip11_536">
			<rect id="Ресурс 3 1" rx="-0.500000" width="282.000000" height="205.000000" transform="translate(0.500000 0.500000)" fill="white" fill-opacity="0"/>
		</clipPath>
		<clipPath id="clip11_642">
			<rect id="happy 1" rx="-0.500000" width="59.000000" height="59.000000" transform="translate(200.500000 11.500000)" fill="white" fill-opacity="0"/>
		</clipPath>
	</defs>
	<g opacity="0.800000">
		<rect id="Ресурс 3 1" rx="-0.500000" width="282.000000" height="205.000000" transform="translate(0.500000 0.500000)" fill="#FFFFFF" fill-opacity="0"/>
		<g clip-path="url(#clip11_536)">
			<path id="Vector" d="M25.98 53.58L35.31 185.58C35.48 187.95 36.48 190.17 38.13 191.82C39.78 193.47 41.96 194.44 44.25 194.54L250.32 203.69C252.62 203.79 254.88 203.01 256.67 201.5C258.45 199.99 259.63 197.86 259.98 195.51L282.88 42.91C283.09 41.49 283 40.04 282.6 38.67C282.21 37.3 281.52 36.03 280.59 34.96C279.66 33.9 278.52 33.06 277.24 32.5C275.95 31.95 274.57 31.7 273.18 31.77L34.88 43.22C33.63 43.28 32.41 43.6 31.28 44.15C30.15 44.71 29.14 45.49 28.31 46.46C27.48 47.43 26.85 48.55 26.45 49.77C26.05 51 25.89 52.29 25.98 53.58Z" fill="#FAF7F5" fill-opacity="1.000000" fill-rule="nonzero"/>
			<path id="Vector" d="M205.69 22.41C208.04 30.25 203.67 38.6 195.94 41.07C188.2 43.54 180.03 39.19 177.68 31.36C175.33 23.52 179.7 15.17 187.43 12.7C195.17 10.23 203.34 14.58 205.69 22.41Z" fill="#FAF7F5" fill-opacity="1.000000" fill-rule="evenodd"/>
			<path id="Vector" d="M39.07 126.06C36.04 138.12 24.99 145.59 14.41 142.75C3.83 139.91 -2.27 127.82 0.76 115.77C3.79 103.71 14.84 96.24 25.42 99.08C36 101.91 42.11 114 39.07 126.06Z" fill="#FAF7F5" fill-opacity="1.000000" fill-rule="nonzero"/>
			<path id="Vector" d="M254.44 128.27C253.99 128.27 253.54 128.17 253.13 127.98C252.72 127.79 252.35 127.5 252.06 127.15C251.77 126.8 251.55 126.38 251.43 125.93C251.3 125.48 251.28 125.01 251.35 124.55L265.41 30.8C265.66 29.12 265.55 27.39 265.07 25.76C264.6 24.12 263.79 22.61 262.68 21.34C261.57 20.07 260.21 19.07 258.68 18.41C257.16 17.75 255.51 17.45 253.85 17.53L212.65 19.52C212.24 19.54 211.83 19.47 211.45 19.33C211.06 19.18 210.71 18.96 210.4 18.68C210.1 18.39 209.85 18.05 209.68 17.66C209.51 17.28 209.41 16.87 209.39 16.44C209.37 16.02 209.43 15.6 209.57 15.2C209.71 14.8 209.92 14.43 210.2 14.12C210.48 13.81 210.81 13.56 211.18 13.38C211.55 13.2 211.95 13.09 212.36 13.07L253.57 11.1C256.15 10.97 258.72 11.44 261.1 12.47C263.49 13.5 265.62 15.06 267.34 17.04C269.07 19.03 270.35 21.38 271.08 23.94C271.81 26.49 271.99 29.18 271.59 31.82L257.52 125.54C257.41 126.3 257.03 127 256.47 127.5C255.9 128 255.18 128.27 254.44 128.27Z" fill="#F6A6BF" fill-opacity="1.000000" fill-rule="nonzero"/>
			<path id="Vector" d="M208.14 191.59L208.01 191.59L35.03 183.91C30.76 183.72 26.72 181.92 23.65 178.85C20.59 175.78 18.72 171.66 18.41 167.26L17.29 151.32C17.25 150.89 17.28 150.46 17.41 150.04C17.53 149.63 17.73 149.24 18 148.91C18.27 148.58 18.6 148.31 18.97 148.11C19.34 147.91 19.75 147.79 20.17 147.76C20.59 147.73 21.01 147.78 21.4 147.92C21.8 148.06 22.17 148.28 22.48 148.57C22.79 148.86 23.04 149.21 23.22 149.6C23.4 149.99 23.5 150.42 23.52 150.85L24.65 166.77C24.84 169.59 26.04 172.23 28 174.2C29.97 176.17 32.56 177.32 35.3 177.45L208.28 185.15C208.69 185.15 209.1 185.25 209.47 185.42C209.85 185.59 210.19 185.83 210.47 186.14C210.76 186.44 210.98 186.8 211.13 187.2C211.28 187.59 211.35 188.01 211.34 188.44C211.33 188.86 211.24 189.28 211.08 189.67C210.91 190.05 210.68 190.4 210.38 190.7C210.08 190.99 209.73 191.22 209.35 191.37C208.97 191.53 208.56 191.6 208.15 191.59L208.14 191.59Z" fill="#F6A6BF" fill-opacity="1.000000" fill-rule="nonzero"/>
			<path id="Vector" d="M15.48 84.77C14.7 84.77 13.94 84.46 13.36 83.91C12.78 83.35 12.43 82.59 12.37 81.78L9.77 44.96C9.6 42.57 9.9 40.16 10.65 37.89C11.39 35.62 12.57 33.52 14.11 31.73C15.66 29.93 17.53 28.48 19.63 27.44C21.73 26.41 24 25.82 26.33 25.7L165.81 19.01C166.23 18.97 166.65 19.02 167.05 19.16C167.44 19.3 167.81 19.51 168.13 19.8C168.44 20.09 168.7 20.43 168.88 20.82C169.06 21.21 169.16 21.64 169.18 22.07C169.2 22.5 169.14 22.93 168.99 23.34C168.85 23.74 168.62 24.11 168.34 24.43C168.05 24.74 167.7 24.99 167.32 25.17C166.94 25.34 166.52 25.44 166.11 25.44L26.62 32.15C25.13 32.22 23.67 32.59 22.32 33.26C20.98 33.92 19.77 34.85 18.78 36C17.79 37.15 17.04 38.5 16.56 39.96C16.08 41.41 15.89 42.95 16 44.49L18.6 81.31C18.66 82.16 18.39 83.01 17.85 83.65C17.31 84.3 16.54 84.7 15.71 84.76L15.48 84.77Z" fill="#F6A6BF" fill-opacity="1.000000" fill-rule="nonzero"/>
			<path id="Vector" d="M189.82 30.69C186.64 30.71 183.53 29.67 180.97 27.74C178.4 25.81 176.49 23.07 175.54 19.94C174.71 17.01 174.74 13.9 175.61 10.99C176.48 8.07 178.17 5.49 180.45 3.55C182.73 1.61 185.51 0.41 188.45 0.08C191.39 -0.24 194.35 0.33 196.98 1.73C198.73 2.65 200.28 3.92 201.54 5.47C202.8 7.02 203.75 8.82 204.33 10.75C205.47 14.67 205.06 18.9 203.18 22.51C201.3 26.11 198.12 28.8 194.32 29.99C192.86 30.46 191.35 30.69 189.82 30.69ZM190.08 6.44C189.17 6.44 188.27 6.59 187.4 6.86C185.18 7.54 183.31 9.09 182.2 11.19C181.1 13.28 180.84 15.75 181.49 18.04C182.24 20.27 183.8 22.12 185.84 23.18C187.88 24.25 190.25 24.46 192.44 23.76C194.62 23.06 196.46 21.51 197.57 19.44C198.67 17.37 198.94 14.93 198.34 12.66C198.01 11.54 197.47 10.5 196.74 9.6C196.01 8.7 195.11 7.97 194.1 7.44C192.85 6.78 191.48 6.44 190.08 6.44Z" fill="#F6A6BF" fill-opacity="1.000000" fill-rule="nonzero"/>
			<path id="Vector" d="M22.96 136.6C21.31 136.6 19.67 136.39 18.07 135.96C15.33 135.21 12.77 133.86 10.57 132.01C8.37 130.16 6.58 127.86 5.3 125.24C2.65 119.78 2.01 113.52 3.5 107.61C4.98 101.7 8.5 96.55 13.39 93.11C15.74 91.47 18.4 90.36 21.2 89.86C23.99 89.36 26.86 89.47 29.6 90.2C40.84 93.22 47.38 105.94 44.19 118.55C41.45 129.33 32.51 136.6 22.96 136.6ZM24.71 96.02C21.9 96.05 19.17 96.92 16.84 98.53C13.24 101.09 10.66 104.9 9.56 109.26C8.45 113.62 8.91 118.25 10.84 122.29C11.71 124.1 12.95 125.7 14.47 126.99C15.99 128.27 17.75 129.21 19.65 129.74C27.53 131.86 35.82 126.12 38.14 116.95C40.46 107.77 35.93 98.59 28.03 96.47C26.95 96.17 25.83 96.02 24.71 96.02Z" fill="#F6A6BF" fill-opacity="1.000000" fill-rule="nonzero"/>
			<path id="Vector" d="M272.34 180.61C272.27 194.69 262.18 206.07 249.82 206C237.45 205.92 227.49 194.44 227.57 180.35C227.65 166.25 237.74 154.89 250.1 154.96C262.46 155.02 272.42 166.52 272.34 180.61Z" fill="#FAF7F5" fill-opacity="1.000000" fill-rule="nonzero"/>
			<path id="Vector" d="M249 197.06L248.88 197.06C245.72 197.03 242.61 196.31 239.75 194.94C236.89 193.58 234.35 191.6 232.28 189.15C227.91 184.03 225.55 177.43 225.64 170.62C225.72 156.16 236.21 144.44 249.04 144.44L249.16 144.44C252.32 144.48 255.42 145.2 258.28 146.57C261.14 147.93 263.69 149.91 265.76 152.36C270.12 157.47 272.49 164.08 272.4 170.89C272.32 185.35 261.83 197.06 249 197.06ZM249.04 150.88C239.63 150.88 231.94 159.75 231.88 170.65C231.8 175.86 233.61 180.92 236.94 184.84C238.43 186.62 240.26 188.06 242.33 189.06C244.39 190.05 246.64 190.58 248.92 190.62L249 190.62C258.41 190.62 266.1 181.75 266.16 170.85C266.24 165.64 264.44 160.58 261.1 156.66C259.61 154.88 257.78 153.44 255.71 152.45C253.65 151.45 251.41 150.92 249.13 150.89L249.04 150.88Z" fill="#F6A6BF" fill-opacity="1.000000" fill-rule="nonzero"/>
		</g>
	</g>
	<rect id="happy 1" rx="-0.500000" width="59.000000" height="59.000000" transform="translate(200.500000 11.500000)" fill="#FFFFFF" fill-opacity="0"/>
	<g clip-path="url(#clip11_642)">
		<path id="Vector" d="M233.57 11.16C231.92 11.55 230.89 12.1 229.77 13.21C228.53 14.44 227.72 15.86 227.29 17.56C227.07 18.45 227.09 20.78 227.32 21.89C227.43 22.37 227.56 23.08 227.59 23.44L227.68 24.1L227.11 24.18C223.84 24.64 220.75 25.76 218.29 27.4C217.09 28.2 215.35 29.8 214.69 30.69C214.4 31.09 214.22 31.25 214.13 31.16C213.81 30.89 212.08 30.32 211.09 30.13C209.83 29.91 209.38 29.97 208.64 30.44C208.02 30.83 207.48 31.78 207.25 32.89C207.03 33.96 207.18 37.32 207.54 39.31C207.81 40.78 208.6 44.09 208.87 44.86C208.96 45.11 208.84 45.42 208.2 46.68L207.44 48.2L206.79 48.12C205.94 48.03 203.82 48 203.57 48.1C203.28 48.21 203.02 48.82 203.1 49.2C203.24 49.84 203.5 49.94 205.16 50.03C206.01 50.08 206.72 50.14 206.75 50.17C206.78 50.19 206.75 50.37 206.68 50.56C206.46 51.08 206.09 53.5 206.09 54.26C206.09 54.94 206.08 54.95 205.71 55.08C205.5 55.16 204.87 55.44 204.32 55.71C203.31 56.23 203.04 56.51 203.04 57.06C203.04 57.37 203.65 57.99 203.96 57.99C204.1 57.99 204.64 57.78 205.16 57.52C206.19 57.03 206.31 57.04 206.32 57.64C206.34 57.8 206.53 58.5 206.77 59.22L207.2 60.5L206.19 61.5C205.48 62.22 205.09 62.71 204.82 63.27C203.39 66.24 204.11 68.59 206.85 69.95C208.3 70.68 209.68 70.91 212.24 70.92C214.7 70.92 215.49 70.76 217.32 69.87L218.42 69.34L219.78 69.69C223.28 70.6 226.01 70.92 230.05 70.92C234.1 70.92 236.83 70.6 240.33 69.69L241.69 69.34L242.79 69.87C244.62 70.76 245.41 70.92 247.87 70.92C250.42 70.91 251.75 70.68 253.23 69.96C255.99 68.62 256.71 66.25 255.28 63.27C255.02 62.71 254.63 62.22 253.9 61.49L252.88 60.47L253.12 59.91C253.23 59.59 253.47 58.84 253.62 58.23C253.77 57.62 253.93 57.11 253.95 57.08C253.97 57.05 254.42 57.25 254.94 57.51C255.46 57.78 256 57.99 256.14 57.99C256.44 57.99 257.07 57.38 257.07 57.06C257.07 56.51 256.8 56.23 255.79 55.71C255.24 55.44 254.6 55.16 254.41 55.08C254.03 54.95 254.02 54.94 254.02 54.26C254.02 53.5 253.64 51.08 253.43 50.56C253.36 50.37 253.33 50.19 253.36 50.17C253.39 50.14 254.1 50.08 254.94 50.03C256.61 49.94 256.87 49.84 257.01 49.2C257.09 48.82 256.83 48.21 256.54 48.1C256.29 48 254.17 48.03 253.32 48.12L252.67 48.2L251.92 46.69L251.18 45.18L251.6 43.64C253.41 37.03 253.52 32.39 251.86 30.74C251.18 30.06 250.54 29.9 249.32 30.08C248.34 30.24 247.1 30.61 246.32 31.01L245.83 31.27L245.42 30.69C244.75 29.79 242.98 28.17 241.8 27.4C239.79 26.07 237.14 24.96 234.78 24.5L233.69 24.27L233.56 23C233.48 22.29 233.34 21.27 233.22 20.72C233 19.62 233.04 18.96 233.38 18.28C233.69 17.67 234.34 17.12 234.86 17.02C235.59 16.89 236.84 17.33 238.06 18.17C238.81 18.68 239.35 18.87 240.09 18.87C242.31 18.87 243.69 16.58 242.71 14.56C242.46 14.05 242.21 13.77 241.61 13.33C240.61 12.59 238.74 11.65 237.61 11.35C236.48 11.03 234.52 10.94 233.57 11.16ZM237.48 13.41C238.5 13.75 240.12 14.64 240.69 15.18C241.08 15.57 241.12 16.1 240.77 16.55C240.41 17 239.82 16.97 239.12 16.47C238.33 15.91 236.83 15.24 236.03 15.08C234.19 14.75 232.63 15.51 231.71 17.19C231.02 18.47 230.92 19.39 231.27 21.25C231.4 21.89 231.54 22.77 231.58 23.21L231.66 24L230.66 24L229.67 24L229.6 23.32C229.55 22.96 229.41 22.07 229.27 21.37C228.85 19.08 229.16 17.32 230.3 15.65C231.94 13.25 234.54 12.44 237.48 13.41ZM232.73 26.17C237.24 26.76 241.18 28.74 243.6 31.63L244.06 32.18L243.2 32.69C242.75 32.96 241.74 33.6 240.98 34.1L239.59 35.03L238.75 34.69C235.8 33.47 232.8 32.96 229.29 33.06C226.43 33.14 224.01 33.64 221.55 34.62L220.53 35.02L219.44 34.28C218.83 33.87 217.82 33.23 217.2 32.85L216.06 32.17L216.4 31.75C217.3 30.61 218.72 29.44 220.27 28.53C223.7 26.49 228.4 25.61 232.73 26.17ZM211.21 32.21C211.75 32.33 212.51 32.58 212.91 32.77C214.03 33.28 216.58 34.77 218.44 36.01C219.47 36.71 220.22 37.13 220.41 37.13C220.57 37.13 221.1 36.96 221.57 36.76C224.6 35.46 227.38 34.95 230.7 35.05C233.59 35.15 235.52 35.55 238.14 36.61C238.85 36.89 239.58 37.13 239.77 37.13C239.98 37.13 240.52 36.83 241.34 36.26C245.51 33.39 249.43 31.57 250.37 32.08C250.97 32.41 251.21 34.89 250.87 37.48C250.64 39.12 250.08 41.73 249.6 43.37C248.98 45.5 248.98 45.47 249.67 46.69C249.99 47.26 250.34 47.92 250.43 48.16L250.61 48.57L249.25 48.96C247.69 49.41 245.11 50.64 244.48 51.23C244.03 51.65 243.96 51.96 244.2 52.4C244.57 53.11 245.07 53.11 246.35 52.37C247.96 51.45 251.1 50.31 251.34 50.57C251.53 50.8 252.16 54.27 252.02 54.41C251.99 54.44 251.46 54.38 250.85 54.28C249.46 54.08 247.12 53.94 246.72 54.05C246.39 54.13 246.05 54.65 246.05 55.06C246.05 55.2 246.19 55.46 246.38 55.63C246.68 55.94 246.78 55.96 248.1 56.03C249.5 56.11 251.77 56.41 251.9 56.52C251.98 56.62 251.71 57.89 251.41 58.78C251.14 59.62 251.25 59.58 249.98 59.23C249.06 58.97 247.07 58.96 246.11 59.22C242.62 60.12 239.85 63.39 240.11 66.3C240.16 66.72 240.21 67.21 240.25 67.37C240.33 67.67 240.31 67.68 238.94 67.98C235.73 68.72 233.71 68.93 230.05 68.93C226.4 68.93 224.38 68.72 221.17 67.98C219.8 67.68 219.78 67.67 219.86 67.37C219.89 67.21 219.95 66.72 220 66.3C220.26 63.35 217.54 60.16 214 59.22C213.05 58.96 211.06 58.97 210.13 59.23C208.89 59.57 208.97 59.59 208.76 58.96C208.5 58.22 208.2 57.01 208.2 56.73C208.2 56.53 208.33 56.48 209 56.37C210.17 56.16 211.8 56 212.63 56C213.3 56 213.41 55.96 213.72 55.66C213.91 55.47 214.06 55.2 214.06 55.06C214.06 54.65 213.72 54.13 213.39 54.05C212.99 53.94 210.65 54.08 209.25 54.28C208.64 54.38 208.12 54.44 208.09 54.41C207.95 54.27 208.57 50.8 208.77 50.57C209.01 50.31 212.15 51.45 213.75 52.37C215.04 53.11 215.53 53.11 215.91 52.4C216.3 51.68 215.89 51.2 214.09 50.29C212.71 49.57 211.26 49.01 210.11 48.73L209.5 48.59L209.68 48.17C209.77 47.92 210.11 47.28 210.43 46.71C210.75 46.14 211.01 45.54 211.01 45.37C211.01 45.18 210.8 44.3 210.53 43.4C210 41.55 209.45 38.92 209.24 37.22C209.05 35.6 209.15 33.08 209.42 32.56C209.78 31.88 209.82 31.87 211.21 32.21ZM213.72 61.22C216.27 61.97 218.36 64.51 218 66.46C217.84 67.27 216.57 68.29 215.35 68.57L215.05 68.64L215.05 67.13C215.05 65.7 215.04 65.6 214.77 65.32C214.37 64.9 213.74 64.9 213.34 65.32C213.1 65.59 213.06 65.73 213.03 66.87C212.98 68.52 212.96 68.63 212.48 68.85C212.14 69.01 212.03 69.01 211.7 68.89C211.16 68.66 211.01 68.18 211.01 66.75C211.01 65.69 210.99 65.53 210.75 65.29C210.39 64.9 209.73 64.92 209.36 65.32C209.09 65.6 209.08 65.7 209.08 67.13L209.08 68.64L208.78 68.57C207.54 68.29 206.3 67.3 206.14 66.48C205.93 65.35 206.44 64.07 207.54 62.96C208.85 61.64 210.26 61.05 212.02 61.03C212.65 61.03 213.33 61.1 213.72 61.22ZM249.69 61.22C251.84 61.85 253.8 63.82 253.98 65.55C254.08 66.37 253.94 66.87 253.42 67.42C253 67.88 252.04 68.41 251.32 68.57L251.03 68.64L251.03 67.13C251.03 65.7 251.02 65.6 250.75 65.32C250.39 64.94 249.75 64.91 249.37 65.28C249.12 65.51 249.1 65.63 249.1 66.74C249.1 68.18 248.94 68.66 248.41 68.89C248.08 69.01 247.97 69.01 247.63 68.85C247.15 68.63 247.13 68.52 247.08 66.87C247.05 65.73 247.01 65.59 246.77 65.32C246.37 64.9 245.73 64.9 245.34 65.32C245.07 65.6 245.05 65.7 245.05 67.13L245.07 68.64L244.76 68.57C244.07 68.42 242.99 67.81 242.6 67.34C241.94 66.57 241.9 65.59 242.49 64.4C243.12 63.07 244.6 61.83 246.13 61.32C247.12 60.98 248.72 60.94 249.69 61.22Z" fill="#241D50" fill-opacity="1.000000" fill-rule="nonzero"/>
		<path id="Vector" d="M218.05 46.28C216.93 46.57 216.39 46.84 216.18 47.22C215.86 47.78 216.34 48.61 216.99 48.61C217.16 48.61 217.61 48.51 218 48.37C218.38 48.23 219.13 48.1 219.71 48.06C221.42 47.96 222.26 48.42 222.93 49.87C223.14 50.34 223.42 50.77 223.55 50.84C223.95 51.05 224.37 50.97 224.75 50.6C225.18 50.17 225.16 49.82 224.65 48.79C224.02 47.51 222.96 46.6 221.69 46.22C220.81 45.96 219.14 45.99 218.05 46.28Z" fill="#241D50" fill-opacity="1.000000" fill-rule="nonzero"/>
		<path id="Vector" d="M237.41 46.21C235.81 46.7 234.28 48.39 234.12 49.84C234.07 50.28 234.11 50.39 234.37 50.65C234.95 51.24 235.78 50.93 236.09 50.02C236.3 49.39 237.07 48.52 237.67 48.25C238.33 47.94 239.66 47.96 240.72 48.27C242.05 48.67 242.36 48.68 242.7 48.33C243 48.04 243.09 47.57 242.93 47.15C242.83 46.88 242.12 46.55 241.06 46.27C239.99 46 238.19 45.96 237.41 46.21Z" fill="#241D50" fill-opacity="1.000000" fill-rule="nonzero"/>
		<path id="Vector" d="M227.48 52.17C226.43 52.68 225.89 53.69 226.15 54.68C226.25 55.08 226.5 55.44 227.22 56.22C227.75 56.77 228.37 57.35 228.6 57.52L229.05 57.81L229.06 59.57C229.06 61.17 229.03 61.39 228.8 61.85C228.65 62.14 228.39 62.46 228.23 62.59C227.58 63.06 226.54 63.06 225.91 62.59C225.28 62.12 225.16 61.81 225.07 60.61C225 59.62 224.97 59.45 224.73 59.26C224.29 58.9 223.71 58.94 223.35 59.35C223.12 59.6 223.08 59.77 223.08 60.68C223.08 62.02 223.37 62.85 224.12 63.65C225.64 65.26 228.04 65.41 229.68 63.96L230.08 63.62L230.34 63.89C230.72 64.3 231.61 64.75 232.36 64.9C233.64 65.16 235.02 64.68 235.98 63.65C236.73 62.85 237.03 62.02 237.03 60.68C237.03 59.77 236.99 59.6 236.77 59.35C236.39 58.94 235.82 58.9 235.37 59.26C235.14 59.45 235.1 59.62 235.03 60.61C234.95 61.81 234.82 62.12 234.2 62.59C233.57 63.06 232.53 63.06 231.88 62.59C231.72 62.46 231.46 62.14 231.32 61.85C231.07 61.39 231.05 61.17 231.05 59.57L231.06 57.81L231.51 57.52C231.74 57.35 232.36 56.77 232.89 56.22C233.6 55.44 233.86 55.08 233.96 54.68C234.18 53.83 233.8 52.95 233 52.39C232.54 52.07 232.54 52.07 230.18 52.05C228.34 52.02 227.75 52.05 227.48 52.17ZM231.94 54.13C232.05 54.31 230.34 55.99 230.05 55.99C229.77 55.99 228.06 54.31 228.17 54.13C228.23 54.05 228.82 54 230.05 54C231.28 54 231.88 54.05 231.94 54.13Z" fill="#241D50" fill-opacity="1.000000" fill-rule="nonzero"/>
	</g>
</svg>
