<svg width="195.513672" height="195.457550" viewBox="0 0 195.514 195.458" fill="none" xmlns="http://www.w3.org/2000/svg" xmlns:xlink="http://www.w3.org/1999/xlink">
	<desc>
			Created with Pixso.
	</desc>
	<defs/>
	<path id="Vector" d="M176.54 60.05C174.32 58.75 172.47 56.9 171.17 54.68C169.87 52.46 169.16 49.95 169.11 47.37C169.03 43.8 167.68 40.37 165.31 37.69C162.93 35.02 159.68 33.28 156.13 32.79C153.58 32.44 151.17 31.44 149.11 29.88C147.06 28.33 145.44 26.27 144.42 23.91C142.98 20.63 140.42 17.97 137.2 16.41C133.98 14.84 130.3 14.48 126.84 15.38C124.34 16.04 121.72 16.03 119.23 15.38C116.73 14.73 114.44 13.44 112.59 11.65C110.01 9.17 106.62 7.69 103.05 7.48C99.47 7.26 95.94 8.33 93.08 10.5C91.03 12.05 88.61 13.05 86.06 13.4C83.52 13.76 80.92 13.45 78.52 12.52C75.19 11.2 71.5 11.12 68.11 12.3C64.72 13.47 61.87 15.82 60.06 18.91C58.76 21.13 56.91 22.98 54.69 24.28C52.47 25.58 49.96 26.29 47.38 26.34C43.8 26.41 40.36 27.76 37.69 30.14C35.01 32.51 33.27 35.77 32.78 39.32C32.43 41.87 31.43 44.3 29.88 46.35C28.32 48.41 26.27 50.03 23.91 51.07C20.62 52.5 17.96 55.06 16.4 58.29C14.83 61.51 14.47 65.18 15.38 68.65C16.03 71.15 16.03 73.77 15.38 76.26C14.72 78.76 13.44 81.05 11.64 82.9C9.16 85.49 7.68 88.87 7.47 92.44C7.26 96.02 8.33 99.55 10.5 102.41C12.05 104.45 13.05 106.86 13.41 109.39C13.77 111.93 13.47 114.52 12.55 116.91C11.25 120.25 11.17 123.94 12.34 127.33C13.51 130.72 15.84 133.58 18.93 135.39C21.15 136.69 23 138.54 24.3 140.76C25.6 142.98 26.31 145.5 26.36 148.07C26.43 151.65 27.78 155.09 30.16 157.77C32.54 160.45 35.79 162.19 39.34 162.68C41.89 163.03 44.31 164.03 46.36 165.58C48.41 167.14 50.03 169.19 51.06 171.55C52.5 174.83 55.06 177.49 58.28 179.05C61.5 180.62 65.17 180.98 68.64 180.08C71.14 179.42 73.76 179.43 76.25 180.08C78.75 180.73 81.04 182.02 82.89 183.81C85.48 186.29 88.86 187.77 92.43 187.98C96.01 188.19 99.54 187.11 102.4 184.95C103.66 183.99 105.07 183.24 106.57 182.73C109.95 181.56 113.64 181.63 116.98 182.94C120.31 184.24 124.01 184.31 127.39 183.14C130.77 181.96 133.63 179.62 135.44 176.53C136.74 174.31 138.59 172.46 140.81 171.16C143.03 169.86 145.54 169.15 148.11 169.1C151.7 169.03 155.14 167.69 157.82 165.31C160.49 162.93 162.23 159.67 162.72 156.12C163.07 153.57 164.08 151.16 165.63 149.11C167.18 147.06 169.24 145.44 171.6 144.41C174.88 142.97 177.53 140.41 179.1 137.18C180.66 133.96 181.02 130.29 180.12 126.82C179.48 124.33 179.48 121.72 180.13 119.23C180.79 116.74 182.07 114.46 183.86 112.61C186.35 110.02 187.83 106.64 188.04 103.07C188.25 99.49 187.18 95.96 185.02 93.1C183.46 91.05 182.46 88.63 182.11 86.08C181.76 83.53 182.07 80.94 183.01 78.54C184.31 75.19 184.38 71.49 183.19 68.1C182.01 64.71 179.65 61.86 176.54 60.05ZM122.72 169.74C108.48 174.67 93.09 175.28 78.51 171.47C63.92 167.66 50.8 159.62 40.78 148.35C30.77 137.08 24.33 123.1 22.26 108.16C20.2 93.23 22.61 78.02 29.19 64.46C35.77 50.9 46.22 39.6 59.23 31.97C72.23 24.35 87.2 20.76 102.25 21.65C117.3 22.54 131.75 27.87 143.76 36.97C155.78 46.06 164.83 58.52 169.77 72.76C176.36 91.86 175.11 112.8 166.3 130.98C157.48 149.16 141.81 163.1 122.72 169.74Z" fill="#F6A6BF" fill-opacity="1.000000" fill-rule="nonzero"/>
	<circle id="Ellipse 81" r="71.308235" transform="matrix(0.995321 -0.0966268 0.0966268 0.995321 97.7285 97.7339)" fill="#F6A6BF" fill-opacity="1.000000"/>
	<path id="гарантированы" d="M60.38 118.85Q59.32 118.34 57.73 118.81Q56.85 119.08 56.12 119.54Q55.4 120 54.96 120.6L55.98 121.63Q56.28 121.17 56.81 120.81Q57.2 120.55 57.62 120.38Q57.78 120.32 57.95 120.27Q58.83 120.01 59.4 120.28Q59.51 120.33 59.61 120.4Q60.01 120.69 60.19 121.29L60.23 121.4L58.37 121.95Q56.83 122.41 56.28 123.21Q56.04 123.56 55.97 123.94Q55.87 124.43 56.03 124.97Q56.14 125.37 56.38 125.67Q56.51 125.84 56.68 125.98Q56.74 126.03 56.8 126.07Q57.24 126.39 57.84 126.47Q58.53 126.57 59.34 126.33Q60.14 126.09 60.64 125.67Q61.04 125.33 61.23 124.9Q61.27 124.8 61.3 124.69L61.56 125.56L63.15 125.09L61.9 120.89Q61.49 119.5 60.57 118.95Q60.48 118.9 60.38 118.85ZM68.86 115.91Q67.99 115.77 67.04 116.05Q66.31 116.27 65.77 116.7Q65.49 116.93 65.28 117.22Q65.1 117.47 64.97 117.77L64.69 116.83L63.1 117.31L66 127.08L67.68 126.58L66.64 123.1Q67.01 123.34 67.42 123.45Q68.25 123.68 69.22 123.39Q70.18 123.11 70.83 122.5Q70.9 122.44 70.96 122.38Q71.27 122.07 71.48 121.7Q71.75 121.24 71.87 120.7Q71.88 120.66 71.89 120.62Q72.08 119.68 71.77 118.63Q71.46 117.58 70.78 116.9Q70.75 116.88 70.73 116.85Q70.34 116.48 69.88 116.24Q69.49 116.04 69.05 115.95Q68.96 115.93 68.86 115.91ZM77.57 113.75Q76.51 113.24 74.92 113.71Q74.04 113.97 73.31 114.43Q72.59 114.89 72.15 115.49L73.17 116.52Q73.48 116.06 74 115.7Q74.39 115.44 74.81 115.27Q74.97 115.21 75.14 115.16Q76.02 114.9 76.59 115.17Q76.7 115.22 76.8 115.29Q77.21 115.59 77.38 116.19L77.42 116.3L75.57 116.85Q74.02 117.3 73.48 118.1Q73.24 118.45 73.16 118.84Q73.06 119.32 73.22 119.86Q73.34 120.26 73.57 120.56Q73.7 120.74 73.88 120.88Q73.93 120.92 73.99 120.96Q74.43 121.28 75.04 121.36Q75.72 121.46 76.53 121.22Q77.33 120.98 77.83 120.56Q78.23 120.22 78.42 119.79Q78.46 119.69 78.49 119.58L78.75 120.46L80.34 119.98L79.09 115.78Q78.68 114.39 77.76 113.85Q77.67 113.79 77.57 113.75ZM111.59 103.22Q110.72 103.07 109.77 103.35Q109.04 103.57 108.5 104.01Q108.22 104.24 108.01 104.52Q107.83 104.78 107.7 105.08L107.42 104.14L105.83 104.61L108.73 114.38L110.41 113.89L109.37 110.41Q109.75 110.64 110.15 110.76Q110.98 110.98 111.96 110.7Q112.91 110.41 113.57 109.81Q113.63 109.75 113.69 109.68Q114 109.37 114.21 109.01Q114.48 108.55 114.6 108Q114.61 107.96 114.62 107.93Q114.81 106.98 114.5 105.94Q114.19 104.89 113.51 104.21Q113.49 104.18 113.46 104.16Q113.07 103.78 112.61 103.55Q112.22 103.35 111.78 103.25Q111.69 103.23 111.59 103.22ZM118.59 108.33Q119.49 108.46 120.45 108.17Q121.47 107.87 122.18 107.22Q122.23 107.17 122.29 107.12Q122.7 106.7 122.96 106.2Q123.15 105.82 123.26 105.4Q123.3 105.22 123.33 105.03Q123.44 104.22 123.18 103.36Q122.93 102.49 122.39 101.87Q122.26 101.74 122.13 101.61Q121.83 101.33 121.47 101.12Q120.98 100.84 120.38 100.71Q120.3 100.7 120.22 100.68Q119.28 100.53 118.27 100.83Q117.32 101.11 116.64 101.7Q116.54 101.79 116.45 101.88Q116.03 102.31 115.77 102.81Q115.58 103.18 115.48 103.59Q115.43 103.76 115.41 103.93Q115.29 104.75 115.55 105.62Q115.81 106.5 116.35 107.12Q116.47 107.26 116.6 107.38Q116.92 107.68 117.29 107.89Q117.78 108.16 118.35 108.28Q118.47 108.31 118.59 108.33ZM137.37 95.98Q136.31 95.47 134.72 95.94Q133.84 96.2 133.11 96.67Q132.39 97.13 131.96 97.73L132.97 98.75Q133.28 98.3 133.81 97.94Q134.19 97.67 134.62 97.51Q134.77 97.44 134.94 97.4Q135.82 97.13 136.39 97.4Q136.5 97.46 136.6 97.53Q137.01 97.82 137.19 98.42L137.22 98.53L135.37 99.08Q133.82 99.54 133.28 100.34Q133.04 100.69 132.96 101.07Q132.86 101.56 133.02 102.1Q133.14 102.5 133.37 102.8Q133.51 102.97 133.68 103.11Q133.73 103.16 133.79 103.2Q134.23 103.51 134.84 103.6Q135.53 103.69 136.33 103.46Q137.13 103.22 137.63 102.8Q138.03 102.46 138.22 102.03Q138.26 101.92 138.3 101.82L138.55 102.69L140.14 102.22L138.89 98.02Q138.48 96.63 137.56 96.08Q137.47 96.03 137.37 95.98ZM50.46 122.61L54.28 121.47L53.86 120.05L48.36 121.69L50.49 128.85L52.17 128.35L50.46 122.61ZM81.97 111.7L80.29 112.2L82.42 119.37L84.09 118.87L83.25 116.04L86.86 114.97L87.7 117.8L89.38 117.3L87.25 110.13L85.58 110.63L86.44 113.54L82.83 114.62L81.97 111.7ZM93.1 109.94L95.61 109.2L95.19 107.78L88.48 109.77L88.9 111.19L91.42 110.44L93.13 116.19L94.8 115.69L93.1 109.94ZM98.08 106.91L96.41 107.41L98.53 114.58L100.08 114.12L102.62 108.22L104.02 112.95L105.7 112.45L103.57 105.28L102.04 105.74L99.49 111.64L98.08 106.91ZM131.24 101.56Q130.76 101.18 129.98 101.18Q130.42 100.81 130.6 100.34Q130.6 100.32 130.61 100.3Q130.65 100.19 130.67 100.08Q130.74 99.69 130.61 99.27Q130.48 98.82 130.19 98.53Q129.91 98.25 129.47 98.12Q128.59 97.85 127.27 98.24L123.77 99.28L125.9 106.45L129.55 105.37Q130.97 104.94 131.54 104.21Q131.77 103.9 131.86 103.56Q131.99 103.07 131.82 102.5Q131.64 101.89 131.24 101.56ZM141.77 93.94L140.09 94.44L142.22 101.6L143.89 101.1L143.05 98.27L146.67 97.2L147.51 100.03L149.18 99.53L147.06 92.37L145.38 92.86L146.24 95.78L142.63 96.85L141.77 93.94ZM155.78 93.02Q154.87 92.62 153.5 93.02L151.68 93.55L150.99 91.2L149.31 91.7L151.44 98.86L154.69 97.91Q156.16 97.49 156.76 96.61Q156.96 96.33 157.05 96.02Q157.26 95.35 157.02 94.55Q156.77 93.71 156.21 93.28Q156.02 93.12 155.78 93.02ZM158.22 89.05L156.54 89.55L158.67 96.71L160.35 96.22L158.22 89.05ZM128.01 101.28L126.25 101.8L125.73 100.03L127.49 99.51Q128.38 99.24 128.78 99.57Q128.97 99.72 129.05 99.99Q129.13 100.28 129.06 100.52Q128.89 101.02 128.01 101.28ZM69.57 121.46Q69.19 121.83 68.61 122.01Q68.13 122.15 67.68 122.1Q67.56 122.08 67.44 122.05Q67.25 122.01 67.07 121.93Q66.73 121.78 66.44 121.5Q66.01 121.07 65.81 120.4Q65.61 119.73 65.74 119.14Q65.83 118.74 66.04 118.42Q66.14 118.26 66.27 118.12Q66.36 118.04 66.45 117.96Q66.8 117.67 67.28 117.52Q67.86 117.35 68.38 117.46Q68.69 117.52 68.99 117.69Q69.16 117.79 69.32 117.92Q69.83 118.36 70.06 119.14Q70.3 119.92 70.1 120.57Q70.04 120.76 69.95 120.94Q69.8 121.23 69.57 121.46ZM112.3 108.76Q111.92 109.14 111.34 109.31Q110.86 109.45 110.41 109.4Q110.29 109.39 110.17 109.36Q109.98 109.32 109.8 109.24Q109.46 109.08 109.18 108.8Q108.74 108.38 108.54 107.71Q108.34 107.04 108.47 106.44Q108.56 106.04 108.77 105.72Q108.87 105.57 109 105.43Q109.09 105.34 109.18 105.27Q109.53 104.97 110.01 104.83Q110.59 104.66 111.11 104.77Q111.42 104.83 111.72 105Q111.89 105.1 112.05 105.23Q112.56 105.66 112.8 106.44Q113.03 107.23 112.83 107.88Q112.77 108.07 112.68 108.24Q112.53 108.54 112.3 108.76ZM120.98 106.19Q120.6 106.56 120.03 106.73Q119.44 106.91 118.92 106.8Q118.61 106.73 118.32 106.57Q118.15 106.47 118 106.35Q117.47 105.91 117.24 105.12Q117.01 104.34 117.2 103.69Q117.26 103.5 117.35 103.32Q117.51 103.02 117.74 102.8Q118.12 102.42 118.69 102.25Q119.26 102.08 119.78 102.18Q120.11 102.25 120.41 102.42Q120.6 102.52 120.76 102.66Q121.26 103.09 121.49 103.86Q121.72 104.63 121.53 105.28Q121.47 105.48 121.37 105.66Q121.21 105.96 120.98 106.19ZM155.21 96.08Q154.92 96.51 154.17 96.72L152.75 97.13L152.03 94.7L153.45 94.29Q154.22 94.08 154.68 94.25Q154.78 94.28 154.86 94.34Q155.18 94.54 155.32 95.02Q155.46 95.5 155.32 95.86Q155.28 95.97 155.21 96.08ZM60.24 124.5Q59.86 124.84 59.32 125Q58.68 125.19 58.23 125.03Q58.02 124.95 57.88 124.81Q57.73 124.65 57.66 124.41Q57.57 124.13 57.65 123.89Q57.81 123.33 58.82 123.03L60.56 122.52L60.8 123.35Q60.78 123.66 60.66 123.92Q60.55 124.17 60.35 124.38Q60.3 124.44 60.24 124.5ZM77.43 119.39Q77.06 119.73 76.51 119.89Q75.87 120.09 75.43 119.92Q75.21 119.85 75.07 119.7Q74.92 119.54 74.85 119.31Q74.76 119.02 74.84 118.78Q75 118.22 76.01 117.92L77.75 117.41L78 118.24Q77.97 118.55 77.85 118.82Q77.74 119.06 77.55 119.27Q77.49 119.33 77.43 119.39ZM137.23 101.62Q136.86 101.97 136.32 102.13Q135.67 102.32 135.23 102.16Q135.01 102.08 134.87 101.93Q134.72 101.78 134.65 101.54Q134.57 101.25 134.64 101.01Q134.81 100.46 135.82 100.16L137.55 99.64L137.8 100.48Q137.77 100.79 137.65 101.05Q137.54 101.3 137.35 101.51Q137.29 101.57 137.23 101.62ZM130.18 103.36Q130.02 103.89 129.05 104.18L127.13 104.75L126.59 102.92L128.56 102.33Q129.24 102.13 129.63 102.27Q129.75 102.31 129.85 102.38Q130.07 102.55 130.17 102.87Q130.25 103.14 130.18 103.36Z" fill="#FFFFFF" fill-opacity="1.000000" fill-rule="evenodd"/>
	<path id="Любовь и забота" d="M63.15 93.52Q62.25 93.32 61.24 93.62Q60.48 93.84 59.92 94.3Q59.88 94.34 59.83 94.38Q59.53 94.65 59.3 94.97Q59.08 95.27 58.93 95.62Q58.69 94.45 59.12 93.62Q59.13 93.6 59.14 93.58Q59.59 92.75 60.82 92.09L63.65 90.58L62.96 89.15L59.85 90.85Q58.24 91.72 57.63 93.04Q57.56 93.19 57.51 93.35Q56.96 94.89 57.6 97.05Q58.29 99.37 59.68 100.3Q60.09 100.58 60.54 100.73Q61.62 101.07 62.93 100.68Q64.04 100.35 64.78 99.65Q65.27 99.19 65.55 98.62Q65.69 98.32 65.77 98Q65.81 97.85 65.83 97.7Q65.97 96.9 65.71 96.03Q65.43 95.08 64.82 94.45Q64.78 94.41 64.74 94.37Q64.41 94.05 64.01 93.83Q63.62 93.62 63.17 93.52Q63.16 93.52 63.15 93.52ZM129.26 73.88Q128.36 73.68 127.35 73.98Q126.59 74.2 126.03 74.66Q125.98 74.7 125.94 74.74Q125.64 75.01 125.41 75.33Q125.19 75.63 125.04 75.98Q124.8 74.81 125.23 73.98Q125.24 73.96 125.25 73.94Q125.7 73.11 126.92 72.45L129.76 70.94L129.07 69.51L125.96 71.21Q124.35 72.08 123.74 73.4Q123.67 73.56 123.62 73.71Q123.07 75.25 123.71 77.41Q124.4 79.73 125.78 80.66Q126.2 80.94 126.65 81.09Q127.73 81.43 129.04 81.04Q130.15 80.71 130.89 80.01Q131.38 79.55 131.66 78.98Q131.8 78.69 131.88 78.36Q131.92 78.21 131.94 78.06Q132.07 77.26 131.82 76.39Q131.53 75.44 130.92 74.81Q130.89 74.77 130.85 74.73Q130.52 74.41 130.12 74.2Q129.73 73.98 129.27 73.88Q129.27 73.88 129.26 73.88ZM45 105.86L42.21 96.47L35.3 98.52L36.32 102.45Q36.86 104.57 36.81 105.65Q36.77 106.36 36.4 106.71Q36.21 106.88 35.94 106.96Q35.71 107.03 35.52 107.03L35.85 108.58Q36.49 108.53 36.84 108.43Q37.56 108.22 37.95 107.74Q38.1 107.55 38.21 107.33Q38.58 106.53 38.47 105.22Q38.36 103.92 37.84 101.93L37.23 99.55L40.93 98.45L43.28 106.37L45 105.86ZM114.44 81.84Q113.95 81.52 113.22 81.53Q113.72 81.14 113.92 80.63Q114.01 80.39 114.03 80.14Q114.04 79.88 113.96 79.61Q113.89 79.37 113.77 79.18Q113.57 78.9 113.25 78.7Q112.7 78.37 111.91 78.34Q111.11 78.31 110.2 78.58Q110.06 78.62 109.92 78.67Q108.64 79.11 107.55 80.08L108.34 81.19Q109.38 80.31 110.46 79.99Q111.21 79.77 111.7 79.87Q112.05 79.94 112.21 80.15Q112.28 80.24 112.32 80.36Q112.37 80.52 112.34 80.68Q112.31 80.89 112.14 81.07Q111.85 81.39 111.22 81.58L109.96 81.95L110.29 83.08L111.69 82.66Q112.36 82.46 112.79 82.58Q113.03 82.65 113.18 82.8Q113.3 82.93 113.35 83.12Q113.4 83.27 113.39 83.41Q113.36 83.71 113.09 83.97Q112.69 84.38 111.85 84.63Q111.19 84.82 110.48 84.86Q109.78 84.89 109.17 84.75L109.05 86.14Q109.81 86.32 110.66 86.28Q110.79 86.27 110.93 86.26Q111.64 86.2 112.34 85.99Q113.33 85.69 114.02 85.18Q114.72 84.67 115.01 84.03Q115.17 83.69 115.19 83.34Q115.2 83.04 115.11 82.74Q115.01 82.39 114.79 82.13Q114.64 81.96 114.44 81.84ZM53.74 95.8Q52.84 95.65 51.85 95.94Q50.95 96.21 50.3 96.76Q50.28 96.78 50.26 96.8Q49.89 97.13 49.62 97.53Q49.43 97.84 49.29 98.18Q49.19 98.44 49.13 98.7Q49 99.27 49.07 99.88L47.83 100.25L47 97.47L45.33 97.97L47.46 105.13L49.13 104.63L48.28 101.76L49.49 101.4Q49.78 101.99 50.21 102.42Q50.4 102.6 50.61 102.76Q50.91 102.98 51.25 103.14Q51.7 103.34 52.2 103.42Q52.27 103.43 52.33 103.44Q53.16 103.54 54.03 103.28Q55.01 102.99 55.68 102.37Q55.75 102.31 55.81 102.24Q56.17 101.88 56.4 101.45Q56.64 101.02 56.75 100.54Q56.79 100.37 56.82 100.2Q56.93 99.37 56.67 98.49Q56.41 97.62 55.87 97Q55.76 96.86 55.62 96.74Q55.25 96.38 54.81 96.15Q54.39 95.94 53.91 95.83Q53.83 95.81 53.74 95.8ZM69.7 98.23Q70.6 98.36 71.56 98.07Q72.58 97.77 73.29 97.12Q73.34 97.07 73.39 97.02Q73.81 96.6 74.07 96.1Q74.26 95.73 74.36 95.3Q74.41 95.12 74.44 94.93Q74.55 94.12 74.29 93.26Q74.03 92.39 73.49 91.78Q73.37 91.64 73.24 91.51Q72.93 91.23 72.58 91.03Q72.08 90.74 71.49 90.62Q71.41 90.6 71.32 90.59Q70.39 90.43 69.38 90.73Q68.43 91.01 67.75 91.61Q67.65 91.69 67.56 91.78Q67.13 92.21 66.87 92.72Q66.69 93.08 66.58 93.49Q66.54 93.66 66.52 93.83Q66.4 94.65 66.66 95.53Q66.92 96.4 67.46 97.02Q67.58 97.16 67.71 97.28Q68.03 97.58 68.4 97.79Q68.89 98.07 69.46 98.19Q69.58 98.21 69.7 98.23ZM120.65 76.33Q119.59 75.82 118 76.29Q117.12 76.55 116.39 77.01Q115.67 77.48 115.23 78.07L116.25 79.1Q116.56 78.65 117.08 78.29Q117.47 78.02 117.89 77.85Q118.05 77.79 118.22 77.74Q119.1 77.48 119.67 77.75Q119.78 77.8 119.88 77.87Q120.29 78.17 120.46 78.77L120.5 78.88L118.64 79.43Q117.1 79.89 116.55 80.68Q116.31 81.03 116.24 81.42Q116.14 81.9 116.3 82.44Q116.41 82.84 116.65 83.15Q116.78 83.32 116.95 83.46Q117.01 83.5 117.07 83.55Q117.51 83.86 118.11 83.94Q118.8 84.04 119.61 83.8Q120.41 83.56 120.91 83.14Q121.31 82.8 121.5 82.37Q121.54 82.27 121.57 82.16L121.83 83.04L123.42 82.57L122.17 78.36Q121.76 76.97 120.84 76.43Q120.75 76.37 120.65 76.33ZM135.81 78.59Q136.71 78.72 137.67 78.43Q138.69 78.13 139.39 77.48Q139.45 77.43 139.5 77.38Q139.92 76.96 140.18 76.46Q140.37 76.09 140.47 75.67Q140.52 75.48 140.54 75.29Q140.66 74.48 140.4 73.62Q140.14 72.75 139.6 72.14Q139.48 72 139.35 71.87Q139.04 71.59 138.69 71.39Q138.19 71.1 137.6 70.98Q137.52 70.96 137.43 70.95Q136.5 70.79 135.49 71.09Q134.54 71.37 133.86 71.97Q133.76 72.05 133.67 72.15Q133.24 72.57 132.98 73.08Q132.8 73.44 132.69 73.85Q132.65 74.02 132.63 74.19Q132.51 75.01 132.77 75.89Q133.03 76.76 133.57 77.38Q133.69 77.52 133.82 77.64Q134.14 77.94 134.51 78.15Q135 78.43 135.57 78.55Q135.69 78.57 135.81 78.59ZM152.91 66.74Q151.85 66.23 150.26 66.7Q149.38 66.97 148.65 67.43Q147.93 67.89 147.5 68.49L148.51 69.52Q148.82 69.06 149.35 68.7Q149.73 68.44 150.16 68.27Q150.31 68.21 150.48 68.16Q151.36 67.9 151.93 68.17Q152.04 68.22 152.14 68.29Q152.55 68.58 152.73 69.18L152.76 69.29L150.91 69.84Q149.36 70.3 148.82 71.1Q148.58 71.45 148.5 71.83Q148.4 72.32 148.56 72.86Q148.68 73.26 148.91 73.56Q149.05 73.73 149.22 73.87Q149.27 73.92 149.33 73.96Q149.77 74.28 150.38 74.36Q151.07 74.46 151.87 74.22Q152.67 73.98 153.17 73.56Q153.57 73.22 153.76 72.79Q153.8 72.69 153.84 72.58L154.09 73.45L155.68 72.98L154.43 68.78Q154.02 67.39 153.1 66.84Q153.01 66.79 152.91 66.74ZM82.35 91.46Q81.87 91.08 81.09 91.08Q81.53 90.71 81.7 90.24Q81.71 90.23 81.72 90.21Q81.76 90.1 81.78 89.98Q81.85 89.59 81.72 89.17Q81.59 88.72 81.3 88.43Q81.02 88.15 80.58 88.02Q79.7 87.75 78.38 88.15L74.88 89.19L77.01 96.35L80.66 95.27Q82.08 94.85 82.65 94.11Q82.88 93.81 82.97 93.46Q83.1 92.97 82.93 92.4Q82.75 91.79 82.35 91.46ZM89.77 88Q88.85 87.61 87.49 88.01L85.56 88.57L84.86 86.22L83.19 86.72L85.31 93.88L88.67 92.9Q90.14 92.48 90.75 91.6Q90.95 91.31 91.05 90.99Q91.25 90.33 91.02 89.53Q90.77 88.71 90.22 88.28Q90.02 88.11 89.77 88ZM96.47 82.77L94.79 83.27L96.92 90.44L98.47 89.98L101.01 84.08L102.41 88.81L104.09 88.31L101.96 81.14L100.43 81.6L97.88 87.5L96.47 82.77ZM144.31 70.11L146.82 69.36L146.4 67.94L139.69 69.93L140.11 71.36L142.63 70.61L144.34 76.35L146.02 75.85L144.31 70.11ZM79.12 91.18L77.36 91.7L76.84 89.93L78.6 89.41Q79.49 89.14 79.89 89.47Q80.08 89.62 80.16 89.9Q80.24 90.19 80.17 90.42Q80 90.92 79.12 91.18ZM54.43 101.42Q54.09 101.71 53.61 101.86Q53.11 102 52.65 101.93Q52.29 101.87 51.96 101.68Q51.82 101.6 51.7 101.5Q51.14 101.05 50.89 100.21Q50.63 99.36 50.87 98.68Q50.91 98.54 50.98 98.41Q51.13 98.1 51.37 97.88Q51.73 97.52 52.27 97.36Q52.81 97.2 53.3 97.29Q53.63 97.35 53.94 97.53Q54.08 97.61 54.21 97.71Q54.76 98.16 55.01 98.99Q55.21 99.66 55.09 100.26Q55.01 100.68 54.79 101.01Q54.7 101.15 54.59 101.27Q54.51 101.35 54.43 101.42ZM72.09 96.09Q71.71 96.46 71.13 96.64Q70.55 96.81 70.03 96.7Q69.72 96.64 69.43 96.47Q69.25 96.37 69.1 96.25Q68.58 95.81 68.35 95.02Q68.12 94.25 68.31 93.6Q68.37 93.41 68.46 93.22Q68.62 92.92 68.85 92.7Q69.22 92.32 69.8 92.15Q70.37 91.98 70.89 92.08Q71.21 92.15 71.52 92.32Q71.7 92.42 71.86 92.56Q72.37 93 72.6 93.76Q72.83 94.53 72.64 95.18Q72.58 95.38 72.48 95.56Q72.32 95.87 72.09 96.09ZM138.2 76.45Q137.82 76.83 137.24 77Q136.66 77.17 136.14 77.06Q135.83 77 135.53 76.83Q135.36 76.74 135.21 76.61Q134.69 76.17 134.46 75.39Q134.23 74.61 134.42 73.96Q134.48 73.77 134.57 73.59Q134.73 73.29 134.96 73.06Q135.33 72.69 135.91 72.51Q136.48 72.34 137 72.45Q137.32 72.51 137.63 72.68Q137.81 72.78 137.97 72.92Q138.48 73.36 138.71 74.12Q138.94 74.89 138.75 75.54Q138.69 75.74 138.59 75.93Q138.43 76.23 138.2 76.45ZM63.59 98.7Q63.2 99.12 62.57 99.31Q61.94 99.5 61.39 99.37Q61.13 99.31 60.88 99.17Q60.66 99.05 60.48 98.89Q60.04 98.48 59.84 97.81Q59.64 97.14 59.8 96.57Q59.86 96.35 59.98 96.15Q60.08 95.97 60.21 95.82Q60.62 95.35 61.33 95.14Q62.02 94.93 62.6 95.1Q62.8 95.16 62.99 95.26Q63.18 95.36 63.35 95.5Q63.8 95.89 64 96.58Q64.2 97.23 64.06 97.81Q64 98.05 63.89 98.27Q63.76 98.51 63.59 98.7ZM129.69 79.07Q129.31 79.48 128.67 79.67Q128.05 79.86 127.5 79.73Q127.24 79.67 126.99 79.53Q126.77 79.41 126.59 79.25Q126.15 78.85 125.95 78.18Q125.75 77.5 125.91 76.93Q125.97 76.72 126.08 76.51Q126.19 76.33 126.32 76.18Q126.73 75.71 127.43 75.5Q128.12 75.29 128.71 75.46Q128.91 75.52 129.1 75.62Q129.29 75.72 129.45 75.86Q129.91 76.26 130.11 76.94Q130.31 77.59 130.17 78.17Q130.11 78.41 129.99 78.63Q129.87 78.87 129.69 79.07ZM89.19 91.07Q88.9 91.5 88.16 91.71L86.63 92.15L85.9 89.72L87.44 89.28Q88.21 89.07 88.67 89.24Q88.76 89.27 88.85 89.33Q89.16 89.53 89.31 90.01Q89.45 90.48 89.31 90.85Q89.26 90.96 89.19 91.07ZM120.51 81.97Q120.13 82.31 119.59 82.47Q118.95 82.67 118.5 82.51Q118.29 82.43 118.15 82.28Q118 82.12 117.93 81.89Q117.84 81.6 117.92 81.36Q118.08 80.81 119.09 80.51L120.83 79.99L121.07 80.82Q121.05 81.13 120.93 81.4Q120.82 81.65 120.62 81.85Q120.57 81.91 120.51 81.97ZM152.77 72.39Q152.4 72.73 151.86 72.89Q151.21 73.08 150.77 72.92Q150.55 72.84 150.41 72.7Q150.26 72.54 150.19 72.3Q150.11 72.02 150.18 71.78Q150.35 71.22 151.36 70.92L153.09 70.41L153.34 71.24Q153.31 71.55 153.19 71.81Q153.08 72.06 152.89 72.27Q152.83 72.33 152.77 72.39ZM81.29 93.27Q81.13 93.8 80.16 94.09L78.24 94.66L77.69 92.82L79.67 92.23Q80.35 92.03 80.74 92.17Q80.86 92.21 80.96 92.28Q81.18 92.45 81.28 92.78Q81.36 93.04 81.29 93.27Z" fill="#FFFFFF" fill-opacity="1.000000" fill-rule="evenodd"/>
	<path id="Star 1" d="M79.7 44.18L79.8 51.88L72.37 54.46L79.87 56.64L79.97 64.33L84.5 57.98L91.99 60.16L87.29 54.05L91.82 47.7L84.39 50.28L79.7 44.18Z" fill="#FFFFFF" fill-opacity="1.000000" fill-rule="nonzero"/>
	<path id="Star 4" d="M116.04 128.66L111.56 134.92L104.05 132.6L108.79 138.79L104.31 145.06L111.73 142.62L116.47 148.81L116.31 141.12L123.72 138.68L116.2 136.36L116.04 128.66Z" fill="#FFFFFF" fill-opacity="1.000000" fill-rule="nonzero"/>
	<path id="Star 2" d="M100.45 42.23L100.53 47.61L95.33 49.42L100.57 50.94L100.64 56.32L103.81 51.88L109.04 53.4L105.76 49.13L108.93 44.69L103.74 46.5L100.45 42.23Z" fill="#FFFFFF" fill-opacity="1.000000" fill-rule="nonzero"/>
	<path id="Star 3" d="M62.26 55.44L62.33 60.82L57.14 62.63L62.38 64.15L62.45 69.53L65.61 65.09L70.85 66.61L67.57 62.35L70.73 57.9L65.54 59.71L62.26 55.44Z" fill="#FFFFFF" fill-opacity="1.000000" fill-rule="nonzero"/>
	<path id="Star 5" d="M95.42 137.54L92.29 141.92L87.04 140.3L90.36 144.62L87.23 149L92.41 147.3L95.73 151.63L95.61 146.25L100.79 144.54L95.54 142.92L95.42 137.54Z" fill="#FFFFFF" fill-opacity="1.000000" fill-rule="nonzero"/>
	<path id="Star 6" d="M133.51 124.24L130.38 128.62L125.13 126.99L128.45 131.32L125.32 135.7L130.5 134L133.82 138.32L133.7 132.94L138.88 131.24L133.63 129.62L133.51 124.24Z" fill="#FFFFFF" fill-opacity="1.000000" fill-rule="nonzero"/>
</svg>
