<svg width="834.000000" height="370.000000" viewBox="0 0 834 370" fill="none" xmlns="http://www.w3.org/2000/svg" xmlns:xlink="http://www.w3.org/1999/xlink">
	<desc>
			Created with Pixso.
	</desc>
	<defs>
		<clipPath id="clip13_1624">
			<rect id="cat-3 2" rx="-0.500000" width="833.000000" height="369.000000" transform="translate(0.500000 0.500000)" fill="white" fill-opacity="0"/>
		</clipPath>
		<linearGradient x1="517.037109" y1="217.420990" x2="541.406006" y2="217.420990" id="paint_linear_13_1625_0" gradientUnits="userSpaceOnUse">
			<stop stop-color="#82CDE4"/>
			<stop offset="0.230000" stop-color="#69C2D8"/>
			<stop offset="0.720000" stop-color="#28A6BA"/>
			<stop offset="1.000000" stop-color="#0094A7"/>
		</linearGradient>
		<linearGradient x1="578.199402" y1="190.957214" x2="612.536804" y2="190.957214" id="paint_linear_13_1626_0" gradientUnits="userSpaceOnUse">
			<stop stop-color="#7BCBE2"/>
			<stop offset="1.000000" stop-color="#0096AB"/>
		</linearGradient>
		<linearGradient x1="460.000000" y1="168.121643" x2="669.325439" y2="168.121643" id="paint_linear_13_1628_0" gradientUnits="userSpaceOnUse">
			<stop stop-color="#80CDE4"/>
			<stop offset="1.000000" stop-color="#0095A9"/>
		</linearGradient>
		<linearGradient x1="557.843201" y1="264.156189" x2="741.574158" y2="264.156189" id="paint_linear_13_1633_0" gradientUnits="userSpaceOnUse">
			<stop stop-color="#E71A80"/>
			<stop offset="1.000000" stop-color="#EC6588"/>
		</linearGradient>
		<linearGradient x1="554.018616" y1="295.218933" x2="751.167419" y2="295.218933" id="paint_linear_13_1634_0" gradientUnits="userSpaceOnUse">
			<stop stop-color="#EC6588"/>
			<stop offset="1.000000" stop-color="#E71A80"/>
		</linearGradient>
		<linearGradient x1="-10211.414062" y1="2246.670898" x2="-10250.042969" y2="2258.379883" id="paint_linear_13_1640_0" gradientUnits="userSpaceOnUse">
			<stop stop-color="#EC6588"/>
			<stop offset="1.000000" stop-color="#E71A80"/>
		</linearGradient>
		<linearGradient x1="285.293671" y1="206.498383" x2="292.861084" y2="206.498383" id="paint_linear_13_1654_0" gradientUnits="userSpaceOnUse">
			<stop stop-color="#EC6588"/>
			<stop offset="1.000000" stop-color="#E71A80"/>
		</linearGradient>
		<linearGradient x1="18188.810547" y1="3333.698242" x2="28922.181641" y2="3333.698242" id="paint_linear_13_1661_0" gradientUnits="userSpaceOnUse">
			<stop stop-color="#EC6588"/>
			<stop offset="1.000000" stop-color="#E71A80"/>
		</linearGradient>
		<linearGradient x1="434.131592" y1="309.461700" x2="483.240448" y2="309.461700" id="paint_linear_13_1662_0" gradientUnits="userSpaceOnUse">
			<stop stop-color="#E71A80"/>
			<stop offset="1.000000" stop-color="#EC6588"/>
		</linearGradient>
		<linearGradient x1="61.508385" y1="307.877136" x2="149.167358" y2="309.634399" id="paint_linear_13_1664_0" gradientUnits="userSpaceOnUse">
			<stop stop-color="#82CDE4"/>
			<stop offset="0.230000" stop-color="#69C2D8"/>
			<stop offset="0.720000" stop-color="#28A6BA"/>
			<stop offset="1.000000" stop-color="#0094A7"/>
		</linearGradient>
		<linearGradient x1="54.928665" y1="319.114685" x2="156.963333" y2="321.159973" id="paint_linear_13_1665_0" gradientUnits="userSpaceOnUse">
			<stop stop-color="#0094A7"/>
			<stop offset="0.280000" stop-color="#28A6BA"/>
			<stop offset="0.770000" stop-color="#69C2D8"/>
			<stop offset="1.000000" stop-color="#82CDE4"/>
		</linearGradient>
		<linearGradient x1="318.279297" y1="365.697693" x2="682.122498" y2="365.697693" id="paint_linear_13_1666_0" gradientUnits="userSpaceOnUse">
			<stop stop-color="#EC6588"/>
			<stop offset="1.000000" stop-color="#E71A80"/>
		</linearGradient>
		<linearGradient x1="0.000000" y1="336.906433" x2="834.000061" y2="336.906433" id="paint_linear_13_1668_0" gradientUnits="userSpaceOnUse">
			<stop stop-color="#A775B0"/>
			<stop offset="1.000000" stop-color="#7E468E"/>
		</linearGradient>
	</defs>
	<rect id="cat-3 2" rx="-0.500000" width="833.000000" height="369.000000" transform="translate(0.500000 0.500000)" fill="#FFFFFF" fill-opacity="0"/>
	<g clip-path="url(#clip13_1624)">
		<path id="Vector" d="M541.4 127.57L517.03 127.57L517.03 307.26L541.4 307.26L541.4 127.57Z" fill="url(#paint_linear_13_1625_0)" fill-opacity="1.000000" fill-rule="nonzero"/>
		<path id="Vector" d="M612.28 12.65L577.95 12.65L577.95 310.93L612.28 310.93L612.28 12.65Z" fill="url(#paint_linear_13_1626_0)" fill-opacity="1.000000" fill-rule="nonzero"/>
		<path id="Vector" d="M641.38 291.37L487.93 291.37C478 291.37 469.96 299.42 469.96 309.35L469.96 314.94C469.96 324.88 478 332.93 487.93 332.93L641.38 332.93C651.3 332.93 659.35 324.88 659.35 314.94L659.35 309.35C659.35 299.42 651.3 291.37 641.38 291.37Z" fill="#241D50" fill-opacity="1.000000" fill-rule="nonzero"/>
		<path id="Vector" d="M465.56 167.9L663.76 167.9C664.49 167.9 665.21 168.05 665.89 168.33C666.56 168.61 667.18 169.02 667.69 169.53C668.21 170.05 668.62 170.66 668.9 171.34C669.18 172.02 669.32 172.74 669.32 173.47L669.32 183.13C669.32 184.6 668.74 186.02 667.69 187.06C666.65 188.1 665.24 188.68 663.77 188.68L465.55 188.68C464.08 188.68 462.66 188.1 461.62 187.06C460.58 186.02 460 184.6 460 183.13L460 173.47C460 172.74 460.14 172.02 460.42 171.34C460.7 170.66 461.11 170.05 461.62 169.53C462.14 169.02 462.76 168.61 463.43 168.33C464.1 168.05 464.83 167.9 465.56 167.9Z" fill="url(#paint_linear_13_1628_0)" fill-opacity="1.000000" fill-rule="nonzero"/>
		<path id="Vector" d="M644.22 0L546.96 0C541.71 0 537.45 4.26 537.45 9.52L537.45 12.47C537.45 17.73 541.71 21.99 546.96 21.99L644.22 21.99C649.48 21.99 653.74 17.73 653.74 12.47L653.74 9.52C653.74 4.26 649.48 0 644.22 0Z" fill="#241D50" fill-opacity="1.000000" fill-rule="nonzero"/>
		<path id="Vector" d="M551.77 113.24C551.79 118.13 550.48 122.94 548 127.16L509.4 127.16C506.92 122.94 505.61 118.13 505.63 113.24C505.63 99.17 515.95 87.77 528.69 87.77C541.43 87.77 551.77 99.17 551.77 113.24Z" fill="#353063" fill-opacity="1.000000" fill-rule="nonzero"/>
		<path id="Vector" d="M554.45 65.76L501.58 65.76C498.94 65.76 496.33 66.28 493.89 67.29C491.45 68.3 489.23 69.79 487.36 71.66C485.5 73.53 484.02 75.75 483.01 78.2C482.01 80.64 481.49 83.26 481.5 85.91L481.5 109.27C481.5 114.6 483.61 119.71 487.38 123.48C491.15 127.25 496.26 129.37 501.58 129.37L554.45 129.37C559.78 129.37 564.89 127.25 568.65 123.48C572.42 119.71 574.54 114.6 574.54 109.27L574.54 85.91C574.54 83.26 574.03 80.64 573.02 78.2C572.02 75.75 570.54 73.53 568.67 71.66C566.8 69.79 564.59 68.3 562.15 67.29C559.71 66.28 557.09 65.76 554.45 65.76ZM548 127.16L509.4 127.16C506.92 122.94 505.61 118.13 505.63 113.24C505.63 99.17 515.95 87.77 528.69 87.77C541.43 87.77 551.77 99.17 551.77 113.24C551.78 118.13 550.48 122.94 548 127.16Z" fill="#241D50" fill-opacity="1.000000" fill-rule="nonzero"/>
		<path id="Vector" d="M741.4 273.66C742.37 270.45 740.4 253.3 701.57 245.37C662.75 237.45 619.26 231.47 591.07 236.29C558.21 241.98 555.23 269.14 559.21 280.45C563.19 291.77 731.44 306.45 741.4 273.66Z" fill="url(#paint_linear_13_1633_0)" fill-opacity="1.000000" fill-rule="nonzero"/>
		<path id="Vector" d="M604.27 256.56C634.84 262.2 682.3 286.25 716.83 269.4C762.88 246.93 755.72 316.49 735.25 327.19C714.78 337.89 583.73 340.67 567.44 329.33C552.09 318.63 549.71 280.28 561.28 261.91C569.57 248.8 597.03 255.22 604.27 256.56Z" fill="url(#paint_linear_13_1634_0)" fill-opacity="1.000000" fill-rule="nonzero"/>
		<path id="Vector" d="M668.79 225.33C650.43 226.89 615.61 231.62 615.61 231.62C607.68 232.37 612.62 254.57 634.13 264.97C655.64 275.36 690.57 280.23 701.74 260.01C712.92 239.8 687.13 223.77 668.79 225.33Z" fill="#FFFFFF" fill-opacity="1.000000" fill-rule="nonzero"/>
		<path id="Vector" d="M691.01 314.07C671.16 308.87 702.18 284.73 705.17 261.78C708.16 238.82 692.38 242.85 692.38 242.85C705.49 258.66 674.68 283.77 666.02 299.37C657.36 314.97 681.28 329.39 696.47 329.55C711.66 329.71 710.86 319.26 691.01 314.07Z" fill="#FFFFFF" fill-opacity="1.000000" fill-rule="nonzero"/>
		<path id="Vector" d="M615.98 297.12C626.1 302.75 617.63 272.13 630.71 266.49C640.16 262.4 631.65 250.19 631.65 250.19C631.65 250.19 592.82 284.25 615.98 297.12Z" fill="#FFFFFF" fill-opacity="1.000000" fill-rule="nonzero"/>
		<path id="Vector" d="M635.24 215.18C635.31 214.86 630.57 205.96 628.16 201.46C628.02 201.19 627.81 200.97 627.56 200.81C627.31 200.65 627.02 200.56 626.72 200.55C626.42 200.54 626.12 200.6 625.85 200.74C625.59 200.88 625.36 201.09 625.2 201.34L614.87 217.22C611.66 218.26 600.58 222.27 596.97 230.6C596.02 229.94 589.22 231.1 585.32 231.83C585.02 231.89 584.75 232.01 584.52 232.21C584.29 232.4 584.11 232.64 584.01 232.92C583.9 233.2 583.86 233.5 583.9 233.8C583.94 234.09 584.06 234.37 584.24 234.61L591.42 244.31C591.42 244.31 590.92 245.52 594.51 250.36C597.6 254.55 602.43 258.31 617.67 256.67C630.36 254.02 658.35 233.64 635.24 215.18Z" fill="#FFFFFF" fill-opacity="1.000000" fill-rule="evenodd"/>
		<path id="Vector" d="M623.96 237.72C623.9 237.71 623.83 237.71 623.77 237.73C623.71 237.75 623.65 237.77 623.6 237.81C623.55 237.85 623.51 237.9 623.48 237.96C623.45 238.01 623.43 238.08 623.42 238.14C623.42 238.18 622.97 242.11 620.99 242.96C620.13 243.34 619.01 243.08 617.77 242.18C617.66 242.07 617.52 242 617.37 241.98C617.27 241.98 617.16 242.01 617.08 242.06C616.99 242.12 616.93 242.2 616.89 242.3C616.85 242.4 616.85 242.5 616.88 242.6C616.91 242.7 616.97 242.79 617.05 242.85L617.15 242.92C617.41 243.22 617.97 244.29 617.68 244.95C617.44 245.49 616.52 245.7 615.1 245.52C614.97 245.5 614.84 245.54 614.74 245.62C614.64 245.7 614.58 245.81 614.56 245.94C614.55 246.06 614.58 246.19 614.66 246.29C614.74 246.39 614.85 246.46 614.98 246.48C615.53 246.54 616.08 246.54 616.63 246.48C616.96 246.47 617.29 246.39 617.59 246.24C617.9 246.09 618.16 245.88 618.38 245.63C618.56 245.35 618.67 245.03 618.71 244.7C618.75 244.37 618.72 244.03 618.61 243.72C619.04 243.93 619.51 244.04 619.99 244.06C620.46 244.07 620.94 243.99 621.38 243.8C623.87 242.7 624.36 238.4 624.38 238.21C624.39 238.09 624.34 237.97 624.27 237.88C624.19 237.79 624.08 237.73 623.96 237.72Z" fill="#2A2460" fill-opacity="1.000000" fill-rule="nonzero"/>
		<path id="Vector" d="M615.3 239.6C615.21 239.6 619.11 233.8 617.11 242.45C617.11 242.42 608.71 241.06 615.3 239.6Z" fill="url(#paint_linear_13_1640_0)" fill-opacity="1.000000" fill-rule="evenodd"/>
		<g opacity="0.430000">
			<path id="Vector" d="M631.11 232.73C639.03 222.74 648.1 220.82 648.71 220.73C638.72 220.41 631.11 232.73 631.11 232.73Z" fill="#2A2460" fill-opacity="1.000000" fill-rule="evenodd"/>
		</g>
		<g opacity="0.430000">
			<path id="Vector" d="M631.81 233.45C641.92 226.65 650.76 227.54 651.34 227.65C642.26 224.44 631.81 233.45 631.81 233.45Z" fill="#2A2460" fill-opacity="1.000000" fill-rule="evenodd"/>
		</g>
		<g opacity="0.430000">
			<path id="Vector" d="M595.76 258C595.69 258 598.77 251.93 607.47 248.43C607.5 248.43 597.59 251.1 595.76 258Z" fill="#2A2460" fill-opacity="1.000000" fill-rule="evenodd"/>
		</g>
		<g opacity="0.430000">
			<path id="Vector" d="M599.91 261.23C599.86 261.26 600.9 254.77 607.84 249.05C607.82 249.05 599.58 254.34 599.91 261.23Z" fill="#2A2460" fill-opacity="1.000000" fill-rule="evenodd"/>
		</g>
		<g opacity="0.130000">
			<path id="Vector" d="M626.86 205.04C624.43 205.32 620.77 214.83 620.77 214.83C624.04 213.84 627.53 213.84 630.8 214.83C630.8 214.83 629.29 204.77 626.86 205.04Z" fill="#2A2460" fill-opacity="1.000000" fill-rule="evenodd"/>
		</g>
		<g opacity="0.130000">
			<path id="Vector" d="M588.89 234.17C587.47 235.09 592.11 239.3 592.11 239.3C592.11 239.3 592.77 235.06 595.63 233.6C595.61 233.6 590.29 233.25 588.89 234.17Z" fill="#2A2460" fill-opacity="1.000000" fill-rule="evenodd"/>
		</g>
		<path id="Vector" d="M304.4 207.79L304.4 208.04C304.42 208 304.43 207.96 304.43 207.91C304.43 207.87 304.42 207.83 304.4 207.79Z" fill="#241D50" fill-opacity="1.000000" fill-rule="evenodd"/>
		<path id="Vector" d="M304.38 208.04C303.12 209.92 271.15 204.42 271.15 204.42C271.15 204.42 253.6 234.8 268.44 267.3C278.61 288.48 287.14 302.3 285.89 326.16C276.24 328.14 277.04 335.12 283.14 334.84C284.28 334.84 289.85 334.94 290.63 334.88C298.07 334.21 293.27 303.77 291.54 294.25C291.17 292.49 291.01 291.42 291.01 291.42C291.01 291.42 291.22 292.47 291.54 294.25C293.01 301.25 297.96 319.34 310.68 325.96C309.74 325.44 304.81 325.77 301.44 327.34C295.06 330.32 290.69 335.83 304.6 334.84C321.93 335.24 338.61 334.81 338.61 334.81C338.61 334.81 384.5 310.17 345.02 269.7C325.05 249.23 299.9 260.78 304.38 208.04Z" fill="#241D50" fill-opacity="1.000000" fill-rule="evenodd"/>
		<path id="Vector" d="M291.54 294.27C291.22 292.5 291.01 291.45 291.01 291.45C291.01 291.45 291.17 292.51 291.54 294.27Z" fill="#241D50" fill-opacity="1.000000" fill-rule="evenodd"/>
		<path id="Vector" d="M389.97 218.16C368.61 224.78 362.38 256.7 358.2 302.61C357.61 309.11 354.6 328.77 334.16 333.98C334.23 334.14 334.3 334.3 334.36 334.46C362.73 337.11 374.98 310.48 376.72 287.12C379.89 252.34 384.28 229.14 403.05 235.16C411.21 238.78 415.57 210.65 389.97 218.16Z" fill="#2A2460" fill-opacity="1.000000" fill-rule="nonzero"/>
		<path id="Vector" d="M325.89 182.53C320.38 183.16 310.84 184.41 309.82 185.65C301.61 175.99 285.18 175.16 280.46 175.13L260.2 158.1C259.88 157.83 259.49 157.64 259.08 157.57C258.67 157.49 258.25 157.52 257.85 157.66C257.46 157.8 257.1 158.04 256.83 158.36C256.56 158.67 256.37 159.06 256.29 159.47C254.9 166.47 252.19 180.28 252.42 180.69C229.09 214.75 274.74 230.57 292.75 228.92C313.78 224.89 318.7 217.89 321.14 211.05C323.96 203.1 322.81 201.7 322.81 201.7L328.46 185.82C328.6 185.42 328.64 185 328.57 184.59C328.51 184.18 328.34 183.79 328.08 183.46C327.82 183.13 327.49 182.87 327.1 182.71C326.72 182.54 326.3 182.48 325.89 182.53Z" fill="#2A2460" fill-opacity="1.000000" fill-rule="evenodd"/>
		<path id="Vector" d="M291.67 212.97C289.84 213.8 288.53 213.9 287.99 213.27C287.33 212.52 287.65 210.85 287.87 210.35L287.98 210.21C288.07 210.1 288.11 209.96 288.11 209.81C288.11 209.66 288.07 209.52 287.98 209.41C287.89 209.28 287.77 209.19 287.63 209.14C287.49 209.1 287.34 209.1 287.2 209.15C287 209.24 286.85 209.4 286.75 209.58C285.43 211.3 284.06 212.09 282.79 211.93C279.76 211.6 277.56 206.57 277.56 206.51C277.52 206.43 277.47 206.35 277.41 206.29C277.35 206.23 277.27 206.18 277.19 206.15C277.11 206.11 277.02 206.1 276.93 206.1C276.84 206.1 276.76 206.12 276.68 206.15C276.59 206.19 276.52 206.24 276.46 206.3C276.4 206.36 276.35 206.44 276.32 206.52C276.28 206.6 276.27 206.69 276.27 206.78C276.27 206.87 276.29 206.96 276.32 207.04C276.42 207.27 278.83 212.82 282.6 213.28C283.26 213.34 283.93 213.26 284.56 213.05C285.19 212.83 285.77 212.49 286.26 212.04C286.25 212.5 286.35 212.96 286.53 213.39C286.72 213.81 287 214.19 287.35 214.49C287.74 214.75 288.18 214.92 288.65 214.99C289.11 215.07 289.58 215.04 290.04 214.92C290.79 214.76 291.52 214.52 292.22 214.19C292.3 214.16 292.38 214.11 292.44 214.04C292.5 213.98 292.55 213.9 292.58 213.82C292.61 213.74 292.63 213.65 292.63 213.56C292.62 213.47 292.6 213.39 292.57 213.3C292.53 213.22 292.48 213.15 292.41 213.09C292.35 213.02 292.27 212.98 292.19 212.95C292.1 212.91 292.01 212.9 291.92 212.91C291.84 212.91 291.75 212.93 291.67 212.97Z" fill="#FFFFFF" fill-opacity="1.000000" fill-rule="nonzero"/>
		<path id="Vector" d="M288.98 205.11C289.11 205.11 281.54 198.92 287.71 209.66C287.71 209.66 298.39 204.41 288.98 205.11Z" fill="url(#paint_linear_13_1654_0)" fill-opacity="1.000000" fill-rule="evenodd"/>
		<path id="Vector" d="M236.69 193.59C237.54 193.43 250.4 192.32 265.09 202.44C265.09 202.44 249.92 189.11 236.69 193.59Z" fill="#FFFFFF" fill-opacity="1.000000" fill-rule="evenodd"/>
		<path id="Vector" d="M236 203.92C236.72 203.52 248.18 198.72 264.44 203.69C264.44 203.69 246.83 195.92 236 203.92Z" fill="#FFFFFF" fill-opacity="1.000000" fill-rule="evenodd"/>
		<path id="Vector" d="M303.03 213.75C316.09 214.87 322.67 221.76 322.57 221.76C317.34 213.28 303.03 213.75 303.03 213.75Z" fill="#FFFFFF" fill-opacity="1.000000" fill-rule="evenodd"/>
		<path id="Vector" d="M302.83 214.73C314.4 219.53 318.42 227.79 318.33 227.76C316 218.42 302.83 214.73 302.83 214.73Z" fill="#FFFFFF" fill-opacity="1.000000" fill-rule="evenodd"/>
		<g opacity="0.210000">
			<path id="Vector" d="M259.51 163.71C256.15 164.34 258.23 178.4 258.23 178.4C262.19 175.75 266.85 174.32 271.61 174.3C271.61 174.3 262.86 163.09 259.51 163.71Z" fill="#FFFFFF" fill-opacity="1.000000" fill-rule="evenodd"/>
		</g>
		<g opacity="0.210000">
			<path id="Vector" d="M322.07 187.11C319.82 186.45 312.82 189.1 312.82 189.1C317.24 189.88 319.85 195.29 319.85 195.29C319.85 195.29 324.33 187.76 322.07 187.11Z" fill="#FFFFFF" fill-opacity="1.000000" fill-rule="evenodd"/>
		</g>
		<path id="Vector" d="M447.74 333.66C441.73 333.66 435.59 331.82 430.34 329.91L428.45 329.22C420.1 326.14 411.45 322.96 403.2 325.14C400.52 325.95 397.92 327.03 395.46 328.36C393.91 329.14 392.31 329.93 390.67 330.61C386.7 332.22 381.01 333.56 376.23 330.82C376.09 330.74 375.97 330.63 375.87 330.5C375.77 330.38 375.7 330.23 375.65 330.08C375.61 329.92 375.6 329.76 375.62 329.6C375.64 329.44 375.69 329.28 375.77 329.14C375.85 329 375.96 328.88 376.09 328.78C376.21 328.68 376.36 328.61 376.52 328.57C376.67 328.53 376.83 328.52 376.99 328.54C377.15 328.56 377.31 328.61 377.44 328.69C381.58 331.07 386.92 329.49 389.74 328.34C391.3 327.67 392.86 326.92 394.36 326.17C396.98 324.76 399.73 323.62 402.57 322.77C411.57 320.39 420.58 323.71 429.29 326.92L431.17 327.58C439.37 330.57 449.83 333.39 457.91 328.63C458.05 328.53 458.21 328.47 458.37 328.43C458.54 328.4 458.71 328.41 458.87 328.44C459.04 328.48 459.19 328.55 459.33 328.65C459.47 328.75 459.58 328.87 459.67 329.02C459.75 329.17 459.8 329.33 459.82 329.49C459.85 329.66 459.83 329.83 459.78 329.99C459.74 330.16 459.66 330.31 459.55 330.43C459.44 330.56 459.3 330.67 459.15 330.75C455.68 332.73 451.74 333.74 447.74 333.66Z" fill="url(#paint_linear_13_1661_0)" fill-opacity="1.000000" fill-rule="nonzero"/>
		<path id="Vector" d="M476.04 326.86C485.63 317.25 485.63 301.66 476.04 292.05C466.45 282.44 450.9 282.44 441.31 292.05C431.72 301.66 431.72 317.25 441.31 326.86C450.9 336.48 466.45 336.48 476.04 326.86Z" fill="url(#paint_linear_13_1662_0)" fill-opacity="1.000000" fill-rule="nonzero"/>
		<path id="Vector" d="M61.52 307.84C61.52 307.84 97.77 294.92 149.23 306.94C96.34 325.29 65.52 307.9 61.52 307.84Z" fill="url(#paint_linear_13_1664_0)" fill-opacity="1.000000" fill-rule="nonzero"/>
		<path id="Vector" d="M56.99 332.93L155.57 332.93C156.17 332.22 156.59 331.37 156.75 330.45C156.92 329.53 156.85 328.59 156.54 327.71L149.23 306.94C149.23 306.94 121.73 316.1 61.52 307.84L55.07 327.03C54.72 328.09 54.72 329.24 55.06 330.3C55.41 331.36 56.08 332.28 56.99 332.93Z" fill="url(#paint_linear_13_1665_0)" fill-opacity="1.000000" fill-rule="nonzero"/>
		<g opacity="0.420000">
			<path id="Vector" d="M677.85 370L322.55 370C321.42 369.99 320.33 369.54 319.53 368.73C318.73 367.93 318.28 366.83 318.27 365.69C318.28 364.55 318.73 363.46 319.53 362.66C320.33 361.85 321.42 361.39 322.55 361.39L677.85 361.39C678.98 361.39 680.06 361.85 680.86 362.66C681.66 363.46 682.12 364.55 682.12 365.69C682.12 366.83 681.66 367.93 680.86 368.73C680.06 369.54 678.98 369.99 677.85 370Z" fill="url(#paint_linear_13_1666_0)" fill-opacity="1.000000" fill-rule="nonzero"/>
		</g>
		<path id="Vector" d="M829.37 341.53L4.61 341.53C3.41 341.55 2.25 341.07 1.38 340.2C0.52 339.34 0.02 338.15 0 336.91C0.01 335.67 0.51 334.48 1.37 333.61C2.24 332.74 3.4 332.25 4.61 332.27L829.37 332.27C830.58 332.26 831.74 332.74 832.61 333.61C833.47 334.48 833.96 335.67 833.98 336.91C833.96 338.15 833.46 339.33 832.6 340.2C831.74 341.06 830.58 341.54 829.37 341.53Z" fill="url(#paint_linear_13_1668_0)" fill-opacity="1.000000" fill-rule="nonzero"/>
	</g>
</svg>
