<svg width="176.998047" height="59.999146" viewBox="0 0 176.998 59.9991" fill="none" xmlns="http://www.w3.org/2000/svg" xmlns:xlink="http://www.w3.org/1999/xlink">
	<desc>
			Created with Pixso.
	</desc>
	<defs>
		<linearGradient x1="-0.001625" y1="29.999146" x2="176.998383" y2="29.999146" id="paint_linear_21_352_0" gradientUnits="userSpaceOnUse">
			<stop stop-color="#81CCE3"/>
			<stop offset="0.230000" stop-color="#68C1D7"/>
			<stop offset="0.720000" stop-color="#27A4B9"/>
			<stop offset="1.000000" stop-color="#0093A7"/>
		</linearGradient>
	</defs>
	<g opacity="0.140000">
		<path id="Vector" d="M166.95 34.42C159.66 30.18 150.94 28.94 142.53 29.45C134.12 29.95 125.9 32.1 117.77 34.25C118.76 32.11 119.03 29.7 118.54 27.39C118.05 25.08 116.83 22.99 115.05 21.44C113.21 19.97 110.93 19.14 108.58 19.08C106.22 19.02 103.91 19.73 101.99 21.1C98.5 12.17 93.22 2.51 83.94 0.38C76.96 -1.21 69.56 2.28 64.81 7.61C60.07 12.94 57.58 19.94 55.9 26.9C53.68 24.87 50.95 23.5 48 22.94C45.05 22.38 42.01 22.64 39.2 23.71C36.39 24.77 33.94 26.59 32.1 28.97C30.26 31.34 29.12 34.18 28.79 37.17C24.63 33.18 19.75 29.42 14.07 28.79C6.91 28.01 0.97 33.64 0.1 40.51C-0.88 48.26 5.17 55.93 11.69 59.28C12.19 59.54 12.69 59.77 13.21 59.99L164.64 59.99C167.47 58.99 170.35 58.17 173.29 57.53C173.79 57.09 174.25 56.6 174.68 56.08C177.42 52.69 177.61 47.71 175.86 43.69C174.11 39.67 170.72 36.61 166.95 34.42Z" fill="url(#paint_linear_21_352_0)" fill-opacity="1.000000" fill-rule="nonzero"/>
	</g>
</svg>
