<svg width="417.000000" height="396.000000" viewBox="0 0 417 396" fill="none" xmlns="http://www.w3.org/2000/svg" xmlns:xlink="http://www.w3.org/1999/xlink">
	<desc>
			Created with Pixso.
	</desc>
	<defs>
		<clipPath id="clip16_212">
			<rect id="happy 2" rx="-0.500000" width="157.000000" height="157.000000" transform="translate(113.500000 129.500000)" fill="white" fill-opacity="0"/>
		</clipPath>
	</defs>
	<path id="Vector" d="M208.69 56.87C246.04 60.72 277.26 18.51 314.42 23.96C354.64 29.85 408.57 47.36 416.19 87.28C424.9 132.97 360.48 161.89 349.35 207.05C341.95 237.09 381.49 271.14 364.51 297C347.17 323.4 301.53 304.66 274.5 321.02C246.57 337.91 239.72 381.12 208.69 391.27C177.11 401.61 138.39 394.59 112.21 374.13C86.28 353.86 90.65 313.16 73.1 285.32C54.57 255.91 17.31 240.22 6.9 207.05C-4.59 170.47 -1.2 129.73 13.07 94.13C28.3 56.15 49.38 8.45 89.58 0.79C133.44 -7.56 164.28 52.3 208.69 56.87Z" fill="#F9EAEF" fill-opacity="0.200000" fill-rule="evenodd"/>
	<g opacity="0.200000">
		<rect id="happy 2" rx="-0.500000" width="157.000000" height="157.000000" transform="translate(113.500000 129.500000)" fill="#FFFFFF" fill-opacity="0"/>
		<g clip-path="url(#clip16_212)">
			<path id="Vector" d="M201.41 129.43C197.06 130.45 194.34 131.9 191.41 134.83C188.14 138.07 186.01 141.8 184.87 146.28C184.28 148.62 184.34 154.76 184.96 157.69C185.24 158.96 185.58 160.81 185.67 161.77L185.89 163.5L184.4 163.71C175.79 164.92 167.65 167.88 161.17 172.2C158.02 174.3 153.42 178.52 151.69 180.87C150.92 181.92 150.46 182.32 150.21 182.1C149.38 181.39 144.81 179.88 142.22 179.39C138.89 178.8 137.71 178.96 135.77 180.19C134.13 181.24 132.71 183.74 132.1 186.64C131.51 189.48 131.91 198.31 132.87 203.55C133.58 207.44 135.64 216.14 136.36 218.18C136.6 218.83 136.29 219.66 134.6 222.96L132.59 226.97L130.89 226.76C128.64 226.51 123.06 226.45 122.41 226.7C121.64 227 120.96 228.61 121.17 229.6C121.54 231.29 122.22 231.54 126.6 231.79C128.83 231.91 130.71 232.07 130.77 232.16C130.86 232.22 130.77 232.68 130.59 233.18C130.03 234.57 129.04 240.92 129.04 242.93C129.04 244.72 129.01 244.75 128.05 245.09C127.5 245.3 125.83 246.05 124.38 246.75C121.73 248.11 121.02 248.85 121.02 250.3C121.02 251.11 122.62 252.74 123.43 252.74C123.8 252.74 125.22 252.19 126.6 251.51C129.32 250.21 129.63 250.24 129.66 251.82C129.69 252.25 130.21 254.1 130.83 255.98L131.97 259.35L129.32 262C127.44 263.88 126.42 265.18 125.71 266.66C121.94 274.47 123.83 280.67 131.05 284.25C134.87 286.16 138.49 286.78 145.24 286.81C151.72 286.81 153.79 286.38 158.6 284.03L161.51 282.64L165.09 283.57C174.31 285.95 181.5 286.81 192.15 286.81C202.8 286.81 209.99 285.95 219.21 283.57L222.79 282.64L225.69 284.03C230.51 286.38 232.58 286.81 239.06 286.81C245.78 286.78 249.27 286.16 253.19 284.28C260.44 280.73 262.35 274.5 258.59 266.66C257.88 265.18 256.86 263.88 254.95 261.97L252.26 259.28L252.88 257.8C253.19 256.97 253.81 254.99 254.21 253.39C254.61 251.79 255.01 250.43 255.07 250.37C255.13 250.27 256.31 250.8 257.69 251.48C259.05 252.19 260.47 252.74 260.84 252.74C261.65 252.74 263.28 251.14 263.28 250.3C263.28 248.85 262.57 248.11 259.92 246.75C258.47 246.05 256.8 245.3 256.27 245.09C255.29 244.75 255.26 244.72 255.26 242.93C255.26 240.92 254.27 234.57 253.71 233.18C253.53 232.68 253.44 232.22 253.53 232.16C253.59 232.07 255.47 231.91 257.69 231.79C262.08 231.54 262.76 231.29 263.13 229.6C263.34 228.61 262.66 227 261.89 226.7C261.24 226.45 255.66 226.51 253.41 226.76L251.71 226.97L249.73 222.99L247.79 219.01L248.9 214.97C253.65 197.57 253.93 185.34 249.58 180.99C247.79 179.2 246.09 178.77 242.88 179.27C240.29 179.67 237.05 180.65 234.98 181.7L233.69 182.38L232.61 180.87C230.85 178.49 226.19 174.24 223.07 172.2C217.79 168.68 210.82 165.78 204.59 164.55L201.72 163.96L201.38 160.6C201.16 158.74 200.79 156.06 200.48 154.61C199.9 151.71 200.02 149.98 200.91 148.19C201.72 146.59 203.44 145.14 204.8 144.86C206.72 144.52 210.02 145.69 213.23 147.88C215.2 149.24 216.62 149.73 218.57 149.73C224.43 149.73 228.07 143.72 225.48 138.38C224.83 137.05 224.15 136.31 222.58 135.14C219.95 133.19 215.02 130.72 212.05 129.92C209.06 129.09 203.91 128.84 201.41 129.43ZM211.71 135.35C214.4 136.25 218.66 138.59 220.17 140.01C221.19 141.03 221.28 142.45 220.35 143.62C219.43 144.8 217.85 144.73 216.03 143.41C213.94 141.92 209.99 140.17 207.89 139.77C203.04 138.87 198.94 140.88 196.5 145.32C194.68 148.68 194.43 151.09 195.36 156C195.7 157.69 196.07 160.01 196.16 161.15L196.38 163.25L193.76 163.25L191.13 163.25L190.95 161.46C190.82 160.5 190.45 158.16 190.08 156.31C188.97 150.29 189.8 145.66 192.8 141.25C197.12 134.92 203.97 132.79 211.71 135.35ZM199.18 168.96C211.07 170.5 221.43 175.72 227.82 183.34L229.03 184.79L226.77 186.12C225.57 186.83 222.92 188.52 220.91 189.85L217.27 192.29L215.05 191.39C207.27 188.18 199.37 186.83 190.14 187.1C182.61 187.32 176.23 188.62 169.75 191.21L167.06 192.26L164.19 190.31C162.59 189.23 159.93 187.54 158.3 186.55L155.3 184.76L156.2 183.65C158.58 180.65 162.31 177.57 166.38 175.16C175.42 169.79 187.8 167.48 199.18 168.96ZM142.53 184.85C143.95 185.19 145.95 185.84 147 186.33C149.96 187.69 156.66 191.61 161.57 194.88C164.28 196.7 166.26 197.81 166.75 197.81C167.18 197.81 168.57 197.38 169.81 196.86C177.8 193.43 185.11 192.07 193.85 192.35C201.47 192.6 206.53 193.65 213.44 196.45C215.33 197.19 217.24 197.81 217.73 197.81C218.29 197.81 219.71 197.04 221.87 195.53C232.85 187.97 243.16 183.18 245.66 184.51C247.23 185.38 247.85 191.92 246.96 198.74C246.37 203.06 244.89 209.94 243.62 214.26C241.99 219.85 241.99 219.78 243.81 222.99C244.64 224.51 245.57 226.23 245.81 226.85L246.28 227.93L242.7 228.98C238.59 230.15 231.8 233.39 230.14 234.94C228.96 236.05 228.78 236.88 229.4 238.02C230.38 239.9 231.68 239.9 235.08 237.96C239.3 235.52 247.57 232.53 248.19 233.21C248.71 233.83 250.35 242.96 249.98 243.33C249.92 243.39 248.53 243.24 246.93 242.99C243.25 242.47 237.08 242.1 236.03 242.37C235.17 242.59 234.27 243.95 234.27 245.03C234.27 245.4 234.64 246.08 235.14 246.54C235.94 247.34 236.19 247.4 239.67 247.59C243.35 247.8 249.33 248.58 249.67 248.88C249.89 249.13 249.18 252.5 248.38 254.84C247.67 257.03 247.97 256.94 244.61 256.01C242.2 255.33 236.96 255.3 234.43 255.98C225.23 258.36 217.95 266.97 218.63 274.62C218.75 275.73 218.91 277.03 219 277.46C219.21 278.23 219.15 278.26 215.54 279.06C207.09 281.01 201.78 281.56 192.15 281.56C182.52 281.56 177.21 281.01 168.76 279.06C165.15 278.26 165.09 278.23 165.3 277.46C165.39 277.03 165.55 275.73 165.67 274.62C166.35 266.88 159.19 258.45 149.87 255.98C147.37 255.3 142.13 255.33 139.69 256.01C136.42 256.91 136.63 256.97 136.08 255.3C135.4 253.36 134.6 250.18 134.6 249.44C134.6 248.91 134.94 248.76 136.69 248.48C139.78 247.93 144.07 247.5 146.26 247.5C148.02 247.5 148.33 247.4 149.13 246.6C149.63 246.11 150.03 245.4 150.03 245.03C150.03 243.95 149.13 242.59 148.27 242.37C147.22 242.1 141.05 242.47 137.37 242.99C135.77 243.24 134.38 243.39 134.32 243.33C133.95 242.96 135.59 233.83 136.11 233.21C136.73 232.53 145 235.52 149.22 237.96C152.62 239.9 153.92 239.9 154.9 238.02C155.92 236.14 154.84 234.87 150.12 232.47C146.48 230.58 142.65 229.1 139.63 228.36L138.02 227.99L138.49 226.88C138.73 226.23 139.63 224.54 140.46 223.06C141.32 221.54 142 219.97 142 219.51C142 219.01 141.45 216.7 140.74 214.32C139.35 209.45 137.9 202.53 137.34 198.06C136.85 193.8 137.1 187.17 137.81 185.78C138.76 183.99 138.85 183.96 142.53 184.85ZM149.13 261.26C155.86 263.23 161.35 269.93 160.39 275.05C159.99 277.18 156.63 279.87 153.42 280.61L152.65 280.79L152.65 276.81C152.65 273.05 152.62 272.8 151.91 272.06C150.86 270.95 149.19 270.95 148.14 272.06C147.5 272.77 147.4 273.14 147.31 276.13C147.19 280.48 147.13 280.76 145.86 281.35C144.97 281.78 144.69 281.78 143.82 281.44C142.4 280.85 142 279.59 142 275.82C142 273.02 141.94 272.62 141.32 271.97C140.37 270.95 138.64 271.01 137.65 272.06C136.94 272.8 136.91 273.05 136.91 276.81L136.91 280.79L136.14 280.61C132.87 279.87 129.6 277.27 129.17 275.11C128.61 272.12 129.97 268.76 132.87 265.83C136.33 262.37 140.03 260.79 144.66 260.76C146.32 260.76 148.11 260.95 149.13 261.26ZM243.87 261.26C249.52 262.93 254.67 268.11 255.17 272.65C255.41 274.81 255.04 276.13 253.68 277.58C252.57 278.79 250.04 280.18 248.16 280.61L247.39 280.79L247.39 276.81C247.39 273.05 247.36 272.8 246.65 272.06C245.69 271.04 244.02 270.98 243.01 271.94C242.36 272.55 242.3 272.86 242.3 275.79C242.3 279.59 241.9 280.85 240.48 281.44C239.61 281.78 239.33 281.78 238.44 281.35C237.17 280.76 237.11 280.48 236.99 276.13C236.9 273.14 236.8 272.77 236.16 272.06C235.11 270.95 233.44 270.95 232.39 272.06C231.68 272.8 231.65 273.05 231.65 276.81L231.68 280.79L230.88 280.61C229.06 280.21 226.22 278.6 225.2 277.37C223.44 275.33 223.35 272.77 224.89 269.62C226.56 266.13 230.45 262.86 234.49 261.51C237.08 260.61 241.31 260.52 243.87 261.26Z" fill="#F6A6BF" fill-opacity="1.000000" fill-rule="nonzero"/>
			<path id="Vector" d="M160.55 221.91C157.59 222.68 156.17 223.39 155.61 224.38C154.78 225.86 156.04 228.05 157.74 228.05C158.2 228.05 159.38 227.78 160.39 227.41C161.41 227.04 163.39 226.7 164.9 226.6C169.41 226.33 171.63 227.56 173.39 231.36C173.94 232.59 174.68 233.73 175.02 233.92C176.07 234.47 177.18 234.26 178.17 233.3C179.31 232.16 179.25 231.23 177.92 228.52C176.26 225.15 173.48 222.75 170.12 221.76C167.8 221.08 163.42 221.14 160.55 221.91Z" fill="#F6A6BF" fill-opacity="1.000000" fill-rule="nonzero"/>
			<path id="Vector" d="M211.53 221.73C207.3 223.02 203.29 227.47 202.86 231.29C202.74 232.44 202.83 232.75 203.51 233.42C205.05 234.97 207.24 234.16 208.04 231.76C208.6 230.09 210.63 227.81 212.21 227.1C213.94 226.3 217.45 226.33 220.23 227.16C223.75 228.21 224.55 228.24 225.45 227.31C226.25 226.54 226.47 225.31 226.06 224.2C225.79 223.49 223.93 222.62 221.13 221.88C218.32 221.17 213.57 221.08 211.53 221.73Z" fill="#F6A6BF" fill-opacity="1.000000" fill-rule="nonzero"/>
			<path id="Vector" d="M185.36 237.44C182.61 238.76 181.19 241.42 181.87 244.04C182.12 245.09 182.8 246.05 184.68 248.08C186.07 249.53 187.71 251.08 188.32 251.51L189.5 252.28L189.53 256.91C189.53 261.14 189.46 261.69 188.85 262.93C188.45 263.67 187.77 264.53 187.34 264.87C185.64 266.1 182.89 266.1 181.23 264.87C179.59 263.64 179.25 262.8 179.03 259.65C178.85 257.03 178.76 256.6 178.14 256.1C176.97 255.15 175.45 255.24 174.5 256.32C173.88 257 173.79 257.43 173.79 259.84C173.79 263.36 174.56 265.55 176.53 267.65C180.52 271.91 186.84 272.28 191.16 268.48L192.21 267.58L192.89 268.29C193.91 269.37 196.25 270.55 198.23 270.95C201.59 271.63 205.23 270.36 207.77 267.65C209.74 265.55 210.51 263.36 210.51 259.84C210.51 257.43 210.42 257 209.83 256.32C208.85 255.24 207.33 255.15 206.16 256.1C205.54 256.6 205.45 257.03 205.27 259.65C205.05 262.8 204.71 263.64 203.07 264.87C201.41 266.1 198.66 266.1 196.96 264.87C196.53 264.53 195.85 263.67 195.48 262.93C194.84 261.69 194.77 261.14 194.77 256.91L194.8 252.28L195.98 251.51C196.59 251.08 198.23 249.53 199.62 248.08C201.5 246.05 202.18 245.09 202.43 244.04C203.01 241.79 202.02 239.47 199.9 237.99C198.69 237.16 198.69 237.16 192.49 237.1C187.64 237.03 186.07 237.1 185.36 237.44ZM197.12 242.59C197.4 243.05 192.89 247.5 192.15 247.5C191.41 247.5 186.9 243.05 187.18 242.59C187.34 242.37 188.91 242.25 192.15 242.25C195.39 242.25 196.96 242.37 197.12 242.59Z" fill="#F6A6BF" fill-opacity="1.000000" fill-rule="nonzero"/>
		</g>
	</g>
</svg>
