<svg width="400.000000" height="376.000000" viewBox="0 0 400 376" fill="none" xmlns="http://www.w3.org/2000/svg" xmlns:xlink="http://www.w3.org/1999/xlink">
	<desc>
			Created with Pixso.
	</desc>
	<defs>
		<clipPath id="clip21_322">
			<rect id="leaves1 2" rx="-0.500000" width="399.000000" height="375.000000" transform="translate(0.500000 0.500000)" fill="white" fill-opacity="0"/>
		</clipPath>
		<linearGradient x1="287.404724" y1="342.191467" x2="177.182373" y2="46.468811" id="paint_linear_21_326_0" gradientUnits="userSpaceOnUse">
			<stop stop-color="#F9C8C3"/>
			<stop offset="1.000000" stop-color="#FCE4E2"/>
		</linearGradient>
	</defs>
	<rect id="leaves1 2" rx="-0.500000" width="399.000000" height="375.000000" transform="translate(0.500000 0.500000)" fill="#FFFFFF" fill-opacity="0"/>
	<g clip-path="url(#clip21_322)">
		<g opacity="0.350000">
			<g opacity="0.350000">
				<path id="Vector" d="M249.16 64.5C283.58 57.8 294.24 5.08 328.98 0.31C343.81 -1.73 358.55 6.47 368.24 17.84C377.93 29.2 383.58 43.4 389.04 57.32C394.89 72.15 400.76 87.47 399.92 103.33C399.08 119.2 389.52 135.77 374.06 139.5C359.55 143.02 342.08 135.21 330.41 144.51C320.69 152.25 321.48 167.51 326.57 178.84C331.65 190.16 340.04 200.01 343.31 211.99C345.16 218.73 345.27 225.83 343.65 232.63C342.02 239.44 338.72 245.72 334.02 250.91C329.33 256.1 323.41 260.03 316.8 262.33C310.19 264.63 303.11 265.24 296.21 264.09C290.07 263.07 283.91 260.68 277.81 261.94C267.77 264 262.19 275.22 261.63 285.47C261.07 295.71 263.99 305.86 263.9 316.05C263.66 341.57 243.58 364.31 219.28 372.22C195 380.12 167.84 374.98 145.25 363.06C122.67 351.14 104.02 332.99 86.99 313.96C63.19 287.36 41.06 256.63 37.33 221.16C33.59 185.7 54.68 145.5 89.87 139.39C107.93 136.25 129.63 141.17 142.4 128.01C159.27 110.66 144.76 77.03 162.03 60.01C172.83 49.35 190.62 51.15 205.06 55.83C219.5 60.5 234.26 67.44 249.16 64.5Z" fill="url(#paint_linear_21_326_0)" fill-opacity="1.000000" fill-rule="nonzero"/>
			</g>
			<g opacity="0.350000">
				<path id="Vector" d="M336.5 67.08C334.93 69.2 197.78 254.95 0 334.59L2.26 340.62C201.93 260.24 340.16 73.01 341.72 70.87L336.5 67.08Z" fill="#FFFFFF" fill-opacity="1.000000" fill-rule="nonzero"/>
			</g>
			<g opacity="0.350000">
				<path id="Vector" d="M207.22 205.67L303.8 201.22L304.09 207.66L207.51 212.11L207.22 205.67Z" fill="#FFFFFF" fill-opacity="1.000000" fill-rule="evenodd"/>
			</g>
			<g opacity="0.350000">
				<path id="Vector" d="M160.08 241.83L196.51 111.92L202.72 113.66L166.29 243.57L160.08 241.83Z" fill="#FFFFFF" fill-opacity="1.000000" fill-rule="evenodd"/>
			</g>
			<g opacity="0.350000">
				<path id="Vector" d="M228.79 302.12L117.24 279.16L111.59 170.17L105.14 170.51L111.05 284.47L227.48 308.43L228.79 302.12Z" fill="#FFFFFF" fill-opacity="1.000000" fill-rule="nonzero"/>
			</g>
		</g>
	</g>
</svg>
