<svg width="627.000000" height="595.000000" viewBox="0 0 627 595" fill="none" xmlns="http://www.w3.org/2000/svg" xmlns:xlink="http://www.w3.org/1999/xlink">
	<desc>
			Created with Pixso.
	</desc>
	<defs/>
	<path id="Vector" d="M313.79 85.46C369.95 91.24 416.9 27.82 472.76 36C533.23 44.85 614.33 71.16 625.78 131.14C638.89 199.79 542.01 243.25 525.28 311.1C514.15 356.23 573.61 407.4 548.08 446.25C522.01 485.92 453.38 457.77 412.74 482.34C370.74 507.73 360.44 572.64 313.79 587.9C266.3 603.42 208.09 592.88 168.73 562.14C129.74 531.69 136.31 470.53 109.92 428.7C82.05 384.52 26.03 360.94 10.37 311.1C-6.9 256.13 -1.8 194.93 19.66 141.44C42.56 84.36 74.24 12.7 134.7 1.19C200.64 -11.36 247.02 78.58 313.79 85.46Z" fill="#F9EAEF" fill-opacity="0.300000" fill-rule="evenodd"/>
	<path id="Vector" d="M255.5 153.65C240.78 171.01 245.81 201.21 265.33 212.9C290.04 227.66 317.1 204.54 311.51 173.53C310.29 166.96 309.74 165.67 304.57 158.29C299.57 151.15 298.38 149.95 293.55 147.23C287.63 143.96 280.44 142.53 273.49 143.45C268.45 144.11 259.19 149.4 255.5 153.65ZM277.54 158.91C283.64 158.95 287.26 160.6 291.02 165.14C304.97 182.05 291.9 208.78 273.92 199.96C256.89 191.67 259.75 159.05 277.54 158.91Z" fill="#FFFFFF" fill-opacity="1.000000" fill-rule="nonzero"/>
	<path id="Vector" d="M167.05 217.6C163.5 222.71 161.65 232.74 162.83 239.93C163.73 245.4 164.45 246.92 169.45 254.07C174.63 261.45 175.65 262.41 181.41 265.79C194.26 273.3 209.2 273.6 220.5 266.53C228.15 261.78 231.91 256.63 233.75 248.41C238.07 228.88 223.41 209.12 201.6 205.02C191.5 203.12 184.06 204.5 175.89 209.86C171.62 212.61 168.69 215.26 167.05 217.6ZM191.51 219.97C200.22 218.9 208.66 222.44 214.63 229.62C228.8 246.85 208.67 264.17 188.6 252.03C180.46 247.08 175.87 237.02 178.53 229.65C180.38 224.78 185.83 220.72 191.51 219.97Z" fill="#FFFFFF" fill-opacity="1.000000" fill-rule="nonzero"/>
	<path id="Vector" d="M337.47 176.89C329.1 186.81 325.89 197.91 328 210.42C329.17 218.1 329.63 219.09 334.35 225.83C338.56 231.85 340.23 233.56 343.85 235.56C349.63 238.81 356.56 240.18 363.49 239.4C368.44 238.8 369.95 238.11 376.61 233.44C383.67 228.5 384.26 227.85 387.86 221.14C402.19 194.37 384.26 162.43 357.31 166.34C349.43 167.44 342.2 171.3 337.47 176.89ZM360.95 181.38C368.75 181.66 374.11 186.16 376.64 194.44C380.54 207.01 372.18 222.43 360.53 224C349.16 225.62 340.71 213.72 343.26 199.5C344.99 189.8 353.5 181.09 360.95 181.38Z" fill="#FFFFFF" fill-opacity="1.000000" fill-rule="nonzero"/>
	<path id="Vector" d="M162.22 303.97C157.5 310.26 155.53 318.45 156.9 326.58C157.78 331.83 158.59 333.66 162.75 339.6C167.13 345.86 168.1 346.73 174.78 350.43C201.72 365.54 233.47 347.62 229.69 319.53C229.1 314.68 228.37 313.15 223.65 306.41C218.91 299.81 217.61 298.45 212.84 295.81C201.73 289.47 187.35 288.29 176.46 292.93C169.89 295.73 166.55 298.31 162.22 303.97ZM188.18 305.65C200.29 303.75 213.11 311.88 214.58 322.33C215.2 327.04 211.94 333.74 207.55 336.82C198.14 343.41 181.14 340 174.34 330.29C171.25 325.87 171.21 318.48 174.31 313.56C176.14 310.49 183.33 306.41 188.18 305.65Z" fill="#FFFFFF" fill-opacity="1.000000" fill-rule="nonzero"/>
	<path id="Vector" d="M260.18 262.44C251.79 272.49 247.72 288.37 250.19 302.07C251.49 309.77 251.45 310.04 247.77 316.81C245.02 321.72 243.51 326.24 242.55 332.54C236.61 370.78 273.38 401.25 309.48 388.06C321.88 383.56 333.6 371.42 337.96 358.8L339.88 353.03L345.96 353.2C359.16 353.52 373.77 347.01 382.79 336.87C397.97 319.66 399.06 294.02 385.52 274.68C375.01 259.68 355.22 251.28 337.2 254.09C329.37 255.26 329.24 255.24 322.52 251.33C310.32 244.08 293.07 242.65 280.21 247.82C274.35 250.13 264.24 257.56 260.18 262.44ZM290.08 261.24C299.86 258.69 312.41 261.75 320.53 268.51C325.24 272.39 327.5 272.96 332.79 271.17C340.05 268.84 345.23 268.56 352.26 270.09C362.24 272.32 366.62 275.24 372.75 283.98C377.02 290.08 377.94 292.07 378.91 297.13C380.45 305.5 379.33 312.74 375.43 320.01C372.41 325.72 371.4 326.78 364.97 331.28C358.85 335.56 357.14 336.29 352 337.13C348.67 337.55 342.67 337.32 338.55 336.62C328.51 334.8 326.71 336.06 324.83 346.22C324.14 350.41 322.22 356.18 320.71 359.03C318.24 363.51 316.97 364.88 310.85 369.16C304.9 373.33 302.87 374.27 297.94 375.09C289.67 376.45 282.45 375.16 275.15 371.07C269.36 367.82 268.34 366.86 263.73 360.28C257.68 351.48 256.39 346.29 257.68 336.3C258.65 329.16 260.68 324.39 265.35 318.37C268.84 314.01 269.08 311.69 267.04 305.94C263.53 296.09 264.94 283.26 270.39 275.02C274.44 268.95 282.86 262.95 290.08 261.24Z" fill="#FFFFFF" fill-opacity="1.000000" fill-rule="nonzero"/>
</svg>
