<svg width="224.761719" height="216.897217" viewBox="0 0 224.762 216.897" fill="none" xmlns="http://www.w3.org/2000/svg" xmlns:xlink="http://www.w3.org/1999/xlink">
	<desc>
			Created with Pixso.
	</desc>
	<defs>
		<clipPath id="clip11_728">
			<rect id="pawprint 12" rx="-0.500000" width="172.008911" height="144.985458" transform="translate(80.546875 0.500000) rotate(33.232029)" fill="white" fill-opacity="0"/>
		</clipPath>
	</defs>
	<g opacity="0.300000">
		<rect id="pawprint 12" rx="-0.500000" width="172.008911" height="144.985458" transform="translate(80.546875 0.500000) rotate(33.232029)" fill="#FFFFFF" fill-opacity="0"/>
		<g clip-path="url(#clip11_728)">
			<path id="Vector" d="M170.09 69.29C157.6 65.01 142.62 73.85 140.7 86.62C138.3 102.76 156.57 112.42 171.85 103.12C175.08 101.14 175.65 100.58 178.44 96.32C181.14 92.2 181.51 91.33 181.9 88.2C182.34 84.39 181.51 80.28 179.49 76.77C178.03 74.23 173.17 70.38 170.09 69.29ZM172.15 82.08C173.47 85.33 173.39 87.59 171.8 90.52C165.87 101.39 148.76 99.89 149.49 88.53C150.15 77.79 168.15 72.65 172.15 82.08Z" fill="#FAF7F5" fill-opacity="1.000000" fill-rule="nonzero"/>
			<path id="Vector" d="M116.54 35.33C113.03 34.49 107.28 35.55 103.71 37.64C101 39.24 100.35 39.93 97.65 44.05C94.86 48.31 94.57 49.05 94.04 52.8C92.88 61.17 96.01 69.17 102.26 73.73C106.49 76.83 110.05 77.78 114.84 77.07C126.19 75.38 133.48 63.56 130.85 51.12C129.64 45.37 127.26 41.69 122.61 38.44C120.2 36.74 118.14 35.72 116.54 35.33ZM120.66 48.81C123.16 53.23 123.13 58.43 120.62 63.07C114.58 74.13 100.92 66.96 102.95 53.81C103.79 48.47 108.14 43.98 112.65 43.89C115.65 43.88 119.02 45.95 120.66 48.81Z" fill="#FAF7F5" fill-opacity="1.000000" fill-rule="nonzero"/>
			<path id="Vector" d="M175.79 117.61C168.66 115.19 162.04 115.74 155.84 119.42C152.02 121.61 151.59 122.06 149.04 125.94C146.77 129.41 146.22 130.64 145.95 132.98C145.5 136.72 146.29 140.68 148.24 144.2C149.65 146.72 150.35 147.37 154.31 149.96C158.49 152.71 158.97 152.89 163.34 153.43C180.75 155.58 193.81 139.53 185.78 126C183.46 122.04 179.81 118.98 175.79 117.61ZM178.58 131.01C180.14 135.21 178.93 138.98 175.08 142.01C169.25 146.66 159.19 145.36 155.79 139.49C152.42 133.78 156.89 126.85 165.02 125.3C170.57 124.24 177.09 126.99 178.58 131.01Z" fill="#FAF7F5" fill-opacity="1.000000" fill-rule="nonzero"/>
			<path id="Vector" d="M69.47 50.4C65.09 49.18 60.29 49.8 56.26 52.19C53.66 53.73 52.86 54.53 50.62 57.95C48.25 61.56 48 62.25 47.5 66.56C45.4 83.97 61.94 97.19 76.07 89.44C78.52 88.14 79.17 87.44 81.72 83.56C84.19 79.68 84.63 78.71 84.98 75.64C85.91 68.44 83.36 60.56 78.49 55.71C75.55 52.79 73.44 51.54 69.47 50.4ZM74.3 64.54C77.98 70.59 76.48 79.07 71.25 81.98C68.87 83.27 64.58 82.91 61.98 81.2C56.4 77.55 54.46 67.81 58.13 62.21C59.8 59.67 63.73 58.14 67.03 58.79C69.07 59.13 72.83 62.12 74.3 64.54Z" fill="#FAF7F5" fill-opacity="1.000000" fill-rule="nonzero"/>
			<path id="Vector" d="M113.19 93.99C105.99 91.58 96.63 92.66 89.88 96.77C86.07 99.04 85.91 99.07 81.5 98.49C78.28 98.03 75.54 98.16 71.97 98.93C50.3 103.58 42.18 129.35 57.17 145.85C62.3 151.52 71.35 155.27 79.03 155.01L82.53 154.86L83.78 158.12C86.51 165.21 93.2 171.64 100.6 174.37C113.1 178.93 127 174.27 134.31 163.12C139.98 154.47 140.09 142.23 134.62 133.23C132.27 129.31 132.25 129.23 132.85 124.86C134.02 116.9 130.98 107.43 125.39 101.65C122.87 99.01 116.68 95.15 113.19 93.99ZM120.42 109.64C123.93 114.32 125.07 121.62 123.27 127.31C122.24 130.61 122.44 131.93 124.56 134.37C127.39 137.75 128.68 140.45 129.42 144.5C130.43 150.26 129.85 153.19 126.54 158.23C124.24 161.75 123.38 162.64 120.9 164.19C116.78 166.72 112.68 167.6 107.94 167.01C104.24 166.57 103.45 166.25 99.64 163.75C96.01 161.38 95.25 160.61 93.66 158.05C92.71 156.37 91.5 153.13 90.97 150.8C89.73 145.09 88.66 144.39 82.83 145.47C80.45 145.95 76.95 146.11 75.1 145.89C72.17 145.49 71.16 145.1 67.54 142.72C64 140.4 63.05 139.52 61.53 137.07C58.98 132.95 58.08 128.85 58.64 124.13C59.1 120.39 59.38 119.65 61.87 115.86C65.22 110.85 67.7 109.1 73.31 107.74C77.32 106.8 80.31 106.91 84.54 108.16C87.64 109.13 88.92 108.78 91.54 106.52C96.01 102.64 103.16 100.77 108.74 101.99C112.87 102.9 117.92 106.15 120.42 109.64Z" fill="#FAF7F5" fill-opacity="1.000000" fill-rule="nonzero"/>
		</g>
	</g>
</svg>
