<svg width="626.929688" height="595.461914" viewBox="0 0 626.93 595.462" fill="none" xmlns="http://www.w3.org/2000/svg" xmlns:xlink="http://www.w3.org/1999/xlink">
	<desc>
			Created with Pixso.
	</desc>
	<defs/>
	<path id="Vector" d="M313.17 509.93C257.01 504.14 210.07 567.61 154.21 559.43C93.75 550.57 12.66 524.24 1.21 464.21C-11.89 395.51 84.97 352.02 101.7 284.1C112.83 238.94 53.37 187.73 78.9 148.85C104.97 109.15 173.59 137.33 214.23 112.74C256.22 87.33 266.52 22.37 313.17 7.1C360.65 -8.44 418.85 2.11 458.21 32.88C497.2 63.35 490.63 124.56 517.01 166.42C544.88 210.64 600.89 234.24 616.55 284.1C633.82 339.12 628.72 400.38 607.27 453.9C584.37 511.02 552.68 582.74 492.23 594.26C426.3 606.82 379.93 516.81 313.17 509.93Z" fill="#F9EAEF" fill-opacity="0.300000" fill-rule="evenodd"/>
	<path id="Vector" d="M434.64 252.46C413.29 244.57 386.62 259.63 382.31 281.97C376.89 310.23 407.87 327.74 435.11 311.88C440.86 308.5 441.89 307.54 447.06 300.15C452.06 293.01 452.78 291.48 453.68 286.01C454.74 279.34 453.62 272.09 450.38 265.87C448.04 261.37 439.9 254.47 434.64 252.46ZM437.23 274.97C439.28 280.71 438.96 284.68 435.98 289.77C424.86 308.65 395.27 305.52 397.41 285.6C399.38 266.77 431.02 258.3 437.23 274.97Z" fill="#FFFFFF" fill-opacity="1.000000" fill-rule="nonzero"/>
	<path id="Vector" d="M344.29 191.24C338.27 189.65 328.21 191.34 321.85 194.9C317.03 197.62 315.84 198.82 310.84 205.97C305.67 213.35 305.11 214.64 303.9 221.21C301.24 235.85 306.07 250 316.57 258.19C323.66 263.75 329.78 265.53 338.14 264.44C357.97 261.82 371.53 241.29 367.93 219.39C366.26 209.25 362.42 202.73 354.59 196.89C350.54 193.82 347.05 191.97 344.29 191.24ZM350.42 215.02C354.41 222.84 353.97 231.98 349.26 240.05C337.91 259.26 314.75 246.27 319.3 223.26C321.16 213.92 329.05 206.16 336.89 206.15C342.1 206.21 347.78 209.95 350.42 215.02Z" fill="#FFFFFF" fill-opacity="1.000000" fill-rule="nonzero"/>
	<path id="Vector" d="M440.83 337.42C428.65 332.95 417.11 333.73 406.07 339.99C399.26 343.72 398.48 344.49 393.76 351.23C389.55 357.25 388.51 359.4 387.86 363.49C386.79 370.03 387.87 377.01 390.97 383.25C393.23 387.7 394.4 388.88 401.06 393.54C408.12 398.48 408.94 398.82 416.47 399.91C446.53 404.21 470.42 376.44 457.52 352.46C453.8 345.43 447.7 339.96 440.83 337.42ZM444.64 361.02C447.04 368.44 444.65 375.02 437.73 380.22C427.24 388.19 409.89 385.61 404.43 375.21C399.02 365.08 407.32 353.07 421.55 350.59C431.27 348.9 442.36 353.92 444.64 361.02Z" fill="#FFFFFF" fill-opacity="1.000000" fill-rule="nonzero"/>
	<path id="Vector" d="M261.46 216.24C253.94 213.97 245.56 214.92 238.39 218.99C233.75 221.6 232.31 222.99 228.15 228.93C223.77 235.19 223.27 236.39 222.09 243.93C217.1 274.42 244.8 298.12 269.9 284.95C274.26 282.74 275.45 281.54 280.17 274.8C284.76 268.08 285.59 266.39 286.44 261.01C288.6 248.41 284.79 234.49 276.7 225.84C271.82 220.63 268.26 218.37 261.46 216.24ZM268.75 241.21C274.68 251.93 271.43 266.76 262.11 271.72C257.89 273.91 250.48 273.15 246.09 270.07C236.68 263.48 234.07 246.35 240.87 236.63C243.96 232.22 250.89 229.66 256.58 230.89C260.09 231.55 266.38 236.91 268.75 241.21Z" fill="#FFFFFF" fill-opacity="1.000000" fill-rule="nonzero"/>
	<path id="Vector" d="M333.99 294.07C321.68 289.63 305.35 291.24 293.32 298.25C286.53 302.1 286.26 302.15 278.65 301.01C273.09 300.11 268.32 300.24 262.07 301.48C224.1 308.99 208.04 353.96 232.78 383.37C241.25 393.48 256.67 400.33 270.02 400.11L276.1 399.94L278.02 405.71C282.23 418.23 293.35 429.72 305.97 434.73C327.33 443.11 351.8 435.36 365.34 416.02C375.85 401.01 376.97 379.55 368.18 363.58C364.4 356.62 364.37 356.49 365.75 348.84C368.39 334.9 363.84 318.2 354.58 307.89C350.41 303.17 339.97 296.22 333.99 294.07ZM345.34 321.75C351.08 330.08 352.5 342.91 348.93 352.85C346.89 358.6 347.13 360.92 350.62 365.28C355.29 371.3 357.32 376.07 358.29 383.21C359.6 393.34 358.36 398.45 352.24 407.2C347.96 413.3 346.42 414.85 341.99 417.49C334.65 421.8 327.46 423.22 319.29 422.05C312.9 421.16 311.55 420.58 305.12 416.08C299.01 411.79 297.74 410.43 295.19 405.89C293.66 402.91 291.82 397.19 291.07 393.08C289.35 383.02 287.55 381.76 277.35 383.47C273.18 384.26 267.1 384.43 263.9 383.99C258.85 383.2 257.13 382.47 251.02 378.19C245.06 374.02 243.48 372.43 241.03 368.09C236.91 360.78 235.66 353.56 237.01 345.3C238.08 338.75 238.63 337.46 243.24 330.88C249.45 322.19 253.88 319.19 263.72 316.99C270.75 315.46 275.93 315.74 283.19 318.06C288.48 319.85 290.74 319.29 295.45 315.4C303.51 308.73 316.05 305.67 325.66 307.97C332.75 309.7 341.27 315.55 345.34 321.75Z" fill="#FFFFFF" fill-opacity="1.000000" fill-rule="nonzero"/>
</svg>
