<svg width="431.000000" height="384.000000" viewBox="0 0 431 384" fill="none" xmlns="http://www.w3.org/2000/svg" xmlns:xlink="http://www.w3.org/1999/xlink">
	<desc>
			Created with Pixso.
	</desc>
	<defs>
		<clipPath id="clip13_1669">
			<rect id="leaves2 2" rx="-0.500000" width="430.000000" height="383.000000" transform="translate(0.500000 0.500000)" fill="white" fill-opacity="0"/>
		</clipPath>
		<linearGradient x1="458.550476" y1="192.003906" x2="251.594299" y2="192.003906" id="paint_linear_13_1672_0" gradientUnits="userSpaceOnUse">
			<stop stop-color="#82CDE4"/>
			<stop offset="0.230000" stop-color="#69C2D8"/>
			<stop offset="0.720000" stop-color="#28A6BA"/>
			<stop offset="1.000000" stop-color="#0094A7"/>
		</linearGradient>
		<linearGradient x1="329.410461" y1="339.980774" x2="44.389282" y2="339.980774" id="paint_linear_13_1678_0" gradientUnits="userSpaceOnUse">
			<stop stop-color="#E71A80"/>
			<stop offset="1.000000" stop-color="#EC6588"/>
		</linearGradient>
	</defs>
	<rect id="leaves2 2" rx="-0.500000" width="430.000000" height="383.000000" transform="translate(0.500000 0.500000)" fill="#FFFFFF" fill-opacity="0"/>
	<g clip-path="url(#clip13_1669)">
		<path id="Vector" d="M314.44 278.4C322.46 260.28 344.21 252.44 355.26 235.99C369.99 214.01 361 183.24 343.98 163.42C326.96 143.59 303.45 130.78 283.85 113.57C264.25 96.37 247.69 71.3 252.41 45.26C256.19 24.34 273.98 7.31 294.36 2C314.75 -3.31 336.92 2.16 354.16 14.07C383.66 34.44 398.11 70.35 408.94 104.84C415.59 126.01 421.74 147.92 431 167.92L431 384L340.49 384C333.55 365.79 326.62 347.58 319.69 329.37C313.46 313.04 307.26 294.54 314.44 278.4Z" fill="url(#paint_linear_13_1672_0)" fill-opacity="1.000000" fill-rule="nonzero"/>
		<path id="Vector" d="M314.53 68.5L318.54 64.76C420.71 176.09 419.53 309.79 410.86 384L405.4 384C413.99 310.74 415.38 178.44 314.53 68.5Z" fill="#FFFFFF" fill-opacity="1.000000" fill-rule="nonzero"/>
		<path id="Vector" d="M413.1 350.2L345.92 283.09L349.78 279.15L411.87 341.19C417.33 331.29 424.27 318.76 431 306.55L431 317.82C422.61 333.02 415.57 345.75 414.86 347.03L413.1 350.2Z" fill="#FFFFFF" fill-opacity="1.000000" fill-rule="nonzero"/>
		<path id="Vector" d="M386.61 175.67L382.81 97.92L388.26 97.58L392.82 190.86L325.36 115.51L329.42 111.78L386.61 175.67Z" fill="#FFFFFF" fill-opacity="1.000000" fill-rule="nonzero"/>
		<path id="Vector" d="M328.79 365.64C315.24 371.2 268.1 388.89 273.19 363.9C277.59 342.23 308.17 352.91 323.56 359.81C311.68 346.1 300.51 331.79 290.07 316.95C272.37 326.55 205.95 360.23 209.49 323.11C212.77 288.74 265.53 304.07 286.17 311.41C280.43 303.25 274.82 295.02 269.26 286.92C263.8 278.99 258.42 271.06 252.88 263.21C250.09 259.25 247.23 255.24 244.3 251.19C230.13 266.34 178.75 318.16 170.42 281.92C162.43 247.04 220.83 246.16 241.13 246.87C228.28 229.5 213.91 211.88 197.6 196.07C185.9 208.74 130.91 265.93 122.3 228.32C114.06 192.37 176.39 192.54 194.77 193.36C182.46 181.56 168.85 171.2 154.2 162.47C149.65 159.8 145.01 157.38 140.32 155.2C131.78 168.46 104.66 207.54 94.69 184.45C85.75 163.73 117.53 155.27 133.84 152.35C117.57 145.52 100.23 141.56 82.6 140.64C77.79 151.73 62.32 184.06 52.13 167.96C43.82 154.92 61.64 145.35 73.89 140.57C60.02 140.73 46.31 143.39 33.39 148.42C23.37 157.79 3.26 174.18 0.26 158.62C-2.67 143.4 19.24 142.01 31.35 142.37C45.37 136.98 60.25 134.21 75.27 134.21C62.83 126.04 40.68 109.3 56.03 102.58C72.64 95.31 79.79 123.09 81.97 134.34C101.56 135.24 120.81 139.74 138.77 147.61C130.35 132.62 109.84 92.35 134.19 94.61C159.53 96.95 147.46 137.38 143.25 149.63C148.03 151.87 152.77 154.31 157.41 157.05C172.19 165.85 185.94 176.28 198.42 188.13C195.11 165.88 187.13 96.17 219.94 112.52C253.75 129.35 213.38 179.01 202.2 191.74C218.22 207.3 232.36 224.52 245.04 241.54C241.61 217.52 234.85 151.88 266.85 167.77C300.66 184.62 260.27 234.28 249.1 247.01C252.22 251.25 255.23 255.46 258.13 259.64C263.65 267.51 269.05 275.46 274.51 283.41C279.98 291.36 285.44 299.37 291.03 307.33C287.6 283.26 280.93 217.81 312.88 233.71C346.77 250.58 306.15 300.4 295.07 313.01C306.52 329.07 318.55 344.85 331.74 359.47C329.63 344.53 324.26 295.18 347.1 306.83C370.73 318.88 341.33 353.76 333.97 361.93C337.46 365.71 340.99 369.42 344.68 373.02C348.12 376.39 352.15 380.12 356.66 384L347.12 384C344.78 381.88 342.5 379.73 340.22 377.5C336.3 373.65 332.49 369.69 328.79 365.64Z" fill="#2F296C" fill-opacity="1.000000" fill-rule="nonzero"/>
		<path id="Vector" d="M381.73 355.4C393.11 361.08 388.46 373.82 382.11 384L369.06 384C367.86 369.01 368.44 348.76 381.73 355.4Z" fill="#2F296C" fill-opacity="1.000000" fill-rule="nonzero"/>
		<path id="Vector" d="M96.31 319.83C128.53 299.21 173.65 290.28 211.72 299.65C249.17 308.84 275.31 333.2 299.51 356.48L328.1 383.99L44.86 383.99C53.05 359.45 70.59 336.32 96.31 319.83Z" fill="url(#paint_linear_13_1678_0)" fill-opacity="1.000000" fill-rule="nonzero"/>
		<path id="Vector" d="M136.79 342.29C148.39 335.58 161.92 332.93 176.96 334.41C222.56 338.88 268.25 364.41 297.41 384L288 384C259.18 365.31 216.99 342.85 175.88 338.81C162.4 337.49 150.37 339.84 140.1 345.78C125.43 354.26 115.79 369.07 109.3 384.02L103.34 384.02C110.15 367.94 120.54 351.7 136.79 342.29Z" fill="#FFFFFF" fill-opacity="1.000000" fill-rule="nonzero"/>
	</g>
</svg>
